<svg width="48" height="48" viewBox="0 0 48 48" fill="none" xmlns="http://www.w3.org/2000/svg">
	<path d="M48 9.40722C46.2375 10.1907 44.3771 10.6804 42.4188 10.9742C44.3771 9.79897 45.9437 7.93814 46.6292 5.68557C44.7687 6.76289 42.7125 7.54639 40.4604 8.03608C38.6979 6.17526 36.1521 5 33.4104 5C28.1229 5 23.8146 9.30928 23.8146 14.5979C23.8146 15.3814 23.9125 16.067 24.1083 16.7526C16.1771 16.3608 9.02917 12.5412 4.23125 6.66495C3.44792 8.13402 2.95833 9.70103 2.95833 11.4639C2.95833 14.7938 4.62292 17.732 7.26667 19.4948C5.7 19.3969 4.23125 19.0052 2.86042 18.3196V18.4175C2.86042 23.1186 6.18958 27.0361 10.5958 27.9175C9.8125 28.1134 8.93125 28.2113 8.05 28.2113C7.4625 28.2113 6.77708 28.1134 6.18958 28.0155C7.4625 31.8351 10.9875 34.6753 15.1979 34.6753C11.8688 37.2216 7.75625 38.7887 3.25208 38.7887C2.46875 38.7887 1.68542 38.7887 1 38.6907C5.30833 41.433 10.3021 43 15.7854 43C33.5083 43 43.2021 28.3093 43.2021 15.5773C43.2021 15.1856 43.2021 14.6959 43.2021 14.3041C45.0625 13.0309 46.7271 11.366 48 9.40722Z" fill="currentColor" />
</svg>
