<svg width="174" height="62" viewBox="0 0 174 62" fill="none" xmlns="http://www.w3.org/2000/svg">
<g clip-path="url(#clip0_347_530)">
<path d="M47.1648 41.6651H44.7867L51.8966 22.0342H54.1457L61.2278 41.6651H58.7311L56.6842 35.6136H49.2117L47.1648 41.6651ZM53.002 24.8485H52.9218L49.8637 33.7524H56.0322L53.002 24.8485Z" fill="#082A3A"/>
<path d="M69.8546 26.3282C70.865 26.2796 71.8683 26.5202 72.7453 27.0214C73.4291 27.4232 73.9674 28.0298 74.283 28.7544H74.3876V20.9907H76.6612V41.6649H74.5062V39.2734H74.3876C74.1215 40.0412 73.5837 40.6866 72.8743 41.0895C71.7151 41.7403 70.3767 42.0049 69.0551 41.8446C67.7336 41.6843 66.4985 41.1075 65.5307 40.1988C64.4544 39.0735 63.9151 37.5635 63.9128 35.6688V32.5495C63.9128 30.701 64.4521 29.1992 65.5307 28.0438C66.6094 26.8885 68.0507 26.3167 69.8546 26.3282ZM70.1614 28.335C69.6104 28.3101 69.0609 28.4108 68.555 28.6295C68.0491 28.8481 67.6003 29.1789 67.2428 29.5966C66.5315 30.4376 66.1747 31.6114 66.1723 33.1179V35.1004C66.1723 36.6162 66.5385 37.7958 67.2707 38.6391C67.6389 39.0599 68.098 39.3925 68.6136 39.6121C69.1293 39.8318 69.6882 39.9328 70.2486 39.9077C70.809 39.9319 71.3681 39.8354 71.8875 39.6249C72.4069 39.4143 72.8744 39.0946 73.2579 38.6877C74.0111 37.872 74.3876 36.7641 74.3876 35.3638V32.5357C74.4042 31.9809 74.3074 31.4286 74.103 30.9121C73.8986 30.3956 73.5909 29.9256 73.1986 29.5307C72.8023 29.1345 72.328 28.8238 71.8054 28.6181C71.2829 28.4124 70.7232 28.316 70.1614 28.335Z" fill="#082A3A"/>
<path d="M86.0725 41.9178C85.3875 41.9225 84.7073 41.8051 84.064 41.5712C83.4832 41.3652 82.9496 41.0459 82.4948 40.6319C82.0599 40.221 81.7165 39.7239 81.4871 39.1728C81.2336 38.568 81.1066 37.9182 81.114 37.2631C81.0938 36.4564 81.3016 35.6603 81.7138 34.9652C82.1476 34.2816 82.7798 33.745 83.527 33.4263C84.4424 33.0308 85.4338 32.8391 86.4316 32.8648H90.4975V31.3225C90.4975 30.3174 90.2034 29.5722 89.6153 29.087C89.026 28.6052 88.1926 28.3626 87.1221 28.3626C85.367 28.3626 84.2941 28.9657 83.9036 30.1718H81.6998C81.73 29.5994 81.8938 29.0417 82.1783 28.543C82.4627 28.0444 82.86 27.6183 83.3387 27.2986C84.3127 26.6516 85.6087 26.3281 87.2267 26.3281C88.869 26.3281 90.2046 26.7302 91.2437 27.5343C92.2828 28.3384 92.7989 29.6138 92.7989 31.2948V41.6648H90.5777V39.6303H90.4975C89.542 41.1553 88.067 41.9178 86.0725 41.9178ZM86.6444 39.963C87.6526 39.9913 88.6338 39.6368 89.3886 38.9718C89.7442 38.6657 90.0279 38.2857 90.2195 37.8587C90.4111 37.4317 90.506 36.9681 90.4975 36.5006V34.7434H86.477C85.4425 34.7434 84.68 34.9744 84.1895 35.4365C83.9444 35.6968 83.7547 36.0036 83.6317 36.3385C83.5088 36.6734 83.4552 37.0296 83.474 37.3856C83.4929 37.7416 83.5839 38.0902 83.7416 38.4104C83.8993 38.7306 84.1205 39.0158 84.3918 39.249C85.0403 39.7324 85.834 39.984 86.6444 39.963Z" fill="#082A3A"/>
<path d="M107.075 41.6651H104.958V22.0342H107.176L113.85 37.7555H113.93L120.555 22.0342H122.801V41.6651H120.709V27.039H120.562L114.924 40.1609H112.852L107.179 27.039H107.075V41.6651Z" fill="#082A3A"/>
<path d="M134.043 26.3281C135.94 26.3281 137.486 26.9139 138.68 28.0853C139.875 29.2568 140.474 30.8742 140.476 32.9376V35.3291C140.476 37.3809 139.873 38.9983 138.666 40.1814C138.055 40.7696 137.33 41.2291 136.536 41.5322C135.741 41.8354 134.893 41.9759 134.043 41.9455C132.118 41.9455 130.563 41.3679 129.377 40.2125C128.192 39.0572 127.598 37.4398 127.595 35.3603V32.9688C127.595 30.9863 128.202 29.392 129.416 28.1858C130.018 27.5782 130.74 27.0998 131.535 26.7802C132.331 26.4607 133.185 26.3068 134.043 26.3281ZM129.855 33.1664V35.0553C129.833 35.9404 130.003 36.8198 130.354 37.6339C130.658 38.3223 131.16 38.906 131.797 39.3114C132.473 39.7195 133.252 39.9253 134.043 39.9041C134.618 39.934 135.193 39.8317 135.722 39.6051C136.251 39.3785 136.721 39.0337 137.094 38.5974C137.821 37.724 138.186 36.5433 138.189 35.0553V33.1664C138.189 31.6968 137.814 30.523 137.066 29.645C136.697 29.2125 136.233 28.8693 135.711 28.6417C135.188 28.4141 134.62 28.308 134.05 28.3314C133.475 28.3115 132.902 28.4205 132.375 28.6503C131.849 28.8801 131.38 29.2248 131.006 29.6589C130.238 30.5484 129.855 31.7176 129.855 33.1664Z" fill="#082A3A"/>
<path d="M150.247 26.3282C151.257 26.28 152.26 26.5205 153.137 27.0214C153.82 27.4234 154.357 28.0301 154.672 28.7544H154.78V20.9907H157.05V41.6649H154.898V39.2734H154.78C154.513 40.042 153.974 40.6877 153.263 41.0895C152.333 41.6542 151.255 41.9328 150.166 41.8902C149.378 41.9226 148.593 41.7887 147.86 41.4971C147.128 41.2056 146.467 40.7631 145.919 40.1988C144.841 39.0735 144.303 37.5635 144.305 35.6688V32.5495C144.305 30.701 144.843 29.1992 145.919 28.0438C146.996 26.8885 148.438 26.3167 150.247 26.3282ZM150.55 28.335C149.999 28.3098 149.45 28.4104 148.945 28.6291C148.44 28.8479 147.992 29.1788 147.635 29.5966C146.919 30.4376 146.562 31.6114 146.564 33.1179V35.1004C146.564 36.6162 146.929 37.7958 147.659 38.6391C148.028 39.0599 148.487 39.3925 149.002 39.6121C149.518 39.8318 150.077 39.9328 150.637 39.9077C151.198 39.9322 151.758 39.8358 152.278 39.6253C152.798 39.4147 153.266 39.0948 153.65 38.6877C154.403 37.872 154.78 36.7641 154.78 35.3638V32.5357C154.798 31.9789 154.701 31.4244 154.494 30.9065C154.288 30.3885 153.977 29.9181 153.581 29.5244C153.184 29.1307 152.711 28.822 152.189 28.6174C151.668 28.4128 151.11 28.3167 150.55 28.335Z" fill="#082A3A"/>
<path d="M168.002 41.9179C166.02 41.9179 164.464 41.3252 163.337 40.1399C162.209 38.9545 161.647 37.3533 161.649 35.3361V32.8926C161.649 30.9101 162.23 29.3204 163.393 28.1236C164.586 26.9722 166.183 26.3281 167.846 26.3281C169.508 26.3281 171.106 26.9722 172.298 28.1236C173.433 29.3228 174 30.9125 174 32.8926V34.7434H163.937V35.5094C163.892 36.6568 164.273 37.7806 165.007 38.6668C165.718 39.4964 166.717 39.91 168.002 39.9076C168.78 39.935 169.551 39.7504 170.231 39.3739C170.758 39.0958 171.166 38.638 171.381 38.0846H173.787C173.703 38.5361 173.532 38.967 173.282 39.3531C172.983 39.812 172.62 40.2263 172.204 40.5835C171.682 41.0177 171.079 41.3452 170.429 41.547C169.646 41.8016 168.826 41.9269 168.002 41.9179ZM163.937 33.0001H171.713V32.7332C171.73 31.9271 171.564 31.1274 171.228 30.3937C170.933 29.758 170.457 29.2227 169.858 28.8549C169.241 28.4909 168.534 28.306 167.818 28.3211C167.289 28.3017 166.763 28.3988 166.277 28.6056C165.791 28.8123 165.358 29.1235 165.007 29.5168C164.291 30.314 163.934 31.3815 163.937 32.7193V33.0001Z" fill="#082A3A"/>
<path d="M33.6179 25.7876V18.1938C33.6173 17.8674 33.5353 17.5462 33.3792 17.259C33.2232 16.9718 32.9979 16.7275 32.7237 16.5479C32.4494 16.3684 32.1347 16.2591 31.8076 16.23C31.4805 16.2009 31.1513 16.2528 30.8493 16.3811L12.3857 24.2799L2.78959 20.1797C2.48761 20.0515 2.15836 19.9996 1.83127 20.0287C1.50418 20.0578 1.18943 20.167 0.915182 20.3466C0.64093 20.5261 0.415714 20.7704 0.259664 21.0576C0.103614 21.3448 0.0215947 21.666 0.0209375 21.9924V40.9163C0.020418 41.243 0.101735 41.5648 0.257557 41.8525C0.413379 42.1402 0.638804 42.3849 0.913501 42.5644C1.1882 42.7439 1.50353 42.8526 1.83105 42.8807C2.15858 42.9088 2.48799 42.8555 2.78959 42.7255L12.3718 38.6288L30.8528 46.5241C31.1547 46.6533 31.4842 46.7059 31.8116 46.6772C32.1391 46.6485 32.4542 46.5394 32.7287 46.3597C33.0033 46.18 33.2285 45.9352 33.3844 45.6475C33.5402 45.3599 33.6216 45.0382 33.6214 44.7115V37.1176V25.7876H33.6179ZM31.1247 17.0188C31.3205 16.935 31.5342 16.9008 31.7465 16.9194C31.9589 16.9379 32.1632 17.0086 32.3413 17.1251C32.5194 17.2416 32.6655 17.4003 32.7666 17.5868C32.8677 17.7733 32.9206 17.9819 32.9205 18.1938V24.2868C32.8572 24.2345 32.7909 24.1859 32.7218 24.1413C32.4453 23.9601 32.1277 23.8505 31.7977 23.8224C31.5371 23.8017 31.275 23.8335 31.0271 23.916C30.9664 23.9326 30.907 23.9534 30.8493 23.9784L25.7653 26.1515L14.2548 31.087L9.00338 28.8307C8.77227 28.7319 8.57535 28.568 8.43699 28.3591C8.29862 28.1503 8.22488 27.9058 8.22488 27.6557C8.22488 27.4057 8.29862 27.1611 8.43699 26.9523C8.57535 26.7435 8.77227 26.5795 9.00338 26.4808L31.1247 17.0188ZM32.9205 37.1211C32.9217 37.3334 32.8689 37.5425 32.7671 37.7291C32.6653 37.9157 32.5178 38.0737 32.3382 38.1886C32.2937 38.2185 32.2471 38.2451 32.1987 38.2683L32.0976 38.3134H32.0523C31.7497 38.4183 31.4185 38.4059 31.1247 38.2787L29.8555 37.7346L22.1493 34.4385L24.9389 33.2497C25.0306 33.2116 25.1192 33.1664 25.2039 33.1145C25.4919 32.9396 25.7294 32.6934 25.8932 32.4C26.057 32.1066 26.1415 31.776 26.1384 31.4405C26.1386 31.3419 26.1316 31.2435 26.1174 31.1459C26.0704 30.813 25.937 30.4979 25.7303 30.2318C25.5237 29.9656 25.2509 29.7575 24.9389 29.6278L22.1493 28.439L25.5351 26.9903L31.1143 24.6022C31.2609 24.5384 31.4181 24.5019 31.578 24.4948C31.7506 24.4897 31.9223 24.519 32.0833 24.5809C32.2442 24.6428 32.3911 24.7361 32.5152 24.8553C32.6393 24.9744 32.7382 25.1171 32.806 25.2748C32.8738 25.4326 32.9092 25.6022 32.9101 25.7737L32.9205 37.1211ZM24.8482 32.5219C24.7858 32.5633 24.7191 32.5981 24.6494 32.6258L21.2706 34.0746L15.137 31.4543L21.2706 28.8307L24.6529 30.2794C24.8661 30.3707 25.0505 30.5177 25.1865 30.7047C25.3225 30.8917 25.4051 31.1118 25.4255 31.3417C25.4458 31.5715 25.4032 31.8026 25.3022 32.0104C25.2012 32.2182 25.0455 32.3949 24.8517 32.5219H24.8482ZM12.4171 37.8871L9.02082 36.4314C8.79153 36.3323 8.59634 36.1689 8.45924 35.9611C8.32215 35.7532 8.24911 35.5102 8.24911 35.2617C8.24911 35.0131 8.32215 34.7701 8.45924 34.5623C8.59634 34.3544 8.79153 34.191 9.02082 34.0919L14.2513 31.846L20.3884 34.4662L12.4171 37.8871ZM2.52807 42.0878C2.33263 42.1724 2.11905 42.2073 1.90662 42.1893C1.6942 42.1714 1.48963 42.1011 1.3114 41.9848C1.13317 41.8685 0.986886 41.71 0.885776 41.5234C0.784666 41.3368 0.731911 41.1282 0.732279 40.9163V21.9924C0.730459 21.7804 0.782566 21.5714 0.883762 21.3848C0.984958 21.1981 1.13196 21.04 1.31112 20.9249C1.51774 20.7877 1.76002 20.713 2.00851 20.71C2.18504 20.7099 2.35964 20.7465 2.5211 20.8175L11.507 24.6577L8.71745 25.843C8.36157 25.9956 8.05842 26.2483 7.84543 26.5702C7.63244 26.892 7.51894 27.2688 7.51894 27.654C7.51894 28.0392 7.63244 28.416 7.84543 28.7378C8.05842 29.0596 8.36157 29.3124 8.71745 29.4649L13.3621 31.4543L8.71745 33.4403C8.36157 33.5928 8.05842 33.8456 7.84543 34.1674C7.63244 34.4893 7.51894 34.866 7.51894 35.2513C7.51894 35.6365 7.63244 36.0132 7.84543 36.3351C8.05842 36.6569 8.36157 36.9097 8.71745 37.0622L11.507 38.251L2.52807 42.0878ZM32.9205 44.7115C32.9215 44.9236 32.8692 45.1327 32.7683 45.3197C32.6674 45.5068 32.5212 45.6658 32.3429 45.7825C32.1646 45.8992 31.9598 45.9698 31.7471 45.9879C31.5344 46.0061 31.3205 45.9712 31.1247 45.8864L13.2993 38.2614L21.3194 34.8405L29.6393 38.4035L30.8632 38.9269C30.9342 38.9591 31.0077 38.9857 31.0829 39.0066H31.1387L31.3061 39.0447H31.3758H31.5362H31.6478H31.7175C31.7721 39.0483 31.8268 39.0483 31.8814 39.0447H31.986L32.1499 39.0066L32.2475 38.9788C32.3058 38.9617 32.3629 38.9408 32.4184 38.9165L32.4986 38.8818C32.5775 38.8443 32.6543 38.8027 32.7288 38.757L32.7706 38.7258C32.8251 38.6908 32.8775 38.6526 32.9275 38.6115L32.9205 44.7115Z" fill="#082A3A"/>
</g>
<defs>
<clipPath id="clip0_347_530">
<rect width="174" height="61" fill="white" transform="translate(0 0.933594)"/>
</clipPath>
</defs>
</svg>
