<svg width="440" height="314" viewBox="0 0 440 314" fill="none" xmlns="http://www.w3.org/2000/svg">
<rect width="440" height="314" fill="#1D222E"/>
<g filter="url(#filter0_dd_264_6081)">
<rect x="64.2124" y="80.9951" width="311.575" height="141.559" rx="11.675" fill="#2A3245"/>
</g>
<path d="M103.46 100.185L103.446 114.578C103.446 114.778 103.499 114.974 103.6 115.148C103.702 115.321 103.848 115.465 104.024 115.565L108.042 117.853C108.218 117.953 108.418 118.006 108.622 118.006C108.826 118.006 109.027 117.954 109.203 117.854C109.38 117.754 109.527 117.61 109.63 117.437C109.732 117.264 109.786 117.067 109.787 116.867L109.794 104.255C109.795 102.907 109.265 101.61 108.314 100.637C107.363 99.6652 106.065 99.093 104.694 99.0413H104.665C104.509 99.0358 104.353 99.0613 104.207 99.1163C104.061 99.1713 103.928 99.2547 103.816 99.3614C103.703 99.4682 103.614 99.5961 103.553 99.7376C103.491 99.8791 103.46 100.031 103.46 100.185Z" fill="#00CB4A"/>
<path d="M87.7276 119.223L100.418 112.035C100.595 111.935 100.741 111.792 100.844 111.619C100.946 111.445 101 111.249 101 111.049L101.01 106.485C101.009 106.285 100.955 106.089 100.853 105.916C100.752 105.743 100.605 105.599 100.429 105.499C100.253 105.398 100.053 105.345 99.8497 105.345C99.6462 105.344 99.4461 105.396 99.2694 105.495L88.1548 111.799C86.9669 112.472 86.0905 113.571 85.7094 114.866C85.3283 116.16 85.4723 117.55 86.111 118.742L86.1243 118.767C86.1974 118.902 86.2973 119.021 86.4181 119.117C86.539 119.214 86.6782 119.285 86.8277 119.328C86.9772 119.371 87.1339 119.383 87.2885 119.365C87.443 119.347 87.5924 119.299 87.7276 119.223Z" fill="#00CB4A"/>
<path d="M112.379 123.109L99.7016 115.9C99.5254 115.8 99.3256 115.748 99.1222 115.748C98.9189 115.748 98.7191 115.8 98.5429 115.9L94.5159 118.174C94.3401 118.275 94.1943 118.419 94.0929 118.592C93.9916 118.766 93.9382 118.962 93.9382 119.162C93.9382 119.362 93.9916 119.559 94.0929 119.732C94.1943 119.905 94.3401 120.05 94.5159 120.15L105.626 126.461C106.813 127.136 108.22 127.332 109.551 127.009C110.882 126.686 112.035 125.869 112.766 124.73L112.782 124.706C112.865 124.576 112.92 124.43 112.945 124.279C112.97 124.127 112.963 123.972 112.925 123.823C112.888 123.674 112.82 123.534 112.726 123.411C112.632 123.289 112.514 123.186 112.379 123.109Z" fill="#00CB4A"/>
<rect x="119" y="155" width="227" height="76" rx="38" fill="#52607B"/>
<path d="M163.829 201.606H159.674L158.595 198.127H153.29L152.187 201.606H148.126L153.572 186.195H158.407L163.829 201.606ZM154.041 195.395H157.843L155.942 189.161L154.041 195.395Z" fill="#EFF0F2"/>
<path d="M171.836 186.195C174.261 186.195 176.116 186.865 177.399 188.204C178.698 189.542 179.347 191.441 179.347 193.901C179.347 196.36 178.698 198.26 177.399 199.598C176.116 200.937 174.261 201.606 171.836 201.606H165.264V186.195H171.836ZM171.437 198.571C172.751 198.571 173.706 198.182 174.301 197.403C174.911 196.609 175.216 195.442 175.216 193.901C175.216 192.36 174.911 191.2 174.301 190.422C173.706 189.628 172.751 189.231 171.437 189.231H169.301V198.571H171.437Z" fill="#EFF0F2"/>
<path d="M188.317 186.195C190.742 186.195 192.597 186.865 193.88 188.204C195.179 189.542 195.828 191.441 195.828 193.901C195.828 196.36 195.179 198.26 193.88 199.598C192.597 200.937 190.742 201.606 188.317 201.606H181.745V186.195H188.317ZM187.918 198.571C189.232 198.571 190.187 198.182 190.781 197.403C191.392 196.609 191.697 195.442 191.697 193.901C191.697 192.36 191.392 191.2 190.781 190.422C190.187 189.628 189.232 189.231 187.918 189.231H185.782V198.571H187.918Z" fill="#EFF0F2"/>
<path d="M217.19 186.195V189.301H212.143V201.606H208.106V189.301H203.036V186.195H217.19Z" fill="#EFF0F2"/>
<path d="M225.436 185.962C227.001 185.962 228.347 186.281 229.474 186.919C230.616 187.542 231.492 188.445 232.103 189.628C232.713 190.811 233.018 192.235 233.018 193.901C233.018 195.567 232.713 196.991 232.103 198.174C231.492 199.357 230.616 200.268 229.474 200.906C228.347 201.529 227.001 201.84 225.436 201.84C223.872 201.84 222.518 201.529 221.376 200.906C220.233 200.268 219.357 199.357 218.747 198.174C218.137 196.991 217.832 195.567 217.832 193.901C217.832 192.235 218.137 190.811 218.747 189.628C219.357 188.445 220.233 187.542 221.376 186.919C222.518 186.281 223.872 185.962 225.436 185.962ZM225.436 189.114C224.685 189.114 224.052 189.293 223.535 189.651C223.019 190.009 222.628 190.546 222.362 191.262C222.096 191.963 221.963 192.842 221.963 193.901C221.963 194.944 222.096 195.823 222.362 196.539C222.628 197.255 223.019 197.793 223.535 198.151C224.052 198.509 224.685 198.688 225.436 198.688C226.188 198.688 226.814 198.509 227.314 198.151C227.831 197.793 228.222 197.255 228.488 196.539C228.754 195.823 228.887 194.944 228.887 193.901C228.887 192.842 228.754 191.963 228.488 191.262C228.222 190.546 227.831 190.009 227.314 189.651C226.814 189.293 226.188 189.114 225.436 189.114Z" fill="#EFF0F2"/>
<path d="M255.509 197.193C255.211 198.267 254.734 199.155 254.077 199.855C253.42 200.54 252.637 201.046 251.73 201.373C250.822 201.684 249.821 201.84 248.725 201.84C247.16 201.84 245.807 201.529 244.665 200.906C243.522 200.268 242.646 199.357 242.036 198.174C241.425 196.991 241.12 195.567 241.12 193.901C241.12 192.235 241.425 190.811 242.036 189.628C242.646 188.445 243.522 187.542 244.665 186.919C245.807 186.281 247.153 185.962 248.702 185.962C249.782 185.962 250.775 186.118 251.683 186.429C252.59 186.725 253.357 187.184 253.983 187.807C254.609 188.429 255.055 189.231 255.321 190.212L251.777 191.636C251.558 190.671 251.198 190.009 250.697 189.651C250.212 189.293 249.594 189.114 248.843 189.114C248.107 189.114 247.466 189.293 246.918 189.651C246.386 190.009 245.971 190.546 245.674 191.262C245.392 191.963 245.251 192.842 245.251 193.901C245.251 194.944 245.384 195.823 245.65 196.539C245.916 197.255 246.315 197.793 246.847 198.151C247.395 198.509 248.068 198.688 248.866 198.688C249.617 198.688 250.251 198.485 250.767 198.081C251.299 197.66 251.659 197.022 251.847 196.166L255.509 197.193Z" fill="#EFF0F2"/>
<path d="M275.32 186.195V201.606H271.752V194.531L271.87 189.791H271.823L267.997 201.606H264.734L260.908 189.791H260.861L260.979 194.531V201.606H257.387V186.195H263.138L265.579 194.041L266.448 197.31H266.495L267.387 194.064L269.804 186.195H275.32Z" fill="#EFF0F2"/>
<path d="M296.317 186.195V201.606H292.749V194.531L292.866 189.791H292.819L288.993 201.606H285.731L281.905 189.791H281.858L281.975 194.531V201.606H278.384V186.195H284.135L286.576 194.041L287.444 197.31H287.491L288.383 194.064L290.801 186.195H296.317Z" fill="#EFF0F2"/>
<path d="M305.436 185.962C306.876 185.962 308.144 186.188 309.239 186.639C310.35 187.075 311.312 187.721 312.126 188.577L310.178 191.169C309.505 190.468 308.777 189.947 307.995 189.605C307.228 189.246 306.352 189.067 305.366 189.067C304.787 189.067 304.318 189.13 303.958 189.254C303.598 189.379 303.34 189.55 303.183 189.768C303.027 189.986 302.948 190.235 302.948 190.515C302.948 190.842 303.097 191.122 303.394 191.356C303.707 191.574 304.208 191.76 304.897 191.916L307.502 192.5C309.051 192.858 310.186 193.379 310.905 194.064C311.625 194.749 311.985 195.66 311.985 196.796C311.985 197.886 311.703 198.812 311.14 199.575C310.577 200.322 309.802 200.89 308.816 201.279C307.831 201.653 306.704 201.84 305.436 201.84C304.404 201.84 303.418 201.731 302.479 201.513C301.54 201.279 300.695 200.953 299.944 200.532C299.193 200.112 298.559 199.629 298.043 199.085L299.991 196.399C300.382 196.851 300.859 197.255 301.423 197.614C302.002 197.956 302.628 198.228 303.3 198.431C303.989 198.633 304.685 198.734 305.389 198.734C305.937 198.734 306.391 198.68 306.751 198.571C307.126 198.462 307.4 198.298 307.572 198.081C307.745 197.863 307.831 197.606 307.831 197.31C307.831 196.983 307.713 196.711 307.478 196.493C307.244 196.259 306.798 196.065 306.141 195.909L303.277 195.279C302.401 195.076 301.618 194.812 300.93 194.485C300.257 194.142 299.725 193.691 299.334 193.13C298.942 192.554 298.747 191.838 298.747 190.982C298.747 190.017 299.013 189.161 299.545 188.414C300.077 187.651 300.844 187.052 301.845 186.616C302.847 186.18 304.044 185.962 305.436 185.962Z" fill="#EFF0F2"/>
<defs>
<filter id="filter0_dd_264_6081" x="45.9703" y="62.753" width="355.357" height="185.34" filterUnits="userSpaceOnUse" color-interpolation-filters="sRGB">
<feFlood flood-opacity="0" result="BackgroundImageFix"/>
<feColorMatrix in="SourceAlpha" type="matrix" values="0 0 0 0 0 0 0 0 0 0 0 0 0 0 0 0 0 0 127 0" result="hardAlpha"/>
<feOffset dx="3.64842" dy="3.64842"/>
<feGaussianBlur stdDeviation="10.9453"/>
<feComposite in2="hardAlpha" operator="out"/>
<feColorMatrix type="matrix" values="0 0 0 0 0.109804 0 0 0 0 0.137255 0 0 0 0 0.176471 0 0 0 0.6 0"/>
<feBlend mode="normal" in2="BackgroundImageFix" result="effect1_dropShadow_264_6081"/>
<feColorMatrix in="SourceAlpha" type="matrix" values="0 0 0 0 0 0 0 0 0 0 0 0 0 0 0 0 0 0 127 0" result="hardAlpha"/>
<feOffset dx="-3.64842" dy="-3.64842"/>
<feGaussianBlur stdDeviation="5.83748"/>
<feComposite in2="hardAlpha" operator="out"/>
<feColorMatrix type="matrix" values="0 0 0 0 0.188235 0 0 0 0 0.231373 0 0 0 0 0.309804 0 0 0 1 0"/>
<feBlend mode="normal" in2="effect1_dropShadow_264_6081" result="effect2_dropShadow_264_6081"/>
<feBlend mode="normal" in="SourceGraphic" in2="effect2_dropShadow_264_6081" result="shape"/>
</filter>
</defs>
</svg>
