<svg width="440" height="314" viewBox="0 0 440 314" fill="none" xmlns="http://www.w3.org/2000/svg">
<g clip-path="url(#clip0_264_6082)">
<rect width="440" height="314" fill="#1D222E"/>
<path opacity="0.7" d="M343.135 99.9715L351.289 70.1944L373.896 97.3438L343.135 99.9715Z" fill="#3065FB"/>
<path opacity="0.4" d="M314.082 109.572L332.452 84.7576L343.713 118.244L314.082 109.572Z" fill="#3065FB"/>
<g opacity="0.7">
<path fill-rule="evenodd" clip-rule="evenodd" d="M378.494 -72.6356C397.336 -99.1053 432.419 -112.442 489.75 -112.442V-77.2746C436.302 -77.2746 415.995 -64.6754 407.144 -52.2407C397.173 -38.2349 396.555 -18.5907 396.555 8.88653C396.555 9.67422 396.556 10.4701 396.556 11.2736C396.576 35.3554 396.601 66.3141 379.449 90.4087C360.606 116.878 325.524 130.215 268.193 130.215V95.0476C321.64 95.0476 341.947 82.4484 350.799 70.0138C360.769 56.0079 361.387 36.3637 361.387 8.88653C361.387 8.09882 361.387 7.30296 361.386 6.49943C361.367 -17.5824 361.341 -48.541 378.494 -72.6356Z" fill="#3065FB"/>
<path fill-rule="evenodd" clip-rule="evenodd" d="M67.8622 -72.6356C49.0194 -99.1053 13.9371 -112.442 -43.394 -112.442V-77.2746C10.0534 -77.2746 30.3604 -64.6754 39.2122 -52.2407C49.1825 -38.2349 49.8006 -18.5907 49.8006 8.88653C49.8006 9.67422 49.8 10.4701 49.7993 11.2736C49.7798 35.3554 49.7548 66.3141 66.9069 90.4087C85.7497 116.878 120.832 130.215 178.163 130.215V95.0476C124.716 95.0476 104.409 82.4484 95.5569 70.0138C85.5866 56.0079 84.9684 36.3637 84.9684 8.88653C84.9684 8.09882 84.9691 7.30296 84.9697 6.49943C84.9892 -17.5824 85.0143 -48.541 67.8622 -72.6356Z" fill="#3065FB"/>
<path fill-rule="evenodd" clip-rule="evenodd" d="M493.267 174.527H290.7V139.359H493.267V174.527Z" fill="#3065FB"/>
<path fill-rule="evenodd" clip-rule="evenodd" d="M-52.5376 174.527H150.029V139.359H-52.5376V174.527Z" fill="#3065FB"/>
<path fill-rule="evenodd" clip-rule="evenodd" d="M378.494 382.397C397.336 408.867 432.419 422.204 489.75 422.204V387.036C436.302 387.036 415.995 374.437 407.144 362.002C397.173 347.997 396.555 328.352 396.555 300.875C396.555 300.087 396.556 299.292 396.556 298.488C396.576 274.406 396.601 243.448 379.449 219.353C360.606 192.883 325.524 179.546 268.193 179.546V214.714C321.64 214.714 341.947 227.313 350.799 239.748C360.769 253.754 361.387 273.398 361.387 300.875C361.387 301.663 361.387 302.459 361.386 303.262C361.367 327.344 361.341 358.303 378.494 382.397Z" fill="#3065FB"/>
<path fill-rule="evenodd" clip-rule="evenodd" d="M67.8622 382.397C49.0194 408.867 13.9371 422.204 -43.394 422.204V387.036C10.0534 387.036 30.3604 374.437 39.2122 362.002C49.1825 347.997 49.8006 328.352 49.8006 300.875C49.8006 300.087 49.8 299.292 49.7993 298.488C49.7798 274.406 49.7548 243.448 66.9069 219.353C85.7497 192.883 120.832 179.546 178.163 179.546V214.714C124.716 214.714 104.409 227.313 95.5569 239.748C85.5866 253.754 84.9684 273.398 84.9684 300.875C84.9684 301.663 84.9691 302.459 84.9697 303.262C84.9892 327.344 85.0143 358.303 67.8622 382.397Z" fill="#3065FB"/>
</g>
<path opacity="0.7" d="M343.135 209.791L351.29 239.568L373.897 212.419L343.135 209.791Z" fill="#3065FB"/>
<path opacity="0.4" d="M314.083 200.191L332.452 225.005L343.713 191.518L314.083 200.191Z" fill="#3065FB"/>
<path opacity="0.7" d="M103.216 209.791L95.061 239.568L72.4543 212.419L103.216 209.791Z" fill="#3065FB"/>
<path opacity="0.4" d="M132.268 200.191L113.899 225.005L102.638 191.518L132.268 200.191Z" fill="#3065FB"/>
<path d="M380.729 157.648L406.05 139.983L406.05 175.312L380.729 157.648Z" fill="#3065FB"/>
<path opacity="0.7" d="M352.595 157.648L377.916 139.983L377.916 175.312L352.595 157.648Z" fill="#3065FB"/>
<path opacity="0.3" d="M324.461 157.648L349.782 139.983L349.782 175.312L324.461 157.648Z" fill="#3065FB"/>
<path d="M74.0664 157.648L48.7456 139.983L48.7456 175.312L74.0664 157.648Z" fill="#3065FB"/>
<path opacity="0.7" d="M102.201 157.648L76.8799 139.983L76.8799 175.312L102.201 157.648Z" fill="#3065FB"/>
<path opacity="0.3" d="M130.335 157.648L105.014 139.983L105.014 175.312L130.335 157.648Z" fill="#3065FB"/>
<path opacity="0.7" d="M103.216 99.9715L95.061 70.1944L72.4543 97.3438L103.216 99.9715Z" fill="#3065FB"/>
<path opacity="0.4" d="M132.268 109.572L113.899 84.7576L102.638 118.244L132.268 109.572Z" fill="#3065FB"/>
<g filter="url(#filter0_dd_264_6082)">
<rect x="135.721" y="72.9688" width="168" height="168" rx="53.9383" fill="#2A3245"/>
</g>
<path d="M230.174 106.148L230.121 159.943C230.12 160.69 230.319 161.425 230.7 162.073C231.08 162.721 231.628 163.259 232.288 163.634L247.36 172.183C248.023 172.557 248.774 172.755 249.539 172.755C250.303 172.756 251.055 172.56 251.718 172.187C252.381 171.814 252.932 171.276 253.317 170.629C253.701 169.982 253.905 169.247 253.908 168.498L253.933 121.361C253.938 116.32 251.948 111.474 248.38 107.839C244.813 104.205 239.945 102.067 234.801 101.873H234.695C234.109 101.853 233.525 101.948 232.977 102.154C232.429 102.359 231.929 102.671 231.507 103.07C231.085 103.469 230.75 103.947 230.521 104.476C230.292 105.005 230.174 105.573 230.174 106.148Z" fill="#00CB4A"/>
<path d="M171.158 177.306L218.763 150.439C219.425 150.066 219.976 149.53 220.359 148.883C220.742 148.236 220.944 147.501 220.945 146.754L220.983 129.696C220.981 128.949 220.778 128.215 220.396 127.568C220.014 126.921 219.465 126.383 218.804 126.009C218.144 125.634 217.394 125.436 216.631 125.434C215.867 125.431 215.117 125.625 214.454 125.996L172.761 149.556C168.305 152.072 165.017 156.181 163.588 161.019C162.158 165.858 162.698 171.05 165.094 175.508L165.144 175.599C165.418 176.104 165.793 176.55 166.246 176.91C166.699 177.27 167.222 177.538 167.783 177.697C168.344 177.856 168.931 177.904 169.511 177.836C170.091 177.769 170.651 177.589 171.158 177.306Z" fill="#00CB4A"/>
<path d="M263.63 191.829L216.075 164.886C215.415 164.512 214.665 164.316 213.902 164.316C213.139 164.316 212.39 164.512 211.729 164.886L196.623 173.386C195.963 173.762 195.416 174.301 195.036 174.949C194.656 175.597 194.456 176.331 194.456 177.078C194.456 177.826 194.656 178.56 195.036 179.208C195.416 179.856 195.963 180.395 196.623 180.771L238.3 204.359C242.753 206.879 248.029 207.613 253.023 206.406C258.016 205.2 262.338 202.146 265.083 197.887L265.142 197.798C265.453 197.312 265.661 196.769 265.753 196.202C265.846 195.636 265.821 195.056 265.68 194.499C265.538 193.942 265.284 193.419 264.932 192.96C264.58 192.501 264.137 192.117 263.63 191.829Z" fill="#00CB4A"/>
</g>
<defs>
<filter id="filter0_dd_264_6082" x="117.479" y="54.7266" width="211.781" height="211.781" filterUnits="userSpaceOnUse" color-interpolation-filters="sRGB">
<feFlood flood-opacity="0" result="BackgroundImageFix"/>
<feColorMatrix in="SourceAlpha" type="matrix" values="0 0 0 0 0 0 0 0 0 0 0 0 0 0 0 0 0 0 127 0" result="hardAlpha"/>
<feOffset dx="3.64842" dy="3.64842"/>
<feGaussianBlur stdDeviation="10.9453"/>
<feComposite in2="hardAlpha" operator="out"/>
<feColorMatrix type="matrix" values="0 0 0 0 0.109804 0 0 0 0 0.137255 0 0 0 0 0.176471 0 0 0 0.6 0"/>
<feBlend mode="normal" in2="BackgroundImageFix" result="effect1_dropShadow_264_6082"/>
<feColorMatrix in="SourceAlpha" type="matrix" values="0 0 0 0 0 0 0 0 0 0 0 0 0 0 0 0 0 0 127 0" result="hardAlpha"/>
<feOffset dx="-3.64842" dy="-3.64842"/>
<feGaussianBlur stdDeviation="5.83748"/>
<feComposite in2="hardAlpha" operator="out"/>
<feColorMatrix type="matrix" values="0 0 0 0 0.188235 0 0 0 0 0.231373 0 0 0 0 0.309804 0 0 0 1 0"/>
<feBlend mode="normal" in2="effect1_dropShadow_264_6082" result="effect2_dropShadow_264_6082"/>
<feBlend mode="normal" in="SourceGraphic" in2="effect2_dropShadow_264_6082" result="shape"/>
</filter>
<clipPath id="clip0_264_6082">
<rect width="440" height="314" fill="white"/>
</clipPath>
</defs>
</svg>
