<svg width="440" height="314" viewBox="0 0 440 314" fill="none" xmlns="http://www.w3.org/2000/svg">
<rect width="440" height="314" fill="#1D222E"/>
<g filter="url(#filter0_dd_264_6077)">
<rect x="64.2124" y="80.9951" width="311.575" height="141.559" rx="11.675" fill="#2A3245"/>
</g>
<path d="M80.2654 158.659C80.2654 150.599 86.7992 144.066 94.859 144.066H339.303C342.527 144.066 345.141 146.679 345.141 149.903V150.633C345.141 158.693 338.607 165.227 330.547 165.227H86.1028C82.8789 165.227 80.2654 162.613 80.2654 159.389V158.659Z" fill="#52607B"/>
<path d="M80.2654 188.577C80.2654 180.517 86.7992 173.983 94.859 173.983H261.227C264.451 173.983 267.065 176.596 267.065 179.82V180.55C267.065 188.61 260.531 195.144 252.471 195.144H86.1028C82.8789 195.144 80.2654 192.53 80.2654 189.306V188.577Z" fill="#52607B"/>
<g filter="url(#filter1_d_264_6077)">
<rect x="258.309" y="68.5908" width="85.0249" height="44.675" rx="22.3375" fill="#FAC02E" shape-rendering="crispEdges"/>
<path d="M289.971 97.4282H286.354L285.414 94.3834H280.795L279.835 97.4282H276.3L281.041 83.9412H285.25L289.971 97.4282ZM281.449 91.9925H284.76L283.104 86.5364L281.449 91.9925ZM294.581 82.8786V93.9543C294.581 94.4039 294.656 94.724 294.806 94.9147C294.956 95.1055 295.208 95.2008 295.562 95.2008C295.766 95.2008 295.937 95.1872 296.073 95.16C296.209 95.1327 296.372 95.0918 296.563 95.0373L296.338 97.1217C296.093 97.2716 295.773 97.3942 295.378 97.4895C294.983 97.5849 294.595 97.6326 294.213 97.6326C293.123 97.6326 292.333 97.3805 291.843 96.8765C291.352 96.3724 291.107 95.5482 291.107 94.4039V82.8786H294.581ZM302.673 97.6326C301.543 97.6326 300.562 97.4214 299.731 96.9991C298.913 96.5768 298.28 95.9705 297.83 95.1804C297.381 94.3902 297.156 93.4366 297.156 92.3195C297.156 91.2024 297.381 90.2488 297.83 89.4586C298.28 88.6685 298.907 88.0622 299.71 87.6399C300.528 87.2176 301.461 87.0064 302.51 87.0064C303.586 87.0064 304.499 87.2176 305.248 87.6399C306.011 88.0486 306.59 88.6208 306.985 89.3564C307.38 90.0785 307.578 90.9095 307.578 91.8495C307.578 92.0947 307.571 92.3399 307.557 92.5852C307.544 92.8304 307.523 93.0347 307.496 93.1982H299.404V91.3386H305.963L304.308 91.9721C304.308 91.1547 304.158 90.528 303.859 90.0921C303.572 89.6562 303.123 89.4382 302.51 89.4382C302.074 89.4382 301.699 89.5404 301.386 89.7447C301.086 89.9491 300.855 90.2692 300.691 90.7051C300.541 91.1411 300.466 91.6996 300.466 92.3808C300.466 93.0483 300.555 93.5933 300.732 94.0156C300.909 94.4243 301.161 94.724 301.488 94.9147C301.815 95.0918 302.21 95.1804 302.673 95.1804C303.191 95.1804 303.6 95.0782 303.899 94.8739C304.213 94.6695 304.444 94.3834 304.594 94.0156L307.373 94.9352C307.183 95.521 306.849 96.0182 306.372 96.4269C305.909 96.822 305.35 97.1217 304.696 97.326C304.056 97.5304 303.382 97.6326 302.673 97.6326ZM309.375 97.4282V87.2108H312.44L312.583 89.4178C312.842 88.6548 313.224 88.0622 313.728 87.6399C314.245 87.2176 314.899 87.0064 315.69 87.0064C315.948 87.0064 316.166 87.0269 316.343 87.0677C316.534 87.1086 316.684 87.1631 316.793 87.2312L316.446 90.0921C316.309 90.0376 316.132 89.9967 315.914 89.9695C315.71 89.9286 315.458 89.9082 315.158 89.9082C314.75 89.9082 314.368 89.9967 314.014 90.1738C313.66 90.3509 313.374 90.6166 313.156 90.9708C312.951 91.3114 312.849 91.7473 312.849 92.2786V97.4282H309.375ZM322.021 83.9616V93.7908C322.021 94.2813 322.137 94.6355 322.369 94.8534C322.614 95.0578 322.948 95.16 323.37 95.16C323.697 95.16 323.976 95.1259 324.208 95.0578C324.453 94.976 324.671 94.8602 324.862 94.7104L325.23 96.856C324.889 97.1013 324.46 97.292 323.942 97.4282C323.424 97.5645 322.893 97.6326 322.348 97.6326C321.572 97.6326 320.897 97.5236 320.325 97.3056C319.767 97.0876 319.331 96.7402 319.017 96.2634C318.718 95.7866 318.561 95.1531 318.547 94.363V84.9221L322.021 83.9616ZM325.066 87.2108V89.6834H316.79V87.2108H325.066Z" fill="black"/>
</g>
<path d="M103.46 100.185L103.446 114.578C103.446 114.778 103.499 114.974 103.6 115.148C103.702 115.321 103.848 115.465 104.024 115.565L108.042 117.853C108.218 117.953 108.419 118.006 108.622 118.006C108.826 118.006 109.027 117.954 109.203 117.854C109.38 117.754 109.527 117.61 109.63 117.437C109.732 117.264 109.786 117.067 109.787 116.867L109.794 104.255C109.795 102.907 109.265 101.61 108.314 100.637C107.363 99.6652 106.065 99.093 104.694 99.0413H104.665C104.509 99.0358 104.353 99.0613 104.207 99.1163C104.061 99.1713 103.928 99.2547 103.816 99.3614C103.703 99.4682 103.614 99.5961 103.553 99.7376C103.492 99.8791 103.46 100.031 103.46 100.185Z" fill="#00CB4A"/>
<path d="M87.7276 119.223L100.418 112.035C100.595 111.935 100.741 111.792 100.843 111.619C100.946 111.445 101 111.249 101 111.049L101.01 106.485C101.009 106.285 100.955 106.089 100.853 105.916C100.752 105.743 100.605 105.599 100.429 105.499C100.253 105.398 100.053 105.345 99.8497 105.345C99.6462 105.344 99.4461 105.396 99.2693 105.495L88.1548 111.799C86.9669 112.472 86.0904 113.571 85.7093 114.866C85.3283 116.16 85.4722 117.55 86.1109 118.742L86.1242 118.767C86.1973 118.902 86.2972 119.021 86.4181 119.117C86.5389 119.214 86.6782 119.285 86.8277 119.328C86.9772 119.371 87.1338 119.383 87.2884 119.365C87.443 119.347 87.5923 119.299 87.7276 119.223Z" fill="#00CB4A"/>
<path d="M112.379 123.109L99.7015 115.9C99.5253 115.8 99.3255 115.748 99.1221 115.748C98.9187 115.748 98.7189 115.8 98.5428 115.9L94.5157 118.174C94.34 118.275 94.1941 118.419 94.0928 118.592C93.9914 118.766 93.9381 118.962 93.9381 119.162C93.9381 119.362 93.9914 119.559 94.0928 119.732C94.1941 119.905 94.34 120.05 94.5157 120.15L105.626 126.461C106.813 127.136 108.22 127.332 109.551 127.009C110.882 126.686 112.034 125.869 112.766 124.73L112.782 124.706C112.865 124.576 112.92 124.43 112.945 124.279C112.969 124.127 112.963 123.972 112.925 123.823C112.887 123.674 112.82 123.534 112.726 123.411C112.632 123.289 112.514 123.186 112.379 123.109Z" fill="#00CB4A"/>
<defs>
<filter id="filter0_dd_264_6077" x="45.9703" y="62.753" width="355.357" height="185.34" filterUnits="userSpaceOnUse" color-interpolation-filters="sRGB">
<feFlood flood-opacity="0" result="BackgroundImageFix"/>
<feColorMatrix in="SourceAlpha" type="matrix" values="0 0 0 0 0 0 0 0 0 0 0 0 0 0 0 0 0 0 127 0" result="hardAlpha"/>
<feOffset dx="3.64842" dy="3.64842"/>
<feGaussianBlur stdDeviation="10.9453"/>
<feComposite in2="hardAlpha" operator="out"/>
<feColorMatrix type="matrix" values="0 0 0 0 0.109804 0 0 0 0 0.137255 0 0 0 0 0.176471 0 0 0 0.6 0"/>
<feBlend mode="normal" in2="BackgroundImageFix" result="effect1_dropShadow_264_6077"/>
<feColorMatrix in="SourceAlpha" type="matrix" values="0 0 0 0 0 0 0 0 0 0 0 0 0 0 0 0 0 0 127 0" result="hardAlpha"/>
<feOffset dx="-3.64842" dy="-3.64842"/>
<feGaussianBlur stdDeviation="5.83748"/>
<feComposite in2="hardAlpha" operator="out"/>
<feColorMatrix type="matrix" values="0 0 0 0 0.188235 0 0 0 0 0.231373 0 0 0 0 0.309804 0 0 0 1 0"/>
<feBlend mode="normal" in2="effect1_dropShadow_264_6077" result="effect2_dropShadow_264_6077"/>
<feBlend mode="normal" in="SourceGraphic" in2="effect2_dropShadow_264_6077" result="shape"/>
</filter>
<filter id="filter1_d_264_6077" x="240.066" y="50.3487" width="128.806" height="88.4561" filterUnits="userSpaceOnUse" color-interpolation-filters="sRGB">
<feFlood flood-opacity="0" result="BackgroundImageFix"/>
<feColorMatrix in="SourceAlpha" type="matrix" values="0 0 0 0 0 0 0 0 0 0 0 0 0 0 0 0 0 0 127 0" result="hardAlpha"/>
<feOffset dx="3.64842" dy="3.64842"/>
<feGaussianBlur stdDeviation="10.9453"/>
<feComposite in2="hardAlpha" operator="out"/>
<feColorMatrix type="matrix" values="0 0 0 0 0.109804 0 0 0 0 0.137255 0 0 0 0 0.176471 0 0 0 0.6 0"/>
<feBlend mode="normal" in2="BackgroundImageFix" result="effect1_dropShadow_264_6077"/>
<feBlend mode="normal" in="SourceGraphic" in2="effect1_dropShadow_264_6077" result="shape"/>
</filter>
</defs>
</svg>
