<svg width="440" height="314" viewBox="0 0 440 314" fill="none" xmlns="http://www.w3.org/2000/svg">
<g clip-path="url(#clip0_264_6079)">
<rect width="440" height="314" fill="#1D222E"/>
<g filter="url(#filter0_dd_264_6079)">
<rect x="64.2124" y="64.2119" width="311.575" height="317.413" rx="11.675" fill="#2A3245"/>
</g>
<rect x="70.0498" y="101.426" width="297.711" height="323.98" fill="#1D222E"/>
<g filter="url(#filter1_d_264_6079)">
<rect x="86.8325" y="180.962" width="267.794" height="272.172" rx="11.675" fill="#2A3245"/>
</g>
<path d="M133.12 369.221C125.061 369.221 118.527 362.687 118.527 354.627L118.527 229.121C118.527 225.897 121.14 223.284 124.364 223.284H125.094C133.154 223.284 139.688 229.818 139.688 237.878L139.688 363.383C139.688 366.607 137.074 369.221 133.85 369.221H133.12Z" fill="#3065FB"/>
<path d="M163.038 369.221C154.978 369.221 148.444 362.687 148.444 354.627L148.444 272.173C148.444 268.949 151.057 266.335 154.281 266.335H155.011C163.071 266.335 169.605 272.869 169.605 280.929L169.605 363.383C169.605 366.607 166.991 369.221 163.767 369.221H163.038Z" fill="#374E86"/>
<path d="M192.955 369.221C184.895 369.221 178.361 362.687 178.361 354.627L178.361 245.174C178.361 241.95 180.974 239.337 184.198 239.337H184.928C192.988 239.337 199.522 245.871 199.522 253.931L199.522 363.383C199.522 366.607 196.908 369.221 193.684 369.221H192.955Z" fill="#3065FB"/>
<path d="M222.872 369.221C214.812 369.221 208.278 362.687 208.278 354.627L208.278 256.12C208.278 252.896 210.892 250.282 214.115 250.282H214.845C222.905 250.282 229.439 256.816 229.439 264.876L229.439 363.383C229.439 366.607 226.825 369.221 223.601 369.221H222.872Z" fill="#374E86"/>
<path d="M252.789 369.221C244.729 369.221 238.195 362.687 238.195 354.627L238.195 245.174C238.195 241.95 240.809 239.337 244.033 239.337H244.762C252.822 239.337 259.356 245.871 259.356 253.931L259.356 363.383C259.356 366.607 256.742 369.221 253.519 369.221H252.789Z" fill="#3065FB"/>
<path d="M282.706 369.221C274.646 369.221 268.112 362.687 268.112 354.627L268.112 222.554C268.112 219.33 270.726 216.717 273.95 216.717H274.679C282.739 216.717 289.273 223.25 289.273 231.31L289.273 363.383C289.273 366.607 286.66 369.221 283.436 369.221H282.706Z" fill="#374E86"/>
<path d="M312.623 369.221C304.563 369.221 298.029 362.687 298.029 354.627L298.029 210.149C298.029 206.926 300.643 204.312 303.867 204.312L304.596 204.312C312.656 204.312 319.19 210.846 319.19 218.906L319.19 363.383C319.19 366.607 316.577 369.221 313.353 369.221H312.623Z" fill="#3065FB"/>
<rect x="70.0498" y="101.426" width="297.711" height="56.9154" fill="#52607B"/>
<circle cx="194.096" cy="81.725" r="5.10779" fill="#1D222E"/>
<rect x="209.419" y="76.6172" width="39.403" height="10.2156" rx="5.10779" fill="#1D222E"/>
<path d="M104.92 116.968L104.906 131.361C104.905 131.561 104.958 131.758 105.06 131.931C105.161 132.104 105.307 132.248 105.483 132.349L109.501 134.636C109.678 134.736 109.878 134.789 110.082 134.789C110.286 134.789 110.486 134.737 110.663 134.637C110.84 134.537 110.987 134.393 111.089 134.22C111.192 134.047 111.246 133.85 111.247 133.65L111.253 121.038C111.255 119.69 110.724 118.393 109.773 117.421C108.822 116.448 107.525 115.876 106.153 115.824H106.125C105.969 115.819 105.813 115.844 105.667 115.9C105.521 115.955 105.388 116.038 105.275 116.145C105.163 116.251 105.073 116.379 105.012 116.521C104.951 116.662 104.92 116.814 104.92 116.968Z" fill="#00CB4A"/>
<path d="M89.187 136.006L101.877 128.818C102.054 128.718 102.201 128.575 102.303 128.402C102.405 128.229 102.459 128.032 102.459 127.832L102.469 123.268C102.469 123.068 102.415 122.872 102.313 122.699C102.211 122.526 102.065 122.382 101.889 122.282C101.712 122.182 101.513 122.129 101.309 122.128C101.106 122.127 100.906 122.179 100.729 122.278L89.6142 128.582C88.4263 129.255 87.5499 130.354 87.1688 131.649C86.7877 132.943 86.9317 134.333 87.5704 135.525L87.5837 135.55C87.6568 135.685 87.7567 135.804 87.8775 135.901C87.9984 135.997 88.1376 136.069 88.2871 136.111C88.4366 136.154 88.5933 136.166 88.7479 136.148C88.9024 136.13 89.0518 136.082 89.187 136.006Z" fill="#00CB4A"/>
<path d="M113.838 139.892L101.161 132.683C100.985 132.583 100.785 132.531 100.582 132.531C100.378 132.531 100.178 132.583 100.002 132.683L95.9752 134.957C95.7995 135.058 95.6536 135.202 95.5523 135.376C95.4509 135.549 95.3976 135.745 95.3976 135.945C95.3976 136.145 95.4509 136.342 95.5523 136.515C95.6536 136.689 95.7995 136.833 95.9752 136.933L107.086 143.244C108.273 143.919 109.679 144.115 111.01 143.792C112.342 143.469 113.494 142.652 114.225 141.513L114.241 141.489C114.324 141.359 114.38 141.214 114.404 141.062C114.429 140.91 114.422 140.755 114.385 140.606C114.347 140.457 114.279 140.317 114.185 140.195C114.091 140.072 113.973 139.969 113.838 139.892Z" fill="#00CB4A"/>
</g>
<defs>
<filter id="filter0_dd_264_6079" x="45.9703" y="45.9698" width="355.357" height="361.194" filterUnits="userSpaceOnUse" color-interpolation-filters="sRGB">
<feFlood flood-opacity="0" result="BackgroundImageFix"/>
<feColorMatrix in="SourceAlpha" type="matrix" values="0 0 0 0 0 0 0 0 0 0 0 0 0 0 0 0 0 0 127 0" result="hardAlpha"/>
<feOffset dx="3.64842" dy="3.64842"/>
<feGaussianBlur stdDeviation="10.9453"/>
<feComposite in2="hardAlpha" operator="out"/>
<feColorMatrix type="matrix" values="0 0 0 0 0.109804 0 0 0 0 0.137255 0 0 0 0 0.176471 0 0 0 0.6 0"/>
<feBlend mode="normal" in2="BackgroundImageFix" result="effect1_dropShadow_264_6079"/>
<feColorMatrix in="SourceAlpha" type="matrix" values="0 0 0 0 0 0 0 0 0 0 0 0 0 0 0 0 0 0 127 0" result="hardAlpha"/>
<feOffset dx="-3.64842" dy="-3.64842"/>
<feGaussianBlur stdDeviation="5.83748"/>
<feComposite in2="hardAlpha" operator="out"/>
<feColorMatrix type="matrix" values="0 0 0 0 0.188235 0 0 0 0 0.231373 0 0 0 0 0.309804 0 0 0 1 0"/>
<feBlend mode="normal" in2="effect1_dropShadow_264_6079" result="effect2_dropShadow_264_6079"/>
<feBlend mode="normal" in="SourceGraphic" in2="effect2_dropShadow_264_6079" result="shape"/>
</filter>
<filter id="filter1_d_264_6079" x="68.5904" y="162.72" width="311.575" height="315.953" filterUnits="userSpaceOnUse" color-interpolation-filters="sRGB">
<feFlood flood-opacity="0" result="BackgroundImageFix"/>
<feColorMatrix in="SourceAlpha" type="matrix" values="0 0 0 0 0 0 0 0 0 0 0 0 0 0 0 0 0 0 127 0" result="hardAlpha"/>
<feOffset dx="3.64842" dy="3.64842"/>
<feGaussianBlur stdDeviation="10.9453"/>
<feComposite in2="hardAlpha" operator="out"/>
<feColorMatrix type="matrix" values="0 0 0 0 0.109804 0 0 0 0 0.137255 0 0 0 0 0.176471 0 0 0 0.6 0"/>
<feBlend mode="normal" in2="BackgroundImageFix" result="effect1_dropShadow_264_6079"/>
<feBlend mode="normal" in="SourceGraphic" in2="effect1_dropShadow_264_6079" result="shape"/>
</filter>
<clipPath id="clip0_264_6079">
<rect width="440" height="314" fill="white"/>
</clipPath>
</defs>
</svg>
