<svg width="440" height="314" viewBox="0 0 440 314" fill="none" xmlns="http://www.w3.org/2000/svg">
<g clip-path="url(#clip0_264_6078)">
<rect width="440" height="314" fill="#1D222E"/>
<g filter="url(#filter0_dd_264_6078)">
<rect x="64.2124" y="64.2119" width="385.274" height="317.413" rx="11.675" fill="#2A3245"/>
</g>
<rect x="70.0498" y="101.426" width="369.95" height="323.98" fill="#1D222E"/>
<path d="M150.315 202.852C150.315 194.793 156.849 188.259 164.909 188.259H486.7C489.924 188.259 492.537 190.872 492.537 194.096V194.826C492.537 202.886 486.003 209.42 477.943 209.42H156.152C152.928 209.42 150.315 206.806 150.315 203.582V202.852Z" fill="#52607B"/>
<path d="M150.315 278.01C150.315 269.95 156.849 263.416 164.909 263.416H486.7C489.924 263.416 492.537 266.03 492.537 269.253V269.983C492.537 278.043 486.003 284.577 477.943 284.577H156.152C152.928 284.577 150.315 281.963 150.315 278.739V278.01Z" fill="#52607B"/>
<path d="M188.988 232.769C188.988 224.71 195.522 218.176 203.582 218.176H496.186C499.41 218.176 502.023 220.789 502.023 224.013V224.743C502.023 232.803 495.489 239.337 487.429 239.337H194.826C191.602 239.337 188.988 236.723 188.988 233.499V232.769Z" fill="#52607B"/>
<path d="M237.147 307.927C237.147 299.867 243.681 293.333 251.741 293.333H472.836C476.06 293.333 478.673 295.947 478.673 299.17V299.9C478.673 307.96 472.139 314.494 464.079 314.494H242.985C239.761 314.494 237.147 311.88 237.147 308.656V307.927Z" fill="#52607B"/>
<circle cx="84.2786" cy="82.8191" r="8.39138" fill="#52607B"/>
<circle cx="108.358" cy="82.8191" r="8.39138" fill="#52607B"/>
<circle cx="132.438" cy="82.8191" r="8.39138" fill="#52607B"/>
<path d="M111.7 149.592V144.758L126.761 136.702V141.536L116.359 147.035V147.315L126.761 152.814V157.647L111.7 149.592Z" fill="#1FCA51"/>
<path d="M144.595 157.858L143.054 151.973H136.365L134.859 157.858H129.535L136.154 133.41H143.58L150.199 157.858H144.595ZM139.867 138.489H139.587L137.205 147.735H142.249L139.867 138.489Z" fill="#1FCA51"/>
<path d="M152.658 157.858V133.41H162.115C163.305 133.41 164.368 133.597 165.302 133.971C166.236 134.321 167.018 134.835 167.649 135.512C168.302 136.189 168.793 137.006 169.12 137.963C169.446 138.921 169.61 139.995 169.61 141.186C169.61 142.377 169.446 143.451 169.12 144.408C168.793 145.365 168.302 146.183 167.649 146.86C167.018 147.537 166.236 148.062 165.302 148.436C164.368 148.786 163.305 148.961 162.115 148.961H157.947V157.858H152.658ZM157.947 144.723H160.784C162.021 144.723 162.873 144.49 163.34 144.023C163.831 143.556 164.076 142.785 164.076 141.711V140.66C164.076 139.586 163.831 138.816 163.34 138.349C162.873 137.882 162.021 137.648 160.784 137.648H157.947V144.723Z" fill="#1FCA51"/>
<path d="M173.259 157.858V153.97H178.513V137.298H173.259V133.41H189.02V137.298H183.767V153.97H189.02V157.858H173.259Z" fill="#1FCA51"/>
<path d="M194.246 152.814L204.648 147.315V147.035L194.246 141.536V136.702L209.307 144.758V149.592L194.246 157.647V152.814Z" fill="#1FCA51"/>
<path d="M214.007 164.582V160.344H230.819V164.582H214.007Z" fill="#1FCA51"/>
</g>
<defs>
<filter id="filter0_dd_264_6078" x="45.9703" y="45.9698" width="429.055" height="361.194" filterUnits="userSpaceOnUse" color-interpolation-filters="sRGB">
<feFlood flood-opacity="0" result="BackgroundImageFix"/>
<feColorMatrix in="SourceAlpha" type="matrix" values="0 0 0 0 0 0 0 0 0 0 0 0 0 0 0 0 0 0 127 0" result="hardAlpha"/>
<feOffset dx="3.64842" dy="3.64842"/>
<feGaussianBlur stdDeviation="10.9453"/>
<feComposite in2="hardAlpha" operator="out"/>
<feColorMatrix type="matrix" values="0 0 0 0 0.109804 0 0 0 0 0.137255 0 0 0 0 0.176471 0 0 0 0.6 0"/>
<feBlend mode="normal" in2="BackgroundImageFix" result="effect1_dropShadow_264_6078"/>
<feColorMatrix in="SourceAlpha" type="matrix" values="0 0 0 0 0 0 0 0 0 0 0 0 0 0 0 0 0 0 127 0" result="hardAlpha"/>
<feOffset dx="-3.64842" dy="-3.64842"/>
<feGaussianBlur stdDeviation="5.83748"/>
<feComposite in2="hardAlpha" operator="out"/>
<feColorMatrix type="matrix" values="0 0 0 0 0.188235 0 0 0 0 0.231373 0 0 0 0 0.309804 0 0 0 1 0"/>
<feBlend mode="normal" in2="effect1_dropShadow_264_6078" result="effect2_dropShadow_264_6078"/>
<feBlend mode="normal" in="SourceGraphic" in2="effect2_dropShadow_264_6078" result="shape"/>
</filter>
<clipPath id="clip0_264_6078">
<rect width="440" height="314" fill="white"/>
</clipPath>
</defs>
</svg>
