<svg width="388" height="166" viewBox="0 0 388 166" fill="none" xmlns="http://www.w3.org/2000/svg">
<path d="M0 8C0 3.58173 3.58172 0 8 0H10V166H8C3.58172 166 0 162.418 0 158V8Z" fill="#FAC02E"/>
<path d="M10 0H380C384.418 0 388 3.58172 388 8V158C388 162.418 384.418 166 380 166H10V0Z" fill="#2A3245"/>
<path d="M32.5762 36.18C31.5202 36.18 30.5782 35.946 29.7502 35.478C28.9342 35.01 28.2982 34.32 27.8422 33.408C27.3862 32.496 27.1582 31.386 27.1582 30.078C27.1582 28.794 27.3982 27.696 27.8782 26.784C28.3582 25.872 29.0422 25.17 29.9302 24.678C30.8302 24.186 31.8862 23.94 33.0982 23.94C34.4422 23.94 35.5282 24.186 36.3562 24.678C37.1842 25.158 37.8262 25.926 38.2822 26.982L35.4202 28.116C35.2642 27.504 34.9882 27.06 34.5922 26.784C34.1962 26.508 33.7042 26.37 33.1162 26.37C32.5282 26.37 32.0242 26.514 31.6042 26.802C31.1842 27.078 30.8662 27.492 30.6502 28.044C30.4342 28.584 30.3262 29.256 30.3262 30.06C30.3262 30.9 30.4342 31.602 30.6502 32.166C30.8782 32.73 31.2082 33.15 31.6402 33.426C32.0842 33.69 32.6302 33.822 33.2782 33.822C33.6262 33.822 33.9442 33.78 34.2322 33.696C34.5202 33.612 34.7722 33.492 34.9882 33.336C35.2042 33.168 35.3722 32.964 35.4922 32.724C35.6122 32.472 35.6722 32.178 35.6722 31.842V31.662H32.9542V29.592H38.3002V36H36.1942L35.9602 33.21L36.4642 33.642C36.2122 34.458 35.7562 35.088 35.0962 35.532C34.4482 35.964 33.6082 36.18 32.5762 36.18ZM44.7461 36.18C43.7501 36.18 42.8861 35.994 42.1541 35.622C41.4341 35.25 40.8761 34.716 40.4801 34.02C40.0841 33.324 39.8861 32.484 39.8861 31.5C39.8861 30.516 40.0841 29.676 40.4801 28.98C40.8761 28.284 41.4281 27.75 42.1361 27.378C42.8561 27.006 43.6781 26.82 44.6021 26.82C45.5501 26.82 46.3541 27.006 47.0141 27.378C47.6861 27.738 48.1961 28.242 48.5441 28.89C48.8921 29.526 49.0661 30.258 49.0661 31.086C49.0661 31.302 49.0601 31.518 49.0481 31.734C49.0361 31.95 49.0181 32.13 48.9941 32.274H41.8661V30.636H47.6441L46.1861 31.194C46.1861 30.474 46.0541 29.922 45.7901 29.538C45.5381 29.154 45.1421 28.962 44.6021 28.962C44.2181 28.962 43.8881 29.052 43.6121 29.232C43.3481 29.412 43.1441 29.694 43.0001 30.078C42.8681 30.462 42.8021 30.954 42.8021 31.554C42.8021 32.142 42.8801 32.622 43.0361 32.994C43.1921 33.354 43.4141 33.618 43.7021 33.786C43.9901 33.942 44.3381 34.02 44.7461 34.02C45.2021 34.02 45.5621 33.93 45.8261 33.75C46.1021 33.57 46.3061 33.318 46.4381 32.994L48.8861 33.804C48.7181 34.32 48.4241 34.758 48.0041 35.118C47.5961 35.466 47.1041 35.73 46.5281 35.91C45.9641 36.09 45.3701 36.18 44.7461 36.18ZM50.6779 36V27H53.4139L53.5759 30.096L53.2339 29.754C53.3539 29.106 53.5639 28.566 53.8639 28.134C54.1759 27.702 54.5599 27.378 55.0159 27.162C55.4839 26.934 56.0059 26.82 56.5819 26.82C57.2059 26.82 57.7459 26.94 58.2019 27.18C58.6699 27.42 59.0359 27.774 59.2999 28.242C59.5639 28.71 59.6959 29.298 59.6959 30.006V36H56.6359V30.816C56.6359 30.192 56.5159 29.76 56.2759 29.52C56.0359 29.28 55.7299 29.16 55.3579 29.16C55.0699 29.16 54.7999 29.232 54.5479 29.376C54.2959 29.508 54.0979 29.724 53.9539 30.024C53.8099 30.324 53.7379 30.726 53.7379 31.23V36H50.6779ZM66.132 36.18C65.136 36.18 64.272 35.994 63.54 35.622C62.82 35.25 62.262 34.716 61.866 34.02C61.47 33.324 61.272 32.484 61.272 31.5C61.272 30.516 61.47 29.676 61.866 28.98C62.262 28.284 62.814 27.75 63.522 27.378C64.242 27.006 65.064 26.82 65.988 26.82C66.936 26.82 67.74 27.006 68.4 27.378C69.072 27.738 69.582 28.242 69.93 28.89C70.278 29.526 70.452 30.258 70.452 31.086C70.452 31.302 70.446 31.518 70.434 31.734C70.422 31.95 70.404 32.13 70.38 32.274H63.252V30.636H69.03L67.572 31.194C67.572 30.474 67.44 29.922 67.176 29.538C66.924 29.154 66.528 28.962 65.988 28.962C65.604 28.962 65.274 29.052 64.998 29.232C64.734 29.412 64.53 29.694 64.386 30.078C64.254 30.462 64.188 30.954 64.188 31.554C64.188 32.142 64.266 32.622 64.422 32.994C64.578 33.354 64.8 33.618 65.088 33.786C65.376 33.942 65.724 34.02 66.132 34.02C66.588 34.02 66.948 33.93 67.212 33.75C67.488 33.57 67.692 33.318 67.824 32.994L70.272 33.804C70.104 34.32 69.81 34.758 69.39 35.118C68.982 35.466 68.49 35.73 67.914 35.91C67.35 36.09 66.756 36.18 66.132 36.18ZM72.0638 36V27H74.7638L74.8898 28.944C75.1178 28.272 75.4538 27.75 75.8978 27.378C76.3538 27.006 76.9298 26.82 77.6258 26.82C77.8538 26.82 78.0458 26.838 78.2018 26.874C78.3698 26.91 78.5018 26.958 78.5978 27.018L78.2918 29.538C78.1718 29.49 78.0158 29.454 77.8238 29.43C77.6438 29.394 77.4218 29.376 77.1578 29.376C76.7978 29.376 76.4618 29.454 76.1498 29.61C75.8378 29.766 75.5858 30 75.3938 30.312C75.2138 30.612 75.1238 30.996 75.1238 31.464V36H72.0638ZM84.6323 30.294C84.6323 29.874 84.5123 29.544 84.2723 29.304C84.0443 29.052 83.7323 28.926 83.3363 28.926C82.9403 28.926 82.5983 29.028 82.3103 29.232C82.0343 29.424 81.8423 29.772 81.7343 30.276L79.1423 29.664C79.3103 28.8 79.7543 28.11 80.4743 27.594C81.1943 27.078 82.2083 26.82 83.5163 26.82C84.3923 26.82 85.1363 26.952 85.7483 27.216C86.3723 27.468 86.8463 27.852 87.1703 28.368C87.5063 28.872 87.6743 29.496 87.6743 30.24V33.534C87.6743 34.002 87.8843 34.236 88.3043 34.236C88.5203 34.236 88.6943 34.212 88.8263 34.164L88.6463 35.91C88.2863 36.078 87.8483 36.162 87.3323 36.162C86.8643 36.162 86.4503 36.09 86.0903 35.946C85.7303 35.79 85.4483 35.562 85.2443 35.262C85.0403 34.95 84.9383 34.56 84.9383 34.092V33.984L85.2803 33.858C85.2803 34.374 85.1243 34.806 84.8123 35.154C84.5123 35.502 84.1163 35.76 83.6243 35.928C83.1443 36.096 82.6403 36.18 82.1123 36.18C81.5003 36.18 80.9663 36.084 80.5103 35.892C80.0543 35.7 79.7003 35.424 79.4483 35.064C79.2083 34.692 79.0883 34.236 79.0883 33.696C79.0883 33.048 79.2803 32.514 79.6643 32.094C80.0603 31.662 80.6783 31.362 81.5183 31.194L84.9203 30.492L84.9023 32.112L83.1743 32.472C82.8143 32.544 82.5443 32.652 82.3643 32.796C82.1963 32.928 82.1123 33.132 82.1123 33.408C82.1123 33.672 82.2083 33.87 82.4003 34.002C82.5923 34.134 82.8203 34.2 83.0843 34.2C83.2883 34.2 83.4803 34.17 83.6603 34.11C83.8523 34.05 84.0203 33.96 84.1643 33.84C84.3083 33.708 84.4223 33.546 84.5063 33.354C84.5903 33.162 84.6323 32.934 84.6323 32.67V30.294ZM93.3446 24.138V32.796C93.3446 33.228 93.4466 33.54 93.6506 33.732C93.8666 33.912 94.1606 34.002 94.5326 34.002C94.8206 34.002 95.0666 33.972 95.2706 33.912C95.4866 33.84 95.6786 33.738 95.8466 33.606L96.1706 35.496C95.8706 35.712 95.4926 35.88 95.0366 36C94.5806 36.12 94.1126 36.18 93.6326 36.18C92.9486 36.18 92.3546 36.084 91.8506 35.892C91.3586 35.7 90.9746 35.394 90.6986 34.974C90.4346 34.554 90.2966 33.996 90.2846 33.3V24.984L93.3446 24.138ZM96.0266 27V29.178H88.7366V27H96.0266ZM101.624 26.82C102.572 26.82 103.4 27.006 104.108 27.378C104.828 27.738 105.386 28.272 105.782 28.98C106.19 29.676 106.394 30.516 106.394 31.5C106.394 32.484 106.19 33.33 105.782 34.038C105.386 34.734 104.828 35.268 104.108 35.64C103.4 36 102.572 36.18 101.624 36.18C100.7 36.18 99.878 36 99.158 35.64C98.438 35.268 97.874 34.734 97.466 34.038C97.07 33.33 96.872 32.484 96.872 31.5C96.872 30.516 97.07 29.676 97.466 28.98C97.874 28.272 98.438 27.738 99.158 27.378C99.878 27.006 100.7 26.82 101.624 26.82ZM101.624 28.998C101.276 28.998 100.976 29.082 100.724 29.25C100.472 29.418 100.28 29.688 100.148 30.06C100.016 30.432 99.95 30.912 99.95 31.5C99.95 32.088 100.016 32.568 100.148 32.94C100.28 33.3 100.472 33.57 100.724 33.75C100.976 33.918 101.276 34.002 101.624 34.002C101.984 34.002 102.29 33.918 102.542 33.75C102.794 33.57 102.986 33.3 103.118 32.94C103.25 32.568 103.316 32.088 103.316 31.5C103.316 30.912 103.25 30.432 103.118 30.06C102.986 29.688 102.794 29.418 102.542 29.25C102.29 29.082 101.984 28.998 101.624 28.998ZM108.015 36V27H110.715L110.841 28.944C111.069 28.272 111.405 27.75 111.849 27.378C112.305 27.006 112.881 26.82 113.577 26.82C113.805 26.82 113.997 26.838 114.153 26.874C114.321 26.91 114.453 26.958 114.549 27.018L114.243 29.538C114.123 29.49 113.967 29.454 113.775 29.43C113.595 29.394 113.373 29.376 113.109 29.376C112.749 29.376 112.413 29.454 112.101 29.61C111.789 29.766 111.537 30 111.345 30.312C111.165 30.612 111.075 30.996 111.075 31.464V36H108.015Z" fill="white"/>
<rect x="125" y="19" width="42" height="22" rx="11" fill="#FAC02E"/>
<path d="M138.566 35H136.088L135.444 32.914H132.28L131.622 35H129.2L132.448 25.76H135.332L138.566 35ZM132.728 31.276H134.996L133.862 27.538L132.728 31.276ZM141.725 25.032V32.62C141.725 32.928 141.776 33.1473 141.879 33.278C141.982 33.4087 142.154 33.474 142.397 33.474C142.537 33.474 142.654 33.4647 142.747 33.446C142.84 33.4273 142.952 33.3993 143.083 33.362L142.929 34.79C142.761 34.8927 142.542 34.9767 142.271 35.042C142 35.1073 141.734 35.14 141.473 35.14C140.726 35.14 140.185 34.9673 139.849 34.622C139.513 34.2767 139.345 33.712 139.345 32.928V25.032H141.725ZM147.269 35.14C146.494 35.14 145.822 34.9953 145.253 34.706C144.693 34.4167 144.259 34.0013 143.951 33.46C143.643 32.9187 143.489 32.2653 143.489 31.5C143.489 30.7347 143.643 30.0813 143.951 29.54C144.259 28.9987 144.688 28.5833 145.239 28.294C145.799 28.0047 146.438 27.86 147.157 27.86C147.894 27.86 148.52 28.0047 149.033 28.294C149.556 28.574 149.952 28.966 150.223 29.47C150.494 29.9647 150.629 30.534 150.629 31.178C150.629 31.346 150.624 31.514 150.615 31.682C150.606 31.85 150.592 31.99 150.573 32.102H145.029V30.828H149.523L148.389 31.262C148.389 30.702 148.286 30.2727 148.081 29.974C147.885 29.6753 147.577 29.526 147.157 29.526C146.858 29.526 146.602 29.596 146.387 29.736C146.182 29.876 146.023 30.0953 145.911 30.394C145.808 30.6927 145.757 31.0753 145.757 31.542C145.757 31.9993 145.818 32.3727 145.939 32.662C146.06 32.942 146.233 33.1473 146.457 33.278C146.681 33.3993 146.952 33.46 147.269 33.46C147.624 33.46 147.904 33.39 148.109 33.25C148.324 33.11 148.482 32.914 148.585 32.662L150.489 33.292C150.358 33.6933 150.13 34.034 149.803 34.314C149.486 34.5847 149.103 34.79 148.655 34.93C148.216 35.07 147.754 35.14 147.269 35.14ZM151.86 35V28H153.96L154.058 29.512C154.236 28.9893 154.497 28.5833 154.842 28.294C155.197 28.0047 155.645 27.86 156.186 27.86C156.364 27.86 156.513 27.874 156.634 27.902C156.765 27.93 156.868 27.9673 156.942 28.014L156.704 29.974C156.611 29.9367 156.49 29.9087 156.34 29.89C156.2 29.862 156.028 29.848 155.822 29.848C155.542 29.848 155.281 29.9087 155.038 30.03C154.796 30.1513 154.6 30.3333 154.45 30.576C154.31 30.8093 154.24 31.108 154.24 31.472V35H151.86ZM160.524 25.774V32.508C160.524 32.844 160.604 33.0867 160.762 33.236C160.93 33.376 161.159 33.446 161.448 33.446C161.672 33.446 161.864 33.4227 162.022 33.376C162.19 33.32 162.34 33.2407 162.47 33.138L162.722 34.608C162.489 34.776 162.195 34.9067 161.84 35C161.486 35.0933 161.122 35.14 160.748 35.14C160.216 35.14 159.754 35.0653 159.362 34.916C158.98 34.7667 158.681 34.5287 158.466 34.202C158.261 33.8753 158.154 33.4413 158.144 32.9V26.432L160.524 25.774ZM162.61 28V29.694H156.94V28H162.61Z" fill="black"/>
<path d="M31.984 61.16C30.9813 61.16 30.112 60.9413 29.376 60.504C28.6507 60.056 28.0853 59.4267 27.68 58.616C27.2853 57.8053 27.088 56.84 27.088 55.72C27.088 54.6 27.296 53.6347 27.712 52.824C28.1387 52.0133 28.7307 51.3893 29.488 50.952C30.2453 50.504 31.1147 50.28 32.096 50.28C33.1413 50.28 33.9893 50.4773 34.64 50.872C35.3013 51.2667 35.8347 51.8747 36.24 52.696L35.072 53.336C34.8373 52.728 34.464 52.2693 33.952 51.96C33.4507 51.64 32.832 51.48 32.096 51.48C31.3813 51.48 30.7467 51.6507 30.192 51.992C29.648 52.3227 29.216 52.808 28.896 53.448C28.5867 54.0773 28.432 54.8347 28.432 55.72C28.432 56.6053 28.5653 57.368 28.832 58.008C29.1093 58.6373 29.5147 59.1227 30.048 59.464C30.592 59.7947 31.2533 59.96 32.032 59.96C32.4693 59.96 32.8747 59.9067 33.248 59.8C33.632 59.6827 33.9627 59.512 34.24 59.288C34.528 59.064 34.752 58.7813 34.912 58.44C35.072 58.0987 35.152 57.6987 35.152 57.24V56.872H31.792V55.672H36.32V61H35.312L35.248 59.032L35.52 59.08C35.2427 59.7413 34.8053 60.2533 34.208 60.616C33.6107 60.9787 32.8693 61.16 31.984 61.16ZM42.3101 61.16C41.5528 61.16 40.8755 60.9947 40.2781 60.664C39.6915 60.3333 39.2328 59.8587 38.9021 59.24C38.5715 58.6107 38.4061 57.864 38.4061 57C38.4061 56.136 38.5715 55.3947 38.9021 54.776C39.2328 54.1467 39.6861 53.6667 40.2621 53.336C40.8381 53.0053 41.4941 52.84 42.2301 52.84C42.9768 52.84 43.6115 53 44.1341 53.32C44.6675 53.64 45.0728 54.0773 45.3501 54.632C45.6275 55.176 45.7661 55.7893 45.7661 56.472C45.7661 56.6533 45.7608 56.8187 45.7501 56.968C45.7395 57.1173 45.7235 57.2507 45.7021 57.368H39.2381V56.232H45.1421L44.4861 56.36C44.4861 55.592 44.2728 55 43.8461 54.584C43.4301 54.168 42.8808 53.96 42.1981 53.96C41.6755 53.96 41.2221 54.0827 40.8381 54.328C40.4648 54.5627 40.1715 54.9093 39.9581 55.368C39.7555 55.816 39.6541 56.36 39.6541 57C39.6541 57.6293 39.7608 58.1733 39.9741 58.632C40.1875 59.0907 40.4861 59.4427 40.8701 59.688C41.2648 59.9227 41.7341 60.04 42.2781 60.04C42.8648 60.04 43.3395 59.928 43.7021 59.704C44.0755 59.48 44.3741 59.176 44.5981 58.792L45.6061 59.384C45.4035 59.7467 45.1421 60.0613 44.8221 60.328C44.5128 60.5947 44.1448 60.8027 43.7181 60.952C43.3021 61.0907 42.8328 61.16 42.3101 61.16ZM48.1005 61V53H49.2205L49.3325 54.792L49.1245 54.616C49.2952 54.1893 49.5245 53.848 49.8125 53.592C50.1005 53.3253 50.4312 53.1333 50.8045 53.016C51.1885 52.8987 51.5832 52.84 51.9885 52.84C52.5645 52.84 53.0872 52.952 53.5565 53.176C54.0258 53.3893 54.3992 53.72 54.6765 54.168C54.9645 54.616 55.1085 55.1867 55.1085 55.88V61H53.8285V56.328C53.8285 55.4427 53.6365 54.8293 53.2525 54.488C52.8792 54.136 52.4152 53.96 51.8605 53.96C51.4765 53.96 51.0925 54.0507 50.7085 54.232C50.3245 54.4133 50.0045 54.7067 49.7485 55.112C49.5032 55.5173 49.3805 56.0613 49.3805 56.744V61H48.1005ZM61.2508 61.16C60.4934 61.16 59.8161 60.9947 59.2188 60.664C58.6321 60.3333 58.1734 59.8587 57.8428 59.24C57.5121 58.6107 57.3468 57.864 57.3468 57C57.3468 56.136 57.5121 55.3947 57.8428 54.776C58.1734 54.1467 58.6268 53.6667 59.2028 53.336C59.7788 53.0053 60.4348 52.84 61.1708 52.84C61.9174 52.84 62.5521 53 63.0748 53.32C63.6081 53.64 64.0134 54.0773 64.2908 54.632C64.5681 55.176 64.7068 55.7893 64.7068 56.472C64.7068 56.6533 64.7014 56.8187 64.6908 56.968C64.6801 57.1173 64.6641 57.2507 64.6428 57.368H58.1788V56.232H64.0828L63.4268 56.36C63.4268 55.592 63.2134 55 62.7868 54.584C62.3708 54.168 61.8214 53.96 61.1388 53.96C60.6161 53.96 60.1628 54.0827 59.7788 54.328C59.4054 54.5627 59.1121 54.9093 58.8988 55.368C58.6961 55.816 58.5948 56.36 58.5948 57C58.5948 57.6293 58.7014 58.1733 58.9148 58.632C59.1281 59.0907 59.4268 59.4427 59.8108 59.688C60.2054 59.9227 60.6748 60.04 61.2188 60.04C61.8054 60.04 62.2801 59.928 62.6428 59.704C63.0161 59.48 63.3148 59.176 63.5388 58.792L64.5468 59.384C64.3441 59.7467 64.0828 60.0613 63.7628 60.328C63.4534 60.5947 63.0854 60.8027 62.6588 60.952C62.2428 61.0907 61.7734 61.16 61.2508 61.16ZM67.0411 61V53H68.0811L68.2571 54.312C68.4811 53.8213 68.8065 53.4533 69.2331 53.208C69.6705 52.9627 70.1985 52.84 70.8171 52.84C70.9558 52.84 71.1051 52.8507 71.2651 52.872C71.4358 52.8933 71.5798 52.936 71.6971 53L71.4731 54.168C71.3558 54.1253 71.2278 54.0933 71.0891 54.072C70.9505 54.0507 70.7531 54.04 70.4971 54.04C70.1665 54.04 69.8305 54.136 69.4891 54.328C69.1585 54.52 68.8811 54.8133 68.6571 55.208C68.4331 55.592 68.3211 56.0827 68.3211 56.68V61H67.0411ZM77.9256 55.832C77.9256 55.2347 77.7656 54.776 77.4456 54.456C77.1256 54.1253 76.6723 53.96 76.0856 53.96C75.531 53.96 75.0616 54.0827 74.6776 54.328C74.2936 54.5627 74.011 54.9467 73.8296 55.48L72.7896 54.84C73.003 54.2427 73.3976 53.7627 73.9736 53.4C74.5496 53.0267 75.2643 52.84 76.1176 52.84C76.6936 52.84 77.2163 52.9413 77.6856 53.144C78.155 53.336 78.523 53.6347 78.7896 54.04C79.067 54.4347 79.2056 54.9467 79.2056 55.576V59.448C79.2056 59.832 79.4083 60.024 79.8136 60.024C80.0163 60.024 80.2136 59.9973 80.4056 59.944L80.3416 60.952C80.1283 61.0587 79.851 61.112 79.5096 61.112C79.2003 61.112 78.923 61.0533 78.6776 60.936C78.4323 60.8187 78.2403 60.6427 78.1016 60.408C77.963 60.1627 77.8936 59.8587 77.8936 59.496V59.336L78.2136 59.384C78.0856 59.8 77.867 60.1413 77.5576 60.408C77.2483 60.664 76.9016 60.856 76.5176 60.984C76.1336 61.1013 75.755 61.16 75.3816 61.16C74.9123 61.16 74.475 61.08 74.0696 60.92C73.6643 60.76 73.339 60.52 73.0936 60.2C72.859 59.8693 72.7416 59.464 72.7416 58.984C72.7416 58.3867 72.939 57.896 73.3336 57.512C73.739 57.1173 74.299 56.8507 75.0136 56.712L78.1816 56.088V57.144L75.6056 57.672C75.083 57.7787 74.6936 57.928 74.4376 58.12C74.1816 58.312 74.0536 58.5787 74.0536 58.92C74.0536 59.2507 74.1816 59.5227 74.4376 59.736C74.7043 59.9387 75.0776 60.04 75.5576 60.04C75.867 60.04 76.1603 60.0027 76.4376 59.928C76.7256 59.8427 76.9816 59.72 77.2056 59.56C77.4296 59.3893 77.6056 59.1813 77.7336 58.936C77.8616 58.68 77.9256 58.3813 77.9256 58.04V55.832ZM83.7916 50.728V58.792C83.7916 59.1867 83.9036 59.48 84.1276 59.672C84.3516 59.864 84.6396 59.96 84.9916 59.96C85.301 59.96 85.5676 59.9067 85.7916 59.8C86.0156 59.6933 86.2183 59.5493 86.3996 59.368L86.8476 60.44C86.6023 60.664 86.309 60.84 85.9676 60.968C85.637 61.096 85.253 61.16 84.8156 61.16C84.4103 61.16 84.0316 61.0907 83.6796 60.952C83.3276 60.8027 83.045 60.5733 82.8316 60.264C82.629 59.944 82.5223 59.528 82.5116 59.016V51.08L83.7916 50.728ZM86.7036 53V54.104H80.9116V53H86.7036ZM91.8187 52.84C92.5761 52.84 93.2427 53.0053 93.8187 53.336C94.4054 53.6667 94.8641 54.1467 95.1947 54.776C95.5254 55.3947 95.6908 56.136 95.6908 57C95.6908 57.864 95.5254 58.6107 95.1947 59.24C94.8641 59.8587 94.4054 60.3333 93.8187 60.664C93.2427 60.9947 92.5761 61.16 91.8187 61.16C91.0721 61.16 90.4054 60.9947 89.8187 60.664C89.2321 60.3333 88.7734 59.8587 88.4427 59.24C88.1121 58.6107 87.9467 57.864 87.9467 57C87.9467 56.136 88.1121 55.3947 88.4427 54.776C88.7734 54.1467 89.2321 53.6667 89.8187 53.336C90.4054 53.0053 91.0721 52.84 91.8187 52.84ZM91.8187 53.944C91.2747 53.944 90.8107 54.0667 90.4267 54.312C90.0427 54.5573 89.7441 54.9093 89.5307 55.368C89.3281 55.816 89.2267 56.36 89.2267 57C89.2267 57.6293 89.3281 58.1733 89.5307 58.632C89.7441 59.0907 90.0427 59.4427 90.4267 59.688C90.8107 59.9333 91.2747 60.056 91.8187 60.056C92.3627 60.056 92.8267 59.9333 93.2107 59.688C93.5947 59.4427 93.8881 59.0907 94.0907 58.632C94.3041 58.1733 94.4107 57.6293 94.4107 57C94.4107 56.36 94.3041 55.816 94.0907 55.368C93.8881 54.9093 93.5947 54.5573 93.2107 54.312C92.8267 54.0667 92.3627 53.944 91.8187 53.944ZM98.0005 61V53H99.0405L99.2165 54.312C99.4405 53.8213 99.7658 53.4533 100.192 53.208C100.63 52.9627 101.158 52.84 101.776 52.84C101.915 52.84 102.064 52.8507 102.224 52.872C102.395 52.8933 102.539 52.936 102.656 53L102.432 54.168C102.315 54.1253 102.187 54.0933 102.048 54.072C101.91 54.0507 101.712 54.04 101.456 54.04C101.126 54.04 100.79 54.136 100.448 54.328C100.118 54.52 99.8405 54.8133 99.6165 55.208C99.3925 55.592 99.2805 56.0827 99.2805 56.68V61H98.0005ZM113.906 50.28C114.909 50.28 115.773 50.504 116.498 50.952C117.234 51.3893 117.799 52.0133 118.194 52.824C118.599 53.6347 118.802 54.6 118.802 55.72C118.802 56.84 118.599 57.8053 118.194 58.616C117.799 59.4267 117.234 60.056 116.498 60.504C115.773 60.9413 114.909 61.16 113.906 61.16C112.903 61.16 112.034 60.9413 111.298 60.504C110.573 60.056 110.007 59.4267 109.602 58.616C109.207 57.8053 109.01 56.84 109.01 55.72C109.01 54.6 109.207 53.6347 109.602 52.824C110.007 52.0133 110.573 51.3893 111.298 50.952C112.034 50.504 112.903 50.28 113.906 50.28ZM113.906 51.48C113.181 51.48 112.551 51.6507 112.018 51.992C111.485 52.3227 111.074 52.808 110.786 53.448C110.498 54.0773 110.354 54.8347 110.354 55.72C110.354 56.6053 110.498 57.368 110.786 58.008C111.074 58.6373 111.485 59.1227 112.018 59.464C112.551 59.7947 113.181 59.96 113.906 59.96C114.642 59.96 115.271 59.7947 115.794 59.464C116.327 59.1227 116.738 58.6373 117.026 58.008C117.314 57.368 117.458 56.6053 117.458 55.72C117.458 54.8347 117.314 54.0773 117.026 53.448C116.738 52.808 116.327 52.3227 115.794 51.992C115.271 51.6507 114.642 51.48 113.906 51.48ZM124.175 61.16C123.663 61.16 123.177 61.064 122.719 60.872C122.271 60.68 121.903 60.3707 121.615 59.944C121.337 59.5067 121.199 58.9413 121.199 58.248V53H122.479V57.912C122.479 58.7227 122.655 59.2827 123.007 59.592C123.359 59.8907 123.855 60.04 124.495 60.04C124.793 60.04 125.087 59.992 125.375 59.896C125.663 59.7893 125.919 59.6293 126.143 59.416C126.377 59.192 126.559 58.9093 126.687 58.568C126.825 58.2267 126.895 57.8213 126.895 57.352V53H128.175V61H127.055L126.975 59.784C126.697 60.264 126.319 60.616 125.839 60.84C125.369 61.0533 124.815 61.16 124.175 61.16ZM132.942 50.728V58.792C132.942 59.1867 133.054 59.48 133.278 59.672C133.502 59.864 133.79 59.96 134.142 59.96C134.451 59.96 134.718 59.9067 134.942 59.8C135.166 59.6933 135.368 59.5493 135.55 59.368L135.998 60.44C135.752 60.664 135.459 60.84 135.118 60.968C134.787 61.096 134.403 61.16 133.966 61.16C133.56 61.16 133.182 61.0907 132.83 60.952C132.478 60.8027 132.195 60.5733 131.982 60.264C131.779 59.944 131.672 59.528 131.662 59.016V51.08L132.942 50.728ZM135.854 53V54.104H130.062V53H135.854ZM137.657 64.36V53H138.777L138.889 54.952L138.713 54.728C138.851 54.3547 139.059 54.0293 139.337 53.752C139.614 53.464 139.95 53.24 140.345 53.08C140.739 52.92 141.166 52.84 141.625 52.84C142.275 52.84 142.873 53.0053 143.417 53.336C143.971 53.6667 144.414 54.1413 144.745 54.76C145.075 55.3787 145.241 56.1253 145.241 57C145.241 57.864 145.07 58.6107 144.729 59.24C144.398 59.8587 143.955 60.3333 143.401 60.664C142.846 60.9947 142.238 61.16 141.577 61.16C140.915 61.16 140.334 61 139.833 60.68C139.342 60.3493 138.99 59.9333 138.777 59.432L138.937 59.192V64.36H137.657ZM141.449 60.04C142.238 60.04 142.851 59.7627 143.289 59.208C143.737 58.6533 143.961 57.9173 143.961 57C143.961 56.0827 143.742 55.3467 143.305 54.792C142.878 54.2373 142.275 53.96 141.497 53.96C140.985 53.96 140.537 54.088 140.153 54.344C139.769 54.5893 139.47 54.9413 139.257 55.4C139.043 55.848 138.937 56.3813 138.937 57C138.937 57.608 139.038 58.1413 139.241 58.6C139.454 59.0587 139.747 59.416 140.121 59.672C140.505 59.9173 140.947 60.04 141.449 60.04ZM150.484 61.16C149.972 61.16 149.487 61.064 149.028 60.872C148.58 60.68 148.212 60.3707 147.924 59.944C147.647 59.5067 147.508 58.9413 147.508 58.248V53H148.788V57.912C148.788 58.7227 148.964 59.2827 149.316 59.592C149.668 59.8907 150.164 60.04 150.804 60.04C151.103 60.04 151.396 59.992 151.684 59.896C151.972 59.7893 152.228 59.6293 152.452 59.416C152.687 59.192 152.868 58.9093 152.996 58.568C153.135 58.2267 153.204 57.8213 153.204 57.352V53H154.484V61H153.364L153.284 59.784C153.007 60.264 152.628 60.616 152.148 60.84C151.679 61.0533 151.124 61.16 150.484 61.16ZM159.251 50.728V58.792C159.251 59.1867 159.363 59.48 159.587 59.672C159.811 59.864 160.099 59.96 160.451 59.96C160.76 59.96 161.027 59.9067 161.251 59.8C161.475 59.6933 161.678 59.5493 161.859 59.368L162.307 60.44C162.062 60.664 161.768 60.84 161.427 60.968C161.096 61.096 160.712 61.16 160.275 61.16C159.87 61.16 159.491 61.0907 159.139 60.952C158.787 60.8027 158.504 60.5733 158.291 60.264C158.088 59.944 157.982 59.528 157.971 59.016V51.08L159.251 50.728ZM162.163 53V54.104H156.371V53H162.163ZM178.071 58.296C177.847 58.8933 177.527 59.4107 177.111 59.848C176.695 60.2747 176.205 60.6 175.639 60.824C175.085 61.048 174.477 61.16 173.815 61.16C172.813 61.16 171.943 60.9413 171.207 60.504C170.482 60.056 169.917 59.4267 169.511 58.616C169.117 57.8053 168.919 56.84 168.919 55.72C168.919 54.6 169.117 53.6347 169.511 52.824C169.917 52.0133 170.482 51.3893 171.207 50.952C171.943 50.504 172.802 50.28 173.783 50.28C174.466 50.28 175.074 50.376 175.607 50.568C176.141 50.7493 176.594 51.0267 176.967 51.4C177.351 51.7627 177.655 52.2107 177.879 52.744L176.615 53.336C176.381 52.728 176.039 52.2693 175.591 51.96C175.154 51.64 174.583 51.48 173.879 51.48C173.165 51.48 172.535 51.6507 171.991 51.992C171.447 52.3227 171.021 52.8027 170.711 53.432C170.413 54.0613 170.263 54.824 170.263 55.72C170.263 56.6053 170.407 57.368 170.695 58.008C170.983 58.6373 171.394 59.1227 171.927 59.464C172.461 59.7947 173.09 59.96 173.815 59.96C174.519 59.96 175.133 59.784 175.655 59.432C176.178 59.0693 176.557 58.5307 176.791 57.816L178.071 58.296ZM183.084 61.16C182.572 61.16 182.087 61.064 181.628 60.872C181.18 60.68 180.812 60.3707 180.524 59.944C180.247 59.5067 180.108 58.9413 180.108 58.248V53H181.388V57.912C181.388 58.7227 181.564 59.2827 181.916 59.592C182.268 59.8907 182.764 60.04 183.404 60.04C183.703 60.04 183.996 59.992 184.284 59.896C184.572 59.7893 184.828 59.6293 185.052 59.416C185.287 59.192 185.468 58.9093 185.596 58.568C185.735 58.2267 185.804 57.8213 185.804 57.352V53H187.084V61H185.964L185.884 59.784C185.607 60.264 185.228 60.616 184.748 60.84C184.279 61.0533 183.724 61.16 183.084 61.16ZM189.963 61V53H191.003L191.179 54.312C191.403 53.8213 191.728 53.4533 192.155 53.208C192.592 52.9627 193.12 52.84 193.739 52.84C193.878 52.84 194.027 52.8507 194.187 52.872C194.358 52.8933 194.502 52.936 194.619 53L194.395 54.168C194.278 54.1253 194.15 54.0933 194.011 54.072C193.872 54.0507 193.675 54.04 193.419 54.04C193.088 54.04 192.752 54.136 192.411 54.328C192.08 54.52 191.803 54.8133 191.579 55.208C191.355 55.592 191.243 56.0827 191.243 56.68V61H189.963ZM196.394 61V53H197.434L197.61 54.312C197.834 53.8213 198.16 53.4533 198.586 53.208C199.024 52.9627 199.552 52.84 200.17 52.84C200.309 52.84 200.458 52.8507 200.618 52.872C200.789 52.8933 200.933 52.936 201.05 53L200.826 54.168C200.709 54.1253 200.581 54.0933 200.442 54.072C200.304 54.0507 200.106 54.04 199.85 54.04C199.52 54.04 199.184 54.136 198.842 54.328C198.512 54.52 198.234 54.8133 198.01 55.208C197.786 55.592 197.674 56.0827 197.674 56.68V61H196.394ZM205.919 61.16C205.162 61.16 204.485 60.9947 203.887 60.664C203.301 60.3333 202.842 59.8587 202.511 59.24C202.181 58.6107 202.015 57.864 202.015 57C202.015 56.136 202.181 55.3947 202.511 54.776C202.842 54.1467 203.295 53.6667 203.871 53.336C204.447 53.0053 205.103 52.84 205.839 52.84C206.586 52.84 207.221 53 207.743 53.32C208.277 53.64 208.682 54.0773 208.959 54.632C209.237 55.176 209.375 55.7893 209.375 56.472C209.375 56.6533 209.37 56.8187 209.359 56.968C209.349 57.1173 209.333 57.2507 209.311 57.368H202.847V56.232H208.751L208.095 56.36C208.095 55.592 207.882 55 207.455 54.584C207.039 54.168 206.49 53.96 205.807 53.96C205.285 53.96 204.831 54.0827 204.447 54.328C204.074 54.5627 203.781 54.9093 203.567 55.368C203.365 55.816 203.263 56.36 203.263 57C203.263 57.6293 203.37 58.1733 203.583 58.632C203.797 59.0907 204.095 59.4427 204.479 59.688C204.874 59.9227 205.343 60.04 205.887 60.04C206.474 60.04 206.949 59.928 207.311 59.704C207.685 59.48 207.983 59.176 208.207 58.792L209.215 59.384C209.013 59.7467 208.751 60.0613 208.431 60.328C208.122 60.5947 207.754 60.8027 207.327 60.952C206.911 61.0907 206.442 61.16 205.919 61.16ZM211.71 61V53H212.83L212.942 54.792L212.734 54.616C212.905 54.1893 213.134 53.848 213.422 53.592C213.71 53.3253 214.041 53.1333 214.414 53.016C214.798 52.8987 215.193 52.84 215.598 52.84C216.174 52.84 216.697 52.952 217.166 53.176C217.635 53.3893 218.009 53.72 218.286 54.168C218.574 54.616 218.718 55.1867 218.718 55.88V61H217.438V56.328C217.438 55.4427 217.246 54.8293 216.862 54.488C216.489 54.136 216.025 53.96 215.47 53.96C215.086 53.96 214.702 54.0507 214.318 54.232C213.934 54.4133 213.614 54.7067 213.358 55.112C213.113 55.5173 212.99 56.0613 212.99 56.744V61H211.71ZM223.295 50.728V58.792C223.295 59.1867 223.407 59.48 223.631 59.672C223.855 59.864 224.143 59.96 224.495 59.96C224.804 59.96 225.071 59.9067 225.295 59.8C225.519 59.6933 225.721 59.5493 225.903 59.368L226.351 60.44C226.105 60.664 225.812 60.84 225.471 60.968C225.14 61.096 224.756 61.16 224.319 61.16C223.913 61.16 223.535 61.0907 223.183 60.952C222.831 60.8027 222.548 60.5733 222.335 60.264C222.132 59.944 222.025 59.528 222.015 59.016V51.08L223.295 50.728ZM226.207 53V54.104H220.415V53H226.207ZM233.363 61V49.32H234.643V54.2C234.92 53.72 235.288 53.3733 235.747 53.16C236.206 52.9467 236.707 52.84 237.251 52.84C237.827 52.84 238.35 52.952 238.819 53.176C239.288 53.3893 239.662 53.72 239.939 54.168C240.227 54.616 240.371 55.1867 240.371 55.88V61H239.091V56.328C239.091 55.4427 238.899 54.8293 238.515 54.488C238.142 54.136 237.678 53.96 237.123 53.96C236.739 53.96 236.355 54.0507 235.971 54.232C235.587 54.4133 235.267 54.712 235.011 55.128C234.766 55.5333 234.643 56.0773 234.643 56.76V61H233.363ZM247.841 55.832C247.841 55.2347 247.681 54.776 247.361 54.456C247.041 54.1253 246.588 53.96 246.001 53.96C245.447 53.96 244.977 54.0827 244.593 54.328C244.209 54.5627 243.927 54.9467 243.745 55.48L242.705 54.84C242.919 54.2427 243.313 53.7627 243.889 53.4C244.465 53.0267 245.18 52.84 246.033 52.84C246.609 52.84 247.132 52.9413 247.601 53.144C248.071 53.336 248.439 53.6347 248.705 54.04C248.983 54.4347 249.121 54.9467 249.121 55.576V59.448C249.121 59.832 249.324 60.024 249.729 60.024C249.932 60.024 250.129 59.9973 250.321 59.944L250.257 60.952C250.044 61.0587 249.767 61.112 249.425 61.112C249.116 61.112 248.839 61.0533 248.593 60.936C248.348 60.8187 248.156 60.6427 248.017 60.408C247.879 60.1627 247.809 59.8587 247.809 59.496V59.336L248.129 59.384C248.001 59.8 247.783 60.1413 247.473 60.408C247.164 60.664 246.817 60.856 246.433 60.984C246.049 61.1013 245.671 61.16 245.297 61.16C244.828 61.16 244.391 61.08 243.985 60.92C243.58 60.76 243.255 60.52 243.009 60.2C242.775 59.8693 242.657 59.464 242.657 58.984C242.657 58.3867 242.855 57.896 243.249 57.512C243.655 57.1173 244.215 56.8507 244.929 56.712L248.097 56.088V57.144L245.521 57.672C244.999 57.7787 244.609 57.928 244.353 58.12C244.097 58.312 243.969 58.5787 243.969 58.92C243.969 59.2507 244.097 59.5227 244.353 59.736C244.62 59.9387 244.993 60.04 245.473 60.04C245.783 60.04 246.076 60.0027 246.353 59.928C246.641 59.8427 246.897 59.72 247.121 59.56C247.345 59.3893 247.521 59.1813 247.649 58.936C247.777 58.68 247.841 58.3813 247.841 58.04V55.832ZM255.012 61.16C254.233 61.16 253.513 60.9947 252.852 60.664C252.201 60.3333 251.7 59.864 251.348 59.256L252.436 58.472C252.67 58.9627 253.012 59.3467 253.46 59.624C253.918 59.9013 254.468 60.04 255.108 60.04C255.673 60.04 256.116 59.9333 256.436 59.72C256.756 59.496 256.916 59.208 256.916 58.856C256.916 58.632 256.841 58.4293 256.692 58.248C256.553 58.056 256.281 57.9173 255.876 57.832L253.956 57.432C253.177 57.272 252.617 57.0053 252.276 56.632C251.945 56.2587 251.78 55.7947 251.78 55.24C251.78 54.8027 251.902 54.4027 252.148 54.04C252.404 53.6773 252.761 53.3893 253.22 53.176C253.689 52.952 254.238 52.84 254.868 52.84C255.657 52.84 256.324 52.9947 256.868 53.304C257.412 53.6133 257.817 54.0507 258.084 54.616L257.012 55.32C256.83 54.8507 256.537 54.5093 256.132 54.296C255.726 54.072 255.305 53.96 254.868 53.96C254.484 53.96 254.153 54.0133 253.876 54.12C253.609 54.2267 253.401 54.376 253.252 54.568C253.113 54.7493 253.044 54.9573 253.044 55.192C253.044 55.4267 253.124 55.6453 253.284 55.848C253.444 56.04 253.742 56.1787 254.18 56.264L256.18 56.68C256.926 56.8293 257.449 57.0747 257.748 57.416C258.046 57.7573 258.196 58.1733 258.196 58.664C258.196 59.1653 258.062 59.608 257.796 59.992C257.529 60.3653 257.156 60.6533 256.676 60.856C256.196 61.0587 255.641 61.16 255.012 61.16ZM268.942 61.16C268.281 61.16 267.673 60.9947 267.118 60.664C266.564 60.3333 266.121 59.8587 265.79 59.24C265.46 58.6107 265.294 57.864 265.294 57C265.294 56.1147 265.47 55.3627 265.822 54.744C266.174 54.1253 266.638 53.656 267.214 53.336C267.79 53.0053 268.409 52.84 269.07 52.84C269.732 52.84 270.302 53.0107 270.782 53.352C271.273 53.6933 271.598 54.1467 271.758 54.712L271.598 54.824V49.32H272.878V61H271.758L271.646 59.064L271.822 58.968C271.748 59.4373 271.566 59.8373 271.278 60.168C271.001 60.488 270.654 60.7333 270.238 60.904C269.833 61.0747 269.401 61.16 268.942 61.16ZM269.07 60.04C269.582 60.04 270.025 59.912 270.398 59.656C270.782 59.4 271.076 59.0373 271.278 58.568C271.492 58.088 271.598 57.528 271.598 56.888C271.598 56.28 271.492 55.7573 271.278 55.32C271.076 54.8827 270.788 54.5467 270.414 54.312C270.052 54.0773 269.625 53.96 269.134 53.96C268.324 53.96 267.694 54.2373 267.246 54.792C266.798 55.3467 266.574 56.0827 266.574 57C266.574 57.9173 266.793 58.6533 267.23 59.208C267.668 59.7627 268.281 60.04 269.07 60.04ZM279.098 61.16C278.34 61.16 277.663 60.9947 277.066 60.664C276.479 60.3333 276.02 59.8587 275.69 59.24C275.359 58.6107 275.194 57.864 275.194 57C275.194 56.136 275.359 55.3947 275.69 54.776C276.02 54.1467 276.474 53.6667 277.05 53.336C277.626 53.0053 278.282 52.84 279.018 52.84C279.764 52.84 280.399 53 280.922 53.32C281.455 53.64 281.86 54.0773 282.138 54.632C282.415 55.176 282.554 55.7893 282.554 56.472C282.554 56.6533 282.548 56.8187 282.538 56.968C282.527 57.1173 282.511 57.2507 282.49 57.368H276.026V56.232H281.93L281.274 56.36C281.274 55.592 281.06 55 280.634 54.584C280.218 54.168 279.668 53.96 278.986 53.96C278.463 53.96 278.01 54.0827 277.626 54.328C277.252 54.5627 276.959 54.9093 276.746 55.368C276.543 55.816 276.442 56.36 276.442 57C276.442 57.6293 276.548 58.1733 276.762 58.632C276.975 59.0907 277.274 59.4427 277.658 59.688C278.052 59.9227 278.522 60.04 279.066 60.04C279.652 60.04 280.127 59.928 280.49 59.704C280.863 59.48 281.162 59.176 281.386 58.792L282.394 59.384C282.191 59.7467 281.93 60.0613 281.61 60.328C281.3 60.5947 280.932 60.8027 280.506 60.952C280.09 61.0907 279.62 61.16 279.098 61.16ZM289.965 53H291.309L287.981 61H286.701L283.373 53H284.829L287.357 59.704L289.965 53ZM293.522 51.464C293.234 51.464 292.999 51.3787 292.818 51.208C292.647 51.0267 292.562 50.792 292.562 50.504C292.562 50.216 292.647 49.9867 292.818 49.816C292.999 49.6347 293.234 49.544 293.522 49.544C293.81 49.544 294.039 49.6347 294.21 49.816C294.391 49.9867 294.482 50.216 294.482 50.504C294.482 50.792 294.391 51.0267 294.21 51.208C294.039 51.3787 293.81 51.464 293.522 51.464ZM294.162 53V61H292.882V53H294.162ZM301.704 55.832C301.704 55.2347 301.544 54.776 301.224 54.456C300.904 54.1253 300.45 53.96 299.864 53.96C299.309 53.96 298.84 54.0827 298.456 54.328C298.072 54.5627 297.789 54.9467 297.608 55.48L296.568 54.84C296.781 54.2427 297.176 53.7627 297.752 53.4C298.328 53.0267 299.042 52.84 299.896 52.84C300.472 52.84 300.994 52.9413 301.464 53.144C301.933 53.336 302.301 53.6347 302.568 54.04C302.845 54.4347 302.984 54.9467 302.984 55.576V59.448C302.984 59.832 303.186 60.024 303.592 60.024C303.794 60.024 303.992 59.9973 304.184 59.944L304.12 60.952C303.906 61.0587 303.629 61.112 303.288 61.112C302.978 61.112 302.701 61.0533 302.456 60.936C302.21 60.8187 302.018 60.6427 301.88 60.408C301.741 60.1627 301.672 59.8587 301.672 59.496V59.336L301.992 59.384C301.864 59.8 301.645 60.1413 301.336 60.408C301.026 60.664 300.68 60.856 300.296 60.984C299.912 61.1013 299.533 61.16 299.16 61.16C298.69 61.16 298.253 61.08 297.848 60.92C297.442 60.76 297.117 60.52 296.872 60.2C296.637 59.8693 296.52 59.464 296.52 58.984C296.52 58.3867 296.717 57.896 297.112 57.512C297.517 57.1173 298.077 56.8507 298.792 56.712L301.96 56.088V57.144L299.384 57.672C298.861 57.7787 298.472 57.928 298.216 58.12C297.96 58.312 297.832 58.5787 297.832 58.92C297.832 59.2507 297.96 59.5227 298.216 59.736C298.482 59.9387 298.856 60.04 299.336 60.04C299.645 60.04 299.938 60.0027 300.216 59.928C300.504 59.8427 300.76 59.72 300.984 59.56C301.208 59.3893 301.384 59.1813 301.512 58.936C301.64 58.68 301.704 58.3813 301.704 58.04V55.832ZM307.57 50.728V58.792C307.57 59.1867 307.682 59.48 307.906 59.672C308.13 59.864 308.418 59.96 308.77 59.96C309.079 59.96 309.346 59.9067 309.57 59.8C309.794 59.6933 309.996 59.5493 310.178 59.368L310.626 60.44C310.38 60.664 310.087 60.84 309.746 60.968C309.415 61.096 309.031 61.16 308.594 61.16C308.188 61.16 307.81 61.0907 307.458 60.952C307.106 60.8027 306.823 60.5733 306.61 60.264C306.407 59.944 306.3 59.528 306.29 59.016V51.08L307.57 50.728ZM310.482 53V54.104H304.69V53H310.482ZM315.629 61.16C314.872 61.16 314.194 60.9947 313.597 60.664C313.01 60.3333 312.552 59.8587 312.221 59.24C311.89 58.6107 311.725 57.864 311.725 57C311.725 56.136 311.89 55.3947 312.221 54.776C312.552 54.1467 313.005 53.6667 313.581 53.336C314.157 53.0053 314.813 52.84 315.549 52.84C316.296 52.84 316.93 53 317.453 53.32C317.986 53.64 318.392 54.0773 318.669 54.632C318.946 55.176 319.085 55.7893 319.085 56.472C319.085 56.6533 319.08 56.8187 319.069 56.968C319.058 57.1173 319.042 57.2507 319.021 57.368H312.557V56.232H318.461L317.805 56.36C317.805 55.592 317.592 55 317.165 54.584C316.749 54.168 316.2 53.96 315.517 53.96C314.994 53.96 314.541 54.0827 314.157 54.328C313.784 54.5627 313.49 54.9093 313.277 55.368C313.074 55.816 312.973 56.36 312.973 57C312.973 57.6293 313.08 58.1733 313.293 58.632C313.506 59.0907 313.805 59.4427 314.189 59.688C314.584 59.9227 315.053 60.04 315.597 60.04C316.184 60.04 316.658 59.928 317.021 59.704C317.394 59.48 317.693 59.176 317.917 58.792L318.925 59.384C318.722 59.7467 318.461 60.0613 318.141 60.328C317.832 60.5947 317.464 60.8027 317.037 60.952C316.621 61.0907 316.152 61.16 315.629 61.16ZM324.539 61.16C323.878 61.16 323.27 60.9947 322.715 60.664C322.161 60.3333 321.718 59.8587 321.387 59.24C321.057 58.6107 320.891 57.864 320.891 57C320.891 56.1147 321.067 55.3627 321.419 54.744C321.771 54.1253 322.235 53.656 322.811 53.336C323.387 53.0053 324.006 52.84 324.667 52.84C325.329 52.84 325.899 53.0107 326.379 53.352C326.87 53.6933 327.195 54.1467 327.355 54.712L327.195 54.824V49.32H328.475V61H327.355L327.243 59.064L327.419 58.968C327.345 59.4373 327.163 59.8373 326.875 60.168C326.598 60.488 326.251 60.7333 325.835 60.904C325.43 61.0747 324.998 61.16 324.539 61.16ZM324.667 60.04C325.179 60.04 325.622 59.912 325.995 59.656C326.379 59.4 326.673 59.0373 326.875 58.568C327.089 58.088 327.195 57.528 327.195 56.888C327.195 56.28 327.089 55.7573 326.875 55.32C326.673 54.8827 326.385 54.5467 326.011 54.312C325.649 54.0773 325.222 53.96 324.731 53.96C323.921 53.96 323.291 54.2373 322.843 54.792C322.395 55.3467 322.171 56.0827 322.171 57C322.171 57.9173 322.39 58.6533 322.827 59.208C323.265 59.7627 323.878 60.04 324.667 60.04ZM30.736 73.24C31.0133 73.24 31.2747 73.272 31.52 73.336C31.7653 73.4 31.9573 73.4907 32.096 73.608L31.76 74.648C31.632 74.5627 31.4933 74.504 31.344 74.472C31.1947 74.4293 31.0293 74.408 30.848 74.408C30.3893 74.408 30.032 74.52 29.776 74.744C29.52 74.9573 29.392 75.304 29.392 75.784V77V77.416V85H28.112V75.656C28.112 75.304 28.1653 74.9787 28.272 74.68C28.3787 74.3813 28.5387 74.1253 28.752 73.912C28.976 73.6987 29.2533 73.5333 29.584 73.416C29.9147 73.2987 30.2987 73.24 30.736 73.24ZM32.064 77V78.104H26.512V77H32.064ZM33.6693 85V77H34.7093L34.8853 78.312C35.1093 77.8213 35.4346 77.4533 35.8613 77.208C36.2986 76.9627 36.8266 76.84 37.4453 76.84C37.5839 76.84 37.7333 76.8507 37.8933 76.872C38.0639 76.8933 38.2079 76.936 38.3253 77L38.1013 78.168C37.9839 78.1253 37.8559 78.0933 37.7173 78.072C37.5786 78.0507 37.3813 78.04 37.1253 78.04C36.7946 78.04 36.4586 78.136 36.1173 78.328C35.7866 78.52 35.5093 78.8133 35.2853 79.208C35.0613 79.592 34.9493 80.0827 34.9493 80.68V85H33.6693ZM43.1625 76.84C43.9198 76.84 44.5865 77.0053 45.1625 77.336C45.7492 77.6667 46.2078 78.1467 46.5385 78.776C46.8692 79.3947 47.0345 80.136 47.0345 81C47.0345 81.864 46.8692 82.6107 46.5385 83.24C46.2078 83.8587 45.7492 84.3333 45.1625 84.664C44.5865 84.9947 43.9198 85.16 43.1625 85.16C42.4158 85.16 41.7492 84.9947 41.1625 84.664C40.5758 84.3333 40.1172 83.8587 39.7865 83.24C39.4558 82.6107 39.2905 81.864 39.2905 81C39.2905 80.136 39.4558 79.3947 39.7865 78.776C40.1172 78.1467 40.5758 77.6667 41.1625 77.336C41.7492 77.0053 42.4158 76.84 43.1625 76.84ZM43.1625 77.944C42.6185 77.944 42.1545 78.0667 41.7705 78.312C41.3865 78.5573 41.0878 78.9093 40.8745 79.368C40.6718 79.816 40.5705 80.36 40.5705 81C40.5705 81.6293 40.6718 82.1733 40.8745 82.632C41.0878 83.0907 41.3865 83.4427 41.7705 83.688C42.1545 83.9333 42.6185 84.056 43.1625 84.056C43.7065 84.056 44.1705 83.9333 44.5545 83.688C44.9385 83.4427 45.2318 83.0907 45.4345 82.632C45.6478 82.1733 45.7545 81.6293 45.7545 81C45.7545 80.36 45.6478 79.816 45.4345 79.368C45.2318 78.9093 44.9385 78.5573 44.5545 78.312C44.1705 78.0667 43.7065 77.944 43.1625 77.944ZM49.3443 85V77H50.4643L50.5443 78.248C50.8323 77.7573 51.2056 77.4 51.6643 77.176C52.1336 76.952 52.6136 76.84 53.1043 76.84C53.6696 76.84 54.2029 76.968 54.7043 77.224C55.2056 77.48 55.5896 77.8747 55.8563 78.408C56.0269 78.0453 56.2669 77.752 56.5763 77.528C56.8856 77.2933 57.2216 77.1227 57.5843 77.016C57.9576 76.8987 58.3096 76.84 58.6403 76.84C59.1523 76.84 59.6376 76.9467 60.0963 77.16C60.5656 77.3733 60.9496 77.704 61.2483 78.152C61.5469 78.6 61.6963 79.176 61.6963 79.88V85H60.4163V80.008C60.4163 79.2827 60.2349 78.76 59.8723 78.44C59.5096 78.12 59.0616 77.96 58.5283 77.96C58.1123 77.96 57.7229 78.0613 57.3603 78.264C56.9976 78.4667 56.7043 78.7653 56.4803 79.16C56.2669 79.5547 56.1603 80.04 56.1603 80.616V85H54.8803V80.008C54.8803 79.2827 54.6989 78.76 54.3363 78.44C53.9736 78.12 53.5256 77.96 52.9923 77.96C52.6403 77.96 52.2776 78.056 51.9043 78.248C51.5416 78.4293 51.2376 78.7227 50.9923 79.128C50.7469 79.5333 50.6243 80.0667 50.6243 80.728V85H49.3443ZM70.4874 75.464C70.1994 75.464 69.9647 75.3787 69.7834 75.208C69.6127 75.0267 69.5274 74.792 69.5274 74.504C69.5274 74.216 69.6127 73.9867 69.7834 73.816C69.9647 73.6347 70.1994 73.544 70.4874 73.544C70.7754 73.544 71.0047 73.6347 71.1754 73.816C71.3567 73.9867 71.4474 74.216 71.4474 74.504C71.4474 74.792 71.3567 75.0267 71.1754 75.208C71.0047 75.3787 70.7754 75.464 70.4874 75.464ZM71.1274 77V85H69.8474V77H71.1274ZM75.8854 74.728V82.792C75.8854 83.1867 75.9974 83.48 76.2214 83.672C76.4454 83.864 76.7334 83.96 77.0854 83.96C77.3947 83.96 77.6614 83.9067 77.8854 83.8C78.1094 83.6933 78.312 83.5493 78.4934 83.368L78.9414 84.44C78.696 84.664 78.4027 84.84 78.0614 84.968C77.7307 85.096 77.3467 85.16 76.9094 85.16C76.504 85.16 76.1254 85.0907 75.7734 84.952C75.4214 84.8027 75.1387 84.5733 74.9254 84.264C74.7227 83.944 74.616 83.528 74.6054 83.016V75.08L75.8854 74.728ZM78.7974 77V78.104H73.0054V77H78.7974ZM83.4805 85.16C82.7018 85.16 81.9818 84.9947 81.3205 84.664C80.6698 84.3333 80.1685 83.864 79.8165 83.256L80.9045 82.472C81.1392 82.9627 81.4805 83.3467 81.9285 83.624C82.3872 83.9013 82.9365 84.04 83.5765 84.04C84.1418 84.04 84.5845 83.9333 84.9045 83.72C85.2245 83.496 85.3845 83.208 85.3845 82.856C85.3845 82.632 85.3098 82.4293 85.1605 82.248C85.0218 82.056 84.7498 81.9173 84.3445 81.832L82.4245 81.432C81.6458 81.272 81.0858 81.0053 80.7445 80.632C80.4138 80.2587 80.2485 79.7947 80.2485 79.24C80.2485 78.8027 80.3712 78.4027 80.6165 78.04C80.8725 77.6773 81.2298 77.3893 81.6885 77.176C82.1578 76.952 82.7072 76.84 83.3365 76.84C84.1258 76.84 84.7925 76.9947 85.3365 77.304C85.8805 77.6133 86.2858 78.0507 86.5525 78.616L85.4805 79.32C85.2992 78.8507 85.0058 78.5093 84.6005 78.296C84.1952 78.072 83.7738 77.96 83.3365 77.96C82.9525 77.96 82.6218 78.0133 82.3445 78.12C82.0778 78.2267 81.8698 78.376 81.7205 78.568C81.5818 78.7493 81.5125 78.9573 81.5125 79.192C81.5125 79.4267 81.5925 79.6453 81.7525 79.848C81.9125 80.04 82.2112 80.1787 82.6485 80.264L84.6485 80.68C85.3952 80.8293 85.9178 81.0747 86.2165 81.416C86.5152 81.7573 86.6645 82.1733 86.6645 82.664C86.6645 83.1653 86.5312 83.608 86.2645 83.992C85.9978 84.3653 85.6245 84.6533 85.1445 84.856C84.6645 85.0587 84.1098 85.16 83.4805 85.16ZM94.2911 88.36V77H95.4111L95.5231 78.952L95.3471 78.728C95.4858 78.3547 95.6938 78.0293 95.9711 77.752C96.2485 77.464 96.5845 77.24 96.9791 77.08C97.3738 76.92 97.8005 76.84 98.2591 76.84C98.9098 76.84 99.5071 77.0053 100.051 77.336C100.606 77.6667 101.048 78.1413 101.379 78.76C101.71 79.3787 101.875 80.1253 101.875 81C101.875 81.864 101.704 82.6107 101.363 83.24C101.032 83.8587 100.59 84.3333 100.035 84.664C99.4805 84.9947 98.8725 85.16 98.2111 85.16C97.5498 85.16 96.9685 85 96.4671 84.68C95.9765 84.3493 95.6245 83.9333 95.4111 83.432L95.5711 83.192V88.36H94.2911ZM98.0831 84.04C98.8725 84.04 99.4858 83.7627 99.9231 83.208C100.371 82.6533 100.595 81.9173 100.595 81C100.595 80.0827 100.376 79.3467 99.9391 78.792C99.5125 78.2373 98.9098 77.96 98.1311 77.96C97.6191 77.96 97.1711 78.088 96.7871 78.344C96.4031 78.5893 96.1045 78.9413 95.8911 79.4C95.6778 79.848 95.5711 80.3813 95.5711 81C95.5711 81.608 95.6725 82.1413 95.8751 82.6C96.0885 83.0587 96.3818 83.416 96.7551 83.672C97.1391 83.9173 97.5818 84.04 98.0831 84.04ZM104.222 85V77H105.262L105.438 78.312C105.662 77.8213 105.988 77.4533 106.414 77.208C106.852 76.9627 107.38 76.84 107.998 76.84C108.137 76.84 108.286 76.8507 108.446 76.872C108.617 76.8933 108.761 76.936 108.878 77L108.654 78.168C108.537 78.1253 108.409 78.0933 108.27 78.072C108.132 78.0507 107.934 78.04 107.678 78.04C107.348 78.04 107.012 78.136 106.67 78.328C106.34 78.52 106.062 78.8133 105.838 79.208C105.614 79.592 105.502 80.0827 105.502 80.68V85H104.222ZM113.748 85.16C112.99 85.16 112.313 84.9947 111.716 84.664C111.129 84.3333 110.67 83.8587 110.34 83.24C110.009 82.6107 109.844 81.864 109.844 81C109.844 80.136 110.009 79.3947 110.34 78.776C110.67 78.1467 111.124 77.6667 111.7 77.336C112.276 77.0053 112.932 76.84 113.668 76.84C114.414 76.84 115.049 77 115.572 77.32C116.105 77.64 116.51 78.0773 116.788 78.632C117.065 79.176 117.204 79.7893 117.204 80.472C117.204 80.6533 117.198 80.8187 117.188 80.968C117.177 81.1173 117.161 81.2507 117.14 81.368H110.676V80.232H116.58L115.924 80.36C115.924 79.592 115.71 79 115.284 78.584C114.868 78.168 114.318 77.96 113.636 77.96C113.113 77.96 112.66 78.0827 112.276 78.328C111.902 78.5627 111.609 78.9093 111.396 79.368C111.193 79.816 111.092 80.36 111.092 81C111.092 81.6293 111.198 82.1733 111.412 82.632C111.625 83.0907 111.924 83.4427 112.308 83.688C112.702 83.9227 113.172 84.04 113.716 84.04C114.302 84.04 114.777 83.928 115.14 83.704C115.513 83.48 115.812 83.176 116.036 82.792L117.044 83.384C116.841 83.7467 116.58 84.0613 116.26 84.328C115.95 84.5947 115.582 84.8027 115.156 84.952C114.74 85.0907 114.27 85.16 113.748 85.16ZM122.658 85.16C121.997 85.16 121.389 84.9947 120.834 84.664C120.279 84.3333 119.837 83.8587 119.506 83.24C119.175 82.6107 119.01 81.864 119.01 81C119.01 80.1147 119.186 79.3627 119.538 78.744C119.89 78.1253 120.354 77.656 120.93 77.336C121.506 77.0053 122.125 76.84 122.786 76.84C123.447 76.84 124.018 77.0107 124.498 77.352C124.989 77.6933 125.314 78.1467 125.474 78.712L125.314 78.824V73.32H126.594V85H125.474L125.362 83.064L125.538 82.968C125.463 83.4373 125.282 83.8373 124.994 84.168C124.717 84.488 124.37 84.7333 123.954 84.904C123.549 85.0747 123.117 85.16 122.658 85.16ZM122.786 84.04C123.298 84.04 123.741 83.912 124.114 83.656C124.498 83.4 124.791 83.0373 124.994 82.568C125.207 82.088 125.314 81.528 125.314 80.888C125.314 80.28 125.207 79.7573 124.994 79.32C124.791 78.8827 124.503 78.5467 124.13 78.312C123.767 78.0773 123.341 77.96 122.85 77.96C122.039 77.96 121.41 78.2373 120.962 78.792C120.514 79.3467 120.29 80.0827 120.29 81C120.29 81.9173 120.509 82.6533 120.946 83.208C121.383 83.7627 121.997 84.04 122.786 84.04ZM130.109 75.464C129.821 75.464 129.587 75.3787 129.405 75.208C129.235 75.0267 129.149 74.792 129.149 74.504C129.149 74.216 129.235 73.9867 129.405 73.816C129.587 73.6347 129.821 73.544 130.109 73.544C130.397 73.544 130.627 73.6347 130.797 73.816C130.979 73.9867 131.069 74.216 131.069 74.504C131.069 74.792 130.979 75.0267 130.797 75.208C130.627 75.3787 130.397 75.464 130.109 75.464ZM130.749 77V85H129.469V77H130.749ZM136.931 76.84C137.486 76.84 137.971 76.9253 138.387 77.096C138.814 77.2667 139.182 77.512 139.491 77.832C139.801 78.152 140.051 78.5307 140.243 78.968L139.027 79.544C138.857 79.032 138.595 78.6427 138.243 78.376C137.902 78.0987 137.454 77.96 136.899 77.96C136.366 77.96 135.907 78.0827 135.523 78.328C135.139 78.5627 134.846 78.9093 134.643 79.368C134.441 79.816 134.339 80.36 134.339 81C134.339 81.6293 134.441 82.1733 134.643 82.632C134.846 83.0907 135.139 83.4427 135.523 83.688C135.907 83.9227 136.366 84.04 136.899 84.04C137.315 84.04 137.673 83.976 137.971 83.848C138.281 83.72 138.531 83.5333 138.723 83.288C138.926 83.0427 139.065 82.744 139.139 82.392L140.323 82.808C140.142 83.2987 139.891 83.72 139.571 84.072C139.262 84.424 138.883 84.696 138.435 84.888C137.998 85.0693 137.497 85.16 136.931 85.16C136.185 85.16 135.518 84.9947 134.931 84.664C134.345 84.3333 133.886 83.8587 133.555 83.24C133.225 82.6107 133.059 81.864 133.059 81C133.059 80.136 133.225 79.3947 133.555 78.776C133.886 78.1467 134.345 77.6667 134.931 77.336C135.518 77.0053 136.185 76.84 136.931 76.84ZM144.36 74.728V82.792C144.36 83.1867 144.472 83.48 144.696 83.672C144.92 83.864 145.208 83.96 145.56 83.96C145.87 83.96 146.136 83.9067 146.36 83.8C146.584 83.6933 146.787 83.5493 146.968 83.368L147.416 84.44C147.171 84.664 146.878 84.84 146.536 84.968C146.206 85.096 145.822 85.16 145.384 85.16C144.979 85.16 144.6 85.0907 144.248 84.952C143.896 84.8027 143.614 84.5733 143.4 84.264C143.198 83.944 143.091 83.528 143.08 83.016V75.08L144.36 74.728ZM147.272 77V78.104H141.48V77H147.272ZM152.42 85.16C151.662 85.16 150.985 84.9947 150.388 84.664C149.801 84.3333 149.342 83.8587 149.012 83.24C148.681 82.6107 148.516 81.864 148.516 81C148.516 80.136 148.681 79.3947 149.012 78.776C149.342 78.1467 149.796 77.6667 150.372 77.336C150.948 77.0053 151.604 76.84 152.34 76.84C153.086 76.84 153.721 77 154.244 77.32C154.777 77.64 155.182 78.0773 155.46 78.632C155.737 79.176 155.876 79.7893 155.876 80.472C155.876 80.6533 155.87 80.8187 155.86 80.968C155.849 81.1173 155.833 81.2507 155.812 81.368H149.348V80.232H155.252L154.596 80.36C154.596 79.592 154.382 79 153.956 78.584C153.54 78.168 152.99 77.96 152.308 77.96C151.785 77.96 151.332 78.0827 150.948 78.328C150.574 78.5627 150.281 78.9093 150.068 79.368C149.865 79.816 149.764 80.36 149.764 81C149.764 81.6293 149.87 82.1733 150.084 82.632C150.297 83.0907 150.596 83.4427 150.98 83.688C151.374 83.9227 151.844 84.04 152.388 84.04C152.974 84.04 153.449 83.928 153.812 83.704C154.185 83.48 154.484 83.176 154.708 82.792L155.716 83.384C155.513 83.7467 155.252 84.0613 154.932 84.328C154.622 84.5947 154.254 84.8027 153.828 84.952C153.412 85.0907 152.942 85.16 152.42 85.16ZM161.33 85.16C160.669 85.16 160.061 84.9947 159.506 84.664C158.951 84.3333 158.509 83.8587 158.178 83.24C157.847 82.6107 157.682 81.864 157.682 81C157.682 80.1147 157.858 79.3627 158.21 78.744C158.562 78.1253 159.026 77.656 159.602 77.336C160.178 77.0053 160.797 76.84 161.458 76.84C162.119 76.84 162.69 77.0107 163.17 77.352C163.661 77.6933 163.986 78.1467 164.146 78.712L163.986 78.824V73.32H165.266V85H164.146L164.034 83.064L164.21 82.968C164.135 83.4373 163.954 83.8373 163.666 84.168C163.389 84.488 163.042 84.7333 162.626 84.904C162.221 85.0747 161.789 85.16 161.33 85.16ZM161.458 84.04C161.97 84.04 162.413 83.912 162.786 83.656C163.17 83.4 163.463 83.0373 163.666 82.568C163.879 82.088 163.986 81.528 163.986 80.888C163.986 80.28 163.879 79.7573 163.666 79.32C163.463 78.8827 163.175 78.5467 162.802 78.312C162.439 78.0773 162.013 77.96 161.522 77.96C160.711 77.96 160.082 78.2373 159.634 78.792C159.186 79.3467 158.962 80.0827 158.962 81C158.962 81.9173 159.181 82.6533 159.618 83.208C160.055 83.7627 160.669 84.04 161.458 84.04ZM177.414 85.16C176.966 85.16 176.55 85.08 176.166 84.92C175.782 84.76 175.452 84.536 175.174 84.248C174.897 83.96 174.689 83.6347 174.55 83.272L174.726 83.048L174.614 85H173.494V73.32H174.774V78.808L174.614 78.568C174.828 78.0667 175.185 77.656 175.686 77.336C176.198 77.0053 176.78 76.84 177.43 76.84C178.092 76.84 178.7 77.0053 179.254 77.336C179.809 77.6667 180.252 78.1413 180.582 78.76C180.913 79.3787 181.078 80.1253 181.078 81C181.078 81.864 180.908 82.6107 180.566 83.24C180.236 83.8587 179.793 84.3333 179.238 84.664C178.684 84.9947 178.076 85.16 177.414 85.16ZM177.286 84.04C178.076 84.04 178.689 83.7627 179.126 83.208C179.574 82.6533 179.798 81.9173 179.798 81C179.798 80.0827 179.58 79.3467 179.142 78.792C178.705 78.2373 178.092 77.96 177.302 77.96C176.801 77.96 176.358 78.088 175.974 78.344C175.601 78.6 175.308 78.9573 175.094 79.416C174.881 79.8747 174.774 80.4133 174.774 81.032C174.774 81.64 174.876 82.1733 175.078 82.632C175.292 83.08 175.585 83.4267 175.958 83.672C176.342 83.9173 176.785 84.04 177.286 84.04ZM186.77 85.16C186.012 85.16 185.335 84.9947 184.738 84.664C184.151 84.3333 183.692 83.8587 183.362 83.24C183.031 82.6107 182.866 81.864 182.866 81C182.866 80.136 183.031 79.3947 183.362 78.776C183.692 78.1467 184.146 77.6667 184.722 77.336C185.298 77.0053 185.954 76.84 186.69 76.84C187.436 76.84 188.071 77 188.594 77.32C189.127 77.64 189.532 78.0773 189.81 78.632C190.087 79.176 190.226 79.7893 190.226 80.472C190.226 80.6533 190.22 80.8187 190.21 80.968C190.199 81.1173 190.183 81.2507 190.161 81.368H183.698V80.232H189.602L188.946 80.36C188.946 79.592 188.732 79 188.306 78.584C187.89 78.168 187.34 77.96 186.658 77.96C186.135 77.96 185.682 78.0827 185.298 78.328C184.924 78.5627 184.631 78.9093 184.418 79.368C184.215 79.816 184.114 80.36 184.114 81C184.114 81.6293 184.22 82.1733 184.434 82.632C184.647 83.0907 184.946 83.4427 185.33 83.688C185.724 83.9227 186.194 84.04 186.738 84.04C187.324 84.04 187.799 83.928 188.162 83.704C188.535 83.48 188.834 83.176 189.058 82.792L190.066 83.384C189.863 83.7467 189.602 84.0613 189.282 84.328C188.972 84.5947 188.604 84.8027 188.178 84.952C187.762 85.0907 187.292 85.16 186.77 85.16ZM192.56 85V73.32H193.84V78.2C194.117 77.72 194.485 77.3733 194.944 77.16C195.403 76.9467 195.904 76.84 196.448 76.84C197.024 76.84 197.547 76.952 198.016 77.176C198.485 77.3893 198.859 77.72 199.136 78.168C199.424 78.616 199.568 79.1867 199.568 79.88V85H198.288V80.328C198.288 79.4427 198.096 78.8293 197.712 78.488C197.339 78.136 196.875 77.96 196.32 77.96C195.936 77.96 195.552 78.0507 195.168 78.232C194.784 78.4133 194.464 78.712 194.208 79.128C193.963 79.5333 193.84 80.0773 193.84 80.76V85H192.56ZM207.038 79.832C207.038 79.2347 206.878 78.776 206.558 78.456C206.238 78.1253 205.785 77.96 205.198 77.96C204.643 77.96 204.174 78.0827 203.79 78.328C203.406 78.5627 203.123 78.9467 202.942 79.48L201.902 78.84C202.115 78.2427 202.51 77.7627 203.086 77.4C203.662 77.0267 204.377 76.84 205.23 76.84C205.806 76.84 206.329 76.9413 206.798 77.144C207.267 77.336 207.635 77.6347 207.902 78.04C208.179 78.4347 208.318 78.9467 208.318 79.576V83.448C208.318 83.832 208.521 84.024 208.926 84.024C209.129 84.024 209.326 83.9973 209.518 83.944L209.454 84.952C209.241 85.0587 208.963 85.112 208.622 85.112C208.313 85.112 208.035 85.0533 207.79 84.936C207.545 84.8187 207.353 84.6427 207.214 84.408C207.075 84.1627 207.006 83.8587 207.006 83.496V83.336L207.326 83.384C207.198 83.8 206.979 84.1413 206.67 84.408C206.361 84.664 206.014 84.856 205.63 84.984C205.246 85.1013 204.867 85.16 204.494 85.16C204.025 85.16 203.587 85.08 203.182 84.92C202.777 84.76 202.451 84.52 202.206 84.2C201.971 83.8693 201.854 83.464 201.854 82.984C201.854 82.3867 202.051 81.896 202.446 81.512C202.851 81.1173 203.411 80.8507 204.126 80.712L207.294 80.088V81.144L204.718 81.672C204.195 81.7787 203.806 81.928 203.55 82.12C203.294 82.312 203.166 82.5787 203.166 82.92C203.166 83.2507 203.294 83.5227 203.55 83.736C203.817 83.9387 204.19 84.04 204.67 84.04C204.979 84.04 205.273 84.0027 205.55 83.928C205.838 83.8427 206.094 83.72 206.318 83.56C206.542 83.3893 206.718 83.1813 206.846 82.936C206.974 82.68 207.038 82.3813 207.038 82.04V79.832ZM216.359 77H217.703L214.375 85H213.095L209.767 77H211.223L213.751 83.704L216.359 77ZM219.916 75.464C219.628 75.464 219.393 75.3787 219.212 75.208C219.041 75.0267 218.956 74.792 218.956 74.504C218.956 74.216 219.041 73.9867 219.212 73.816C219.393 73.6347 219.628 73.544 219.916 73.544C220.204 73.544 220.433 73.6347 220.604 73.816C220.785 73.9867 220.876 74.216 220.876 74.504C220.876 74.792 220.785 75.0267 220.604 75.208C220.433 75.3787 220.204 75.464 219.916 75.464ZM220.556 77V85H219.276V77H220.556ZM226.738 76.84C227.495 76.84 228.162 77.0053 228.738 77.336C229.324 77.6667 229.783 78.1467 230.114 78.776C230.444 79.3947 230.61 80.136 230.61 81C230.61 81.864 230.444 82.6107 230.114 83.24C229.783 83.8587 229.324 84.3333 228.738 84.664C228.162 84.9947 227.495 85.16 226.738 85.16C225.991 85.16 225.324 84.9947 224.738 84.664C224.151 84.3333 223.692 83.8587 223.362 83.24C223.031 82.6107 222.866 81.864 222.866 81C222.866 80.136 223.031 79.3947 223.362 78.776C223.692 78.1467 224.151 77.6667 224.738 77.336C225.324 77.0053 225.991 76.84 226.738 76.84ZM226.738 77.944C226.194 77.944 225.73 78.0667 225.346 78.312C224.962 78.5573 224.663 78.9093 224.45 79.368C224.247 79.816 224.146 80.36 224.146 81C224.146 81.6293 224.247 82.1733 224.45 82.632C224.663 83.0907 224.962 83.4427 225.346 83.688C225.73 83.9333 226.194 84.056 226.738 84.056C227.282 84.056 227.746 83.9333 228.13 83.688C228.514 83.4427 228.807 83.0907 229.01 82.632C229.223 82.1733 229.33 81.6293 229.33 81C229.33 80.36 229.223 79.816 229.01 79.368C228.807 78.9093 228.514 78.5573 228.13 78.312C227.746 78.0667 227.282 77.944 226.738 77.944ZM235.815 85.16C235.303 85.16 234.818 85.064 234.359 84.872C233.911 84.68 233.543 84.3707 233.255 83.944C232.978 83.5067 232.839 82.9413 232.839 82.248V77H234.119V81.912C234.119 82.7227 234.295 83.2827 234.647 83.592C234.999 83.8907 235.495 84.04 236.135 84.04C236.434 84.04 236.727 83.992 237.015 83.896C237.303 83.7893 237.559 83.6293 237.783 83.416C238.018 83.192 238.199 82.9093 238.327 82.568C238.466 82.2267 238.535 81.8213 238.535 81.352V77H239.815V85H238.695L238.615 83.784C238.338 84.264 237.959 84.616 237.479 84.84C237.01 85.0533 236.455 85.16 235.815 85.16ZM242.694 85V77H243.734L243.91 78.312C244.134 77.8213 244.46 77.4533 244.886 77.208C245.324 76.9627 245.852 76.84 246.47 76.84C246.609 76.84 246.758 76.8507 246.918 76.872C247.089 76.8933 247.233 76.936 247.35 77L247.126 78.168C247.009 78.1253 246.881 78.0933 246.742 78.072C246.604 78.0507 246.406 78.04 246.15 78.04C245.82 78.04 245.484 78.136 245.142 78.328C244.812 78.52 244.534 78.8133 244.31 79.208C244.086 79.592 243.974 80.0827 243.974 80.68V85H242.694Z" fill="#EFF0F2"/>
<path d="M33.7313 113.08V114.676H31.1513V121H29.0873V114.676H26.4953V113.08H33.7313ZM43.7352 113.08V117.772C43.7352 118.892 43.4352 119.732 42.8352 120.292C42.2432 120.844 41.3632 121.12 40.1952 121.12C39.0352 121.12 38.1552 120.844 37.5552 120.292C36.9552 119.732 36.6552 118.892 36.6552 117.772V113.08H38.7312V117.808C38.7312 118.376 38.8512 118.8 39.0912 119.08C39.3392 119.36 39.7072 119.5 40.1952 119.5C40.6912 119.5 41.0592 119.36 41.2992 119.08C41.5472 118.8 41.6712 118.376 41.6712 117.808V113.08H43.7352ZM51.0107 113.08C51.9547 113.08 52.6867 113.304 53.2067 113.752C53.7347 114.192 53.9987 114.78 53.9987 115.516C53.9987 116.324 53.7387 116.94 53.2187 117.364C52.6987 117.788 51.9667 118 51.0227 118L50.8307 118.108H49.2587V121H47.2307V113.08H51.0107ZM50.7227 116.644C51.1227 116.644 51.4227 116.564 51.6227 116.404C51.8227 116.244 51.9227 115.988 51.9227 115.636C51.9227 115.292 51.8227 115.04 51.6227 114.88C51.4227 114.72 51.1227 114.64 50.7227 114.64H49.2587V116.644H50.7227ZM51.9347 117.076L54.4667 121H52.1867L50.1587 117.532L51.9347 117.076ZM57.4041 121V113.08H61.2561C62.2321 113.088 62.9521 113.276 63.4161 113.644C63.8801 114.004 64.1121 114.528 64.1121 115.216C64.1121 115.664 63.9801 116.052 63.7161 116.38C63.4521 116.7 63.0481 116.904 62.5041 116.992V117.004C63.1121 117.084 63.5641 117.296 63.8601 117.64C64.1641 117.976 64.3161 118.384 64.3161 118.864C64.3161 119.544 64.0761 120.072 63.5961 120.448C63.1161 120.816 62.3961 121 61.4361 121H57.4041ZM59.3961 119.548H61.0881C61.4641 119.548 61.7441 119.472 61.9281 119.32C62.1121 119.168 62.2041 118.948 62.2041 118.66C62.2041 118.38 62.1121 118.168 61.9281 118.024C61.7441 117.872 61.4641 117.796 61.0881 117.796H59.3961V119.548ZM59.3961 116.32H60.8961C61.6321 116.32 62.0001 116.032 62.0001 115.456C62.0001 114.88 61.6321 114.592 60.8961 114.592H59.3961V116.32ZM69.5712 113.08V121H67.5072V113.08H69.5712ZM80.3676 113.08V121H78.0756L75.6156 116.716L75.0156 115.54H75.0036L75.0516 117.004V121H73.2276V113.08H75.5196L77.9796 117.364L78.5796 118.54H78.5916L78.5436 117.076V113.08H80.3676ZM84.0221 121V113.08H90.1901V114.676H86.0861V116.284H89.3501V117.784H86.0861V119.404H90.3461V121H84.0221ZM100.89 113.08V121H98.826V113.08H100.89ZM107.906 113.08C109.146 113.08 110.094 113.424 110.75 114.112C111.414 114.8 111.746 115.776 111.746 117.04C111.746 118.304 111.414 119.28 110.75 119.968C110.094 120.656 109.146 121 107.906 121H104.546V113.08H107.906ZM107.702 119.44C108.374 119.44 108.862 119.24 109.166 118.84C109.478 118.432 109.634 117.832 109.634 117.04C109.634 116.248 109.478 115.652 109.166 115.252C108.862 114.844 108.374 114.64 107.702 114.64H106.61V119.44H107.702ZM115.996 114.88C116.372 114.88 116.664 114.976 116.872 115.168C117.088 115.36 117.196 115.628 117.196 115.972C117.196 116.308 117.088 116.572 116.872 116.764C116.664 116.956 116.372 117.052 115.996 117.052C115.628 117.052 115.336 116.956 115.12 116.764C114.904 116.572 114.796 116.308 114.796 115.972C114.796 115.628 114.904 115.36 115.12 115.168C115.336 114.976 115.628 114.88 115.996 114.88ZM115.996 118.936C116.372 118.936 116.664 119.032 116.872 119.224C117.088 119.416 117.196 119.684 117.196 120.028C117.196 120.364 117.088 120.628 116.872 120.82C116.664 121.012 116.372 121.108 115.996 121.108C115.628 121.108 115.336 121.012 115.12 120.82C114.904 120.628 114.796 120.364 114.796 120.028C114.796 119.684 114.904 119.416 115.12 119.224C115.336 119.032 115.628 118.936 115.996 118.936Z" fill="#BAC0CF"/>
<path d="M34.2703 133.76V134.81H31.0503V143H29.9303V134.81H26.7103V133.76H34.2703ZM35.6475 143V142.09C36.5715 141.409 37.3415 140.811 37.9575 140.298C38.5829 139.785 39.0822 139.318 39.4555 138.898C39.8289 138.478 40.0949 138.081 40.2535 137.708C40.4122 137.325 40.4915 136.929 40.4915 136.518C40.4915 135.967 40.3142 135.524 39.9595 135.188C39.6142 134.843 39.1382 134.67 38.5315 134.67C37.8969 134.67 37.3882 134.88 37.0055 135.3C36.6229 135.711 36.3989 136.261 36.3335 136.952L35.3535 136.364C35.4375 135.823 35.6102 135.347 35.8715 134.936C36.1422 134.525 36.5015 134.203 36.9495 133.97C37.4069 133.737 37.9482 133.62 38.5735 133.62C39.0495 133.62 39.4742 133.69 39.8475 133.83C40.2302 133.97 40.5569 134.171 40.8275 134.432C41.0982 134.684 41.3035 134.987 41.4435 135.342C41.5929 135.697 41.6675 136.089 41.6675 136.518C41.6675 137.097 41.5275 137.666 41.2475 138.226C40.9675 138.777 40.5055 139.355 39.8615 139.962C39.2175 140.569 38.3449 141.241 37.2435 141.978V141.992C37.3462 141.983 37.4862 141.978 37.6635 141.978C37.8502 141.969 38.0322 141.964 38.2095 141.964C38.3962 141.955 38.5362 141.95 38.6295 141.95H41.8635V143H35.6475ZM47.0276 143.14C45.9823 143.14 45.147 142.734 44.5216 141.922C43.8963 141.11 43.5836 139.929 43.5836 138.38C43.5836 136.831 43.8963 135.65 44.5216 134.838C45.147 134.026 45.9823 133.62 47.0276 133.62C48.0823 133.62 48.9176 134.026 49.5336 134.838C50.159 135.65 50.4716 136.831 50.4716 138.38C50.4716 139.929 50.159 141.11 49.5336 141.922C48.9176 142.734 48.0823 143.14 47.0276 143.14ZM47.0276 142.132C47.5223 142.132 47.9376 141.992 48.2736 141.712C48.619 141.423 48.8756 140.998 49.0436 140.438C49.221 139.878 49.3096 139.192 49.3096 138.38C49.3096 137.568 49.221 136.882 49.0436 136.322C48.8756 135.762 48.619 135.342 48.2736 135.062C47.9376 134.773 47.5223 134.628 47.0276 134.628C46.533 134.628 46.113 134.773 45.7676 135.062C45.4316 135.342 45.175 135.762 44.9976 136.322C44.8296 136.882 44.7456 137.568 44.7456 138.38C44.7456 139.192 44.8296 139.878 44.9976 140.438C45.175 140.998 45.4316 141.423 45.7676 141.712C46.113 141.992 46.533 142.132 47.0276 142.132ZM54.1946 143V136.224C54.1946 136.065 54.1946 135.897 54.1946 135.72C54.204 135.533 54.2133 135.342 54.2226 135.146C53.9053 135.454 53.5366 135.725 53.1166 135.958C52.6966 136.182 52.2673 136.345 51.8286 136.448L51.5346 135.426C51.7026 135.407 51.9126 135.347 52.1646 135.244C52.426 135.132 52.6966 134.997 52.9766 134.838C53.266 134.67 53.532 134.493 53.7746 134.306C54.0173 134.119 54.204 133.937 54.3346 133.76H55.3146V143H54.1946Z" fill="white"/>
</svg>
