<svg width="112" height="56" viewBox="0 0 112 56" fill="none" xmlns="http://www.w3.org/2000/svg">
<path d="M95.9998 15.2686C93.8616 15.2686 93.1764 14.1547 93.1764 12.1843C93.1764 10.298 93.8611 9.10001 95.9998 9.10001H109.176C111.314 9.10001 112 10.2996 112 12.1843C112 14.0691 111.315 15.2686 109.177 15.2686H105.925V32.4909C105.925 34.8043 104.642 35.8326 102.588 35.8326C100.534 35.8326 99.2509 34.89 99.2509 32.4909V15.2686H95.9998Z" fill="#00AEC7"/>
<path d="M64.6846 15.8687C64.6846 13.8121 65.797 13.127 67.5935 13.127C69.3901 13.127 70.5025 13.8126 70.5025 15.9543V26.3217C70.5025 29.5778 71.7859 31.12 74.0106 31.12C76.3209 31.12 77.5188 29.5778 77.5188 26.3217V14.5835C77.5188 12.5269 78.6311 11.7561 80.4277 11.7561C82.2243 11.7561 83.3367 12.4418 83.3367 14.5835V26.0648C83.3367 32.0626 80.7698 36.0896 74.0962 36.0896C67.4225 36.0896 64.8556 32.0621 64.8556 26.0648L64.6846 15.8687Z" fill="#00AEC7"/>
<path d="M84.8772 32.577C84.8772 34.5474 85.5624 35.6613 87.7006 35.6613L95.399 35.5752C97.3667 35.5752 98.0514 34.5469 98.0514 32.7478C98.0514 31.0343 97.3672 29.9204 95.399 29.9204H91.1227V13.2982C91.1227 11.0709 90.0103 10.2996 88.0427 10.2996C86.0751 10.2996 84.8772 11.0704 84.8772 13.2982V32.577Z" fill="#00AEC7"/>
<path fill-rule="evenodd" clip-rule="evenodd" d="M48.6844 33.0909C48.6844 35.0618 49.7112 35.747 51.4223 35.747C53.1333 35.747 54.1601 35.0613 54.1601 33.0909V29.8332H56.2138C61.433 29.8332 63.7433 26.8346 63.7433 22.6358C63.7433 18.4371 61.433 15.3548 55.0159 15.3548H51.3367C49.3686 15.3548 48.6844 16.3831 48.6844 18.1822V33.0909ZM53.9891 25.6365V19.7228H54.8444C57.7533 19.7228 58.0959 21.3506 58.0959 22.7215C58.0959 24.178 57.6683 25.6345 54.8444 25.6345L53.9891 25.6365Z" fill="#00AEC7"/>
<path d="M21.7326 21.8665C21.7326 23.0661 22.1617 23.8374 23.6162 23.8374L25.4103 23.9226V33.7761C25.4103 35.4034 26.266 35.9172 27.7205 35.9172C29.175 35.9172 30.0308 35.4039 30.0308 33.7761V23.9231H31.8289C33.1993 23.9231 33.7125 23.1517 33.7125 21.8665C33.7125 20.5813 33.2833 19.81 31.8289 19.81H23.6162C22.2458 19.81 21.7326 20.5813 21.7326 21.8665Z" fill="#00AEC7"/>
<path fill-rule="evenodd" clip-rule="evenodd" d="M36.9626 32.1483H42.1817L42.6094 33.5191C43.037 35.3182 44.0639 35.747 45.4328 35.747C47.2294 35.747 48.3418 34.7187 47.8286 32.8339C47.4009 31.1205 43.8068 20.5813 43.8068 20.5813C42.8655 17.7539 42.0102 17.0682 39.7849 17.0682C37.5597 17.0682 36.7905 17.7539 35.7631 20.5813C35.7631 20.5813 31.9129 31.0323 31.4868 32.8339C30.9736 34.8049 31.9144 35.747 33.7115 35.747C35.166 35.747 35.9362 35.2331 36.5349 33.4335L36.9626 32.1483ZM37.8183 27.95L39.702 21.267L41.3275 27.95H37.8183Z" fill="#00AEC7"/>
<path fill-rule="evenodd" clip-rule="evenodd" d="M19.8515 32.9191H15.6591L15.4015 33.9479C14.8879 35.3187 14.2892 35.747 13.1768 35.747C11.7223 35.747 10.9526 34.9756 11.3802 33.4335C11.8084 32.0611 14.6318 23.7513 14.6318 23.7513C15.4015 21.5234 16.0012 21.0095 17.7973 21.0095C19.5934 21.0095 20.19 21.6091 20.9649 23.7508C20.9649 23.7508 23.9599 32.1478 24.3875 33.5186C24.8141 35.0608 23.8728 35.8321 22.5039 35.8321C21.306 35.8321 20.5357 35.4039 20.1936 34.033L19.8515 32.9191ZM17.6273 24.2652L16.3439 29.5773H19.0817L17.6273 24.2652Z" fill="#00AEC7"/>
<path d="M6.07498 32.4909C6.73378 32.471 7.36669 32.2295 7.87156 31.8052C8.02454 31.6611 8.20583 31.5506 8.40387 31.4807C8.6019 31.4108 8.81232 31.383 9.02168 31.3991C9.23104 31.4152 9.43475 31.4749 9.61978 31.5743C9.80481 31.6737 9.9671 31.8107 10.0963 31.9765C10.2641 32.1396 10.3959 32.3361 10.4832 32.5534C10.5706 32.7706 10.6115 33.0038 10.6035 33.2378C10.5954 33.4719 10.5385 33.7017 10.4364 33.9124C10.3344 34.1231 10.1894 34.31 10.0108 34.4612C9.46291 34.9783 8.81777 35.381 8.11296 35.6458C7.40814 35.9107 6.65773 36.0324 5.90546 36.0039C2.48284 36.0039 0 33.3478 0 29.4922C0 25.5509 2.73789 22.9805 6.07498 22.9805C6.80809 22.9462 7.54072 23.0573 8.23088 23.3072C8.92103 23.5572 9.55513 23.9411 10.0968 24.437C10.2601 24.5679 10.3949 24.731 10.4926 24.9162C10.5904 25.1015 10.6491 25.3048 10.6652 25.5137C10.6812 25.7226 10.6542 25.9326 10.5859 26.1306C10.5175 26.3286 10.4093 26.5104 10.2679 26.6648C10.1667 26.8566 10.0254 27.0243 9.85373 27.1566C9.68204 27.2888 9.48392 27.3825 9.27286 27.4313C9.06179 27.48 8.84271 27.4827 8.63052 27.4391C8.41832 27.3955 8.21799 27.3067 8.04313 27.1787C7.52504 26.6451 6.818 26.3372 6.07498 26.3217C4.53498 26.3217 3.59367 27.6926 3.59367 29.4917C3.6792 31.2908 4.70604 32.4909 6.07498 32.4909Z" fill="#00AEC7"/>
<path d="M13.4067 43.5302C13.4067 43.8998 13.6377 44.1462 13.9611 44.1462C14.2845 44.1462 14.5155 43.8998 14.5155 43.5302V40.9738H14.862C15.0188 40.9738 15.1556 40.9413 15.255 40.8683C15.337 40.9366 15.4486 40.9738 15.5834 40.9738H15.8298V43.5302C15.8298 43.8998 16.0608 44.1462 16.3842 44.1462C16.7076 44.1462 16.9386 43.8998 16.9386 43.5302V40.9738H17.2851C17.6085 40.9738 17.8472 40.8352 17.8472 40.4887C17.8472 40.1345 17.6162 40.0036 17.2851 40.0036H16.9386V39.5493C16.9386 39.1412 17.1234 39.1412 17.3082 39.1412C17.6162 39.1412 17.7625 38.9949 17.7625 38.6715C17.7625 38.2865 17.3852 38.171 16.9925 38.171C16.3149 38.171 15.8298 38.6176 15.8298 39.4338V40.0036H15.5834C15.4607 40.0036 15.3515 40.0444 15.268 40.1139C15.1688 40.0365 15.028 40.0036 14.862 40.0036H14.5155V39.5493C14.5155 39.1412 14.7003 39.1412 14.8851 39.1412C15.1931 39.1412 15.3394 38.9949 15.3394 38.6715C15.3394 38.2865 14.9621 38.171 14.5694 38.171C13.8918 38.171 13.4067 38.6176 13.4067 39.4338V40.0036H13.1603C12.8831 40.0036 12.6752 40.2115 12.6752 40.4887C12.6752 40.789 12.86 40.9738 13.1603 40.9738H13.4067V43.5302Z" fill="#00AEC7"/>
<path fill-rule="evenodd" clip-rule="evenodd" d="M9.77971 44.1924C11.3582 44.1924 12.4285 42.9527 12.4285 41.3588C12.4285 39.7957 11.3274 38.5252 9.77971 38.5252C8.20891 38.5252 7.13091 39.7572 7.13091 41.3588C7.13091 42.9527 8.21661 44.1924 9.77971 44.1924ZM9.77971 43.1298C8.80181 43.1298 8.33211 42.2982 8.33211 41.3588C8.33211 40.4271 8.81721 39.5878 9.77971 39.5878C10.7422 39.5878 11.2273 40.4271 11.2273 41.3588C11.2273 42.2982 10.7576 43.1298 9.77971 43.1298Z" fill="#00AEC7"/>
<path d="M20.9215 40.712C20.9215 40.1653 20.0822 39.9112 19.5355 39.9112C18.6577 39.9112 18.034 40.4348 18.034 41.2048C18.034 41.9831 18.7564 42.2557 19.3161 42.467C19.6701 42.6006 19.959 42.7096 19.959 42.9065C19.959 43.1144 19.8589 43.2222 19.5201 43.2222C19.2456 43.2222 19.0621 43.1185 18.8875 43.0199C18.7291 42.9303 18.578 42.8449 18.3728 42.8449C18.0648 42.8449 17.8954 43.1683 17.8954 43.3377C17.8954 43.8382 18.8194 44.1924 19.4431 44.1924C20.3979 44.1924 21.0216 43.6303 21.0216 42.8911C21.0216 42.1207 20.3052 41.849 19.7464 41.6371C19.3893 41.5016 19.0966 41.3906 19.0966 41.1894C19.0966 40.9738 19.2737 40.8814 19.4739 40.8814C19.6798 40.8814 19.9056 40.9861 20.1003 41.0763C20.2479 41.1447 20.3776 41.2048 20.4672 41.2048C20.729 41.2048 20.9215 40.9661 20.9215 40.712Z" fill="#00AEC7"/>
<path d="M22.247 44.1462C21.9236 44.1462 21.6926 43.8998 21.6926 43.5302V38.787C21.6926 38.4174 21.9236 38.171 22.247 38.171C22.5704 38.171 22.8014 38.4174 22.8014 38.787V40.2962H22.8168C23.0478 40.0113 23.479 39.9112 23.8255 39.9112C24.6956 39.9112 25.3424 40.4656 25.3424 41.405V43.5302C25.3424 43.8998 25.1114 44.1462 24.788 44.1462C24.4646 44.1462 24.2336 43.8998 24.2336 43.5302V41.5975C24.2336 41.0816 23.9102 40.8352 23.5098 40.8352C23.0555 40.8352 22.8014 41.1663 22.8014 41.5975V43.5302C22.8014 43.8998 22.5704 44.1462 22.247 44.1462Z" fill="#00AEC7"/>
<path fill-rule="evenodd" clip-rule="evenodd" d="M28.0762 39.9112C26.9058 39.9112 26.0896 40.9353 26.0896 42.0595C26.0896 43.2145 26.8827 44.1924 28.0762 44.1924C29.2697 44.1924 30.0628 43.2145 30.0628 42.0595C30.0628 40.9353 29.2466 39.9112 28.0762 39.9112ZM28.0762 40.9276C28.6845 40.9276 28.954 41.5282 28.954 42.0595C28.954 42.5908 28.6768 43.176 28.0762 43.176C27.4756 43.176 27.1984 42.5908 27.1984 42.0595C27.1984 41.5282 27.4679 40.9276 28.0762 40.9276Z" fill="#00AEC7"/>
<path d="M31.3489 44.1462C31.0255 44.1462 30.7945 43.8998 30.7945 43.5302V40.5118C30.7945 40.1422 31.0871 39.9574 31.3643 39.9574C31.6569 39.9574 31.9033 40.0652 31.9033 40.4194H31.9187C32.1266 40.1114 32.3499 39.9574 32.6964 39.9574C32.9659 39.9574 33.2354 40.1499 33.2354 40.5503C33.2354 40.8326 33.034 40.9088 32.7882 41.0017C32.7189 41.0279 32.646 41.0554 32.5732 41.0893L32.5489 41.1006C32.2257 41.2507 31.9033 41.4004 31.9033 41.8285V43.5302C31.9033 43.8998 31.6723 44.1462 31.3489 44.1462Z" fill="#00AEC7"/>
<path fill-rule="evenodd" clip-rule="evenodd" d="M36.7758 42.4214C37.1146 42.4214 37.2609 42.2597 37.2609 41.9286C37.2609 41.0046 36.4678 39.9112 35.2666 39.9112C34.0962 39.9112 33.28 40.9353 33.28 42.0595C33.28 43.2838 34.1116 44.1924 35.359 44.1924C36.1829 44.1924 37.1685 43.7304 37.1685 43.253C37.1685 43.0143 36.9529 42.7756 36.7142 42.7756C36.592 42.7756 36.4525 42.8534 36.2898 42.9441C36.0629 43.0707 35.791 43.2222 35.4591 43.2222C34.9432 43.2222 34.4889 42.9681 34.4119 42.4214H36.7758ZM34.3888 41.6822C34.4427 41.2125 34.7738 40.8352 35.2666 40.8352C35.7825 40.8352 36.0905 41.1971 36.1521 41.6822H34.3888Z" fill="#00AEC7"/>
<path fill-rule="evenodd" clip-rule="evenodd" d="M40.8831 44.1462C40.552 44.1462 40.3056 43.9306 40.3056 43.5456V39.2182C40.3056 38.8486 40.5135 38.6176 40.8985 38.6176H42.2537C43.4395 38.6176 44.171 39.1489 44.171 40.3578C44.171 41.2048 43.5319 41.6899 42.7465 41.8131L44.0555 43.2145C44.1633 43.33 44.2095 43.4455 44.2095 43.5533C44.2095 43.8536 43.9708 44.1462 43.632 44.1462C43.4934 44.1462 43.3086 44.0923 43.1854 43.946L41.476 41.8747H41.4606V43.5456C41.4606 43.9306 41.2142 44.1462 40.8831 44.1462ZM42.2537 39.6802H41.4606V41.0431H42.2537C42.6772 41.0431 42.9698 40.789 42.9698 40.3578C42.9698 39.9189 42.6772 39.6802 42.2537 39.6802Z" fill="#00AEC7"/>
<path fill-rule="evenodd" clip-rule="evenodd" d="M48.0905 42.4214C48.4293 42.4214 48.5756 42.2597 48.5756 41.9286C48.5756 41.0046 47.7825 39.9112 46.5813 39.9112C45.4109 39.9112 44.5947 40.9353 44.5947 42.0595C44.5947 43.2838 45.4263 44.1924 46.6737 44.1924C47.4976 44.1924 48.4832 43.7304 48.4832 43.253C48.4832 43.0143 48.2676 42.7756 48.0289 42.7756C47.9067 42.7756 47.7671 42.8535 47.6045 42.9441C47.3776 43.0707 47.1057 43.2222 46.7738 43.2222C46.2579 43.2222 45.8036 42.9681 45.7266 42.4214H48.0905ZM45.7035 41.6822C45.7574 41.2125 46.0885 40.8352 46.5813 40.8352C47.0972 40.8352 47.4052 41.1971 47.4668 41.6822H45.7035Z" fill="#00AEC7"/>
<path d="M49.8035 44.1462C49.4801 44.1462 49.2491 43.8998 49.2491 43.5302V40.5734C49.2491 40.2038 49.4801 39.9574 49.8035 39.9574C50.0884 39.9574 50.2732 40.1114 50.3117 40.3655C50.5273 40.0652 50.8584 39.9112 51.382 39.9112C52.2521 39.9112 52.8989 40.4656 52.8989 41.405V43.5302C52.8989 43.8998 52.6679 44.1462 52.3445 44.1462C52.0211 44.1462 51.7901 43.8998 51.7901 43.5302V41.5975C51.7901 41.0816 51.4667 40.8352 51.0663 40.8352C50.612 40.8352 50.3579 41.1663 50.3579 41.5975V43.5302C50.3579 43.8998 50.1269 44.1462 49.8035 44.1462Z" fill="#00AEC7"/>
<path fill-rule="evenodd" clip-rule="evenodd" d="M57.0648 42.4214C57.4037 42.4214 57.5499 42.2597 57.5499 41.9286C57.5499 41.0046 56.7568 39.9112 55.5556 39.9112C54.3853 39.9112 53.569 40.9353 53.569 42.0595C53.569 43.2838 54.4007 44.1924 55.648 44.1924C56.472 44.1924 57.4576 43.7304 57.4576 43.253C57.4576 43.0143 57.242 42.7756 57.0032 42.7756C56.8811 42.7756 56.7415 42.8535 56.5789 42.9441C56.3519 43.0707 56.0801 43.2222 55.7481 43.2222C55.2322 43.2222 54.7779 42.9681 54.7009 42.4214H57.0648ZM54.6778 41.6822C54.7318 41.2125 55.0628 40.8352 55.5556 40.8352C56.0715 40.8352 56.3795 41.1971 56.4411 41.6822H54.6778Z" fill="#00AEC7"/>
<path d="M59.6865 44.1462C59.3246 44.1462 59.1321 43.9075 59.0166 43.5841L58.0772 40.9276C58.0002 40.7043 57.9617 40.5657 57.9617 40.404C57.9617 40.1576 58.1927 39.9574 58.5161 39.9574C58.7856 39.9574 58.9781 40.1345 59.0397 40.3963L59.6788 42.5138H59.6942L60.341 40.4425C60.4257 40.1422 60.5797 39.9574 60.9031 39.9574C61.2265 39.9574 61.3805 40.1422 61.4652 40.4425L62.112 42.5138H62.1274L62.7665 40.3963C62.8281 40.1345 63.0206 39.9574 63.2901 39.9574C63.6135 39.9574 63.8445 40.1576 63.8445 40.4964C63.8445 40.5919 63.8121 40.6873 63.7725 40.8043L63.7624 40.8342C63.754 40.8591 63.7453 40.8851 63.7367 40.9122L62.7896 43.5841C62.6741 43.9075 62.4816 44.1462 62.1197 44.1462C61.7809 44.1462 61.5807 43.9537 61.4806 43.6303L60.9108 41.8439H60.8954L60.3256 43.6303C60.2255 43.9537 60.0253 44.1462 59.6865 44.1462Z" fill="#00AEC7"/>
<path fill-rule="evenodd" clip-rule="evenodd" d="M68.285 40.6812C68.285 40.3963 68.285 39.9574 67.7537 39.9574C67.4842 39.9574 67.2532 40.1499 67.2224 40.4194C66.976 40.0729 66.5756 39.9112 66.1674 39.9112C65.151 39.9112 64.3349 40.8429 64.3349 42.0595C64.3349 43.3069 65.128 44.1924 66.1674 44.1924C66.591 44.1924 66.9375 44.0153 67.2224 43.6765C67.2994 43.9691 67.4303 44.1462 67.7537 44.1462C68.285 44.1462 68.285 43.7073 68.285 43.4224V40.6812ZM65.4437 42.0595C65.4437 41.5282 65.7132 40.9276 66.3214 40.9276C66.9067 40.9276 67.1762 41.5282 67.1762 42.0595C67.1762 42.5908 66.8989 43.176 66.3214 43.176C65.7208 43.176 65.4437 42.5908 65.4437 42.0595Z" fill="#00AEC7"/>
<path fill-rule="evenodd" clip-rule="evenodd" d="M69.7524 44.1462C69.429 44.1462 69.198 43.8998 69.198 43.5302V38.787C69.198 38.4174 69.429 38.171 69.7524 38.171C70.0758 38.171 70.3068 38.4174 70.3068 38.787V40.2962C70.5994 40.0421 70.9767 39.9112 71.3617 39.9112C72.5552 39.9112 73.1481 41.0277 73.1481 42.1057C73.1481 43.1529 72.4397 44.1924 71.3232 44.1924C70.9459 44.1924 70.5147 44.023 70.3068 43.6842C70.2375 43.9768 70.0604 44.1462 69.7524 44.1462ZM71.1769 40.9276C70.584 40.9276 70.3068 41.482 70.3068 42.021C70.3068 42.56 70.5686 43.176 71.1769 43.176C71.7544 43.176 72.0393 42.5754 72.0393 42.0595C72.0393 41.5359 71.7544 40.9276 71.1769 40.9276Z" fill="#00AEC7"/>
<path d="M73.8841 43.5302C73.8841 43.8998 74.1151 44.1462 74.4385 44.1462C74.7619 44.1462 74.9929 43.8998 74.9929 43.5302V38.787C74.9929 38.4174 74.7619 38.171 74.4385 38.171C74.1151 38.171 73.8841 38.4174 73.8841 38.787V43.5302Z" fill="#00AEC7"/>
<path fill-rule="evenodd" clip-rule="evenodd" d="M79.6287 41.9286C79.6287 42.2597 79.4824 42.4214 79.1436 42.4214H76.7797C76.8567 42.9681 77.311 43.2222 77.8269 43.2222C78.1588 43.2222 78.4306 43.0707 78.6576 42.9441C78.8202 42.8535 78.9598 42.7756 79.082 42.7756C79.3207 42.7756 79.5363 43.0143 79.5363 43.253C79.5363 43.7304 78.5507 44.1924 77.7268 44.1924C76.4794 44.1924 75.6478 43.2838 75.6478 42.0595C75.6478 40.9353 76.464 39.9112 77.6344 39.9112C78.8356 39.9112 79.6287 41.0046 79.6287 41.9286ZM77.6344 40.8352C77.1416 40.8352 76.8105 41.2125 76.7566 41.6822H78.5199C78.4583 41.1971 78.1503 40.8352 77.6344 40.8352Z" fill="#00AEC7"/>
<path d="M82.6734 43.5225C82.6734 43.869 82.9275 44.1 83.2663 44.1H85.2529C85.6148 44.1 85.7996 43.8305 85.7996 43.5687C85.7996 43.2992 85.6225 43.0374 85.2529 43.0374H83.8283V41.867H85.0911C85.4607 41.867 85.6533 41.5975 85.6533 41.3357C85.6533 41.0662 85.4685 40.8044 85.0911 40.8044H83.8283V39.6802H85.1836C85.5454 39.6802 85.7302 39.4107 85.7302 39.1489C85.7302 38.8794 85.5532 38.6176 85.1836 38.6176H83.2739C82.8659 38.6176 82.6734 38.9025 82.6734 39.2875V43.5225Z" fill="#00AEC7"/>
<path d="M87.0412 44.1462C86.7178 44.1462 86.4868 43.8998 86.4868 43.5302V40.5734C86.4868 40.2038 86.7178 39.9574 87.0412 39.9574C87.3261 39.9574 87.5109 40.1114 87.5494 40.3655C87.765 40.0652 88.0961 39.9112 88.6197 39.9112C89.4898 39.9112 90.1366 40.4656 90.1366 41.405V43.5302C90.1366 43.8998 89.9056 44.1462 89.5822 44.1462C89.2588 44.1462 89.0278 43.8998 89.0278 43.5302V41.5975C89.0278 41.0816 88.7044 40.8352 88.304 40.8352C87.8497 40.8352 87.5956 41.1663 87.5956 41.5975V43.5302C87.5956 43.8998 87.3646 44.1462 87.0412 44.1462Z" fill="#00AEC7"/>
<path fill-rule="evenodd" clip-rule="evenodd" d="M94.3025 42.4214C94.6413 42.4214 94.7876 42.2597 94.7876 41.9286C94.7876 41.0046 93.9945 39.9112 92.7933 39.9112C91.6229 39.9112 90.8067 40.9353 90.8067 42.0595C90.8067 43.2838 91.6383 44.1924 92.8857 44.1924C93.7096 44.1924 94.6952 43.7304 94.6952 43.253C94.6952 43.0143 94.4796 42.7756 94.2409 42.7756C94.1188 42.7756 93.9792 42.8535 93.8166 42.9441C93.5896 43.0707 93.3178 43.2222 92.9858 43.2222C92.4699 43.2222 92.0156 42.9681 91.9386 42.4214H94.3025ZM91.9155 41.6822C91.9694 41.2125 92.3005 40.8352 92.7933 40.8352C93.3092 40.8352 93.6172 41.1971 93.6788 41.6822H91.9155Z" fill="#00AEC7"/>
<path d="M96.0002 44.1462C95.6768 44.1462 95.4458 43.8998 95.4458 43.5302V40.5118C95.4458 40.1422 95.7384 39.9574 96.0156 39.9574C96.3082 39.9574 96.5546 40.0652 96.5546 40.4194H96.57C96.7779 40.1114 97.0012 39.9574 97.3477 39.9574C97.6172 39.9574 97.8867 40.1499 97.8867 40.5503C97.8867 40.8326 97.6853 40.9088 97.4395 41.0017C97.3702 41.0279 97.2973 41.0555 97.2245 41.0893L97.2002 41.1006C96.877 41.2507 96.5546 41.4004 96.5546 41.8285V43.5302C96.5546 43.8998 96.3236 44.1462 96.0002 44.1462Z" fill="#00AEC7"/>
<path fill-rule="evenodd" clip-rule="evenodd" d="M102.094 40.5734C102.094 40.2038 101.863 39.9574 101.539 39.9574C101.231 39.9574 101.054 40.1268 100.985 40.4194C100.777 40.0806 100.346 39.9112 99.9685 39.9112C98.852 39.9112 98.1436 40.9507 98.1436 42.0672C98.1436 43.1683 98.6903 44.1924 99.853 44.1924C100.361 44.1924 100.739 44.0076 100.97 43.6688H100.985V43.9306C100.985 44.4927 100.585 44.8084 100.046 44.8084C99.6792 44.8084 99.3938 44.6946 99.1502 44.5974C98.9688 44.525 98.8107 44.4619 98.6595 44.4619C98.4439 44.4619 98.2129 44.7391 98.2129 44.947C98.2129 45.5553 99.5065 45.7786 99.9608 45.7786C101.224 45.7786 102.094 45.1087 102.094 43.7766V40.5734ZM100.985 42.0826C100.985 42.6216 100.708 43.176 100.115 43.176C99.5373 43.176 99.2524 42.637 99.2524 42.0441C99.2524 41.5282 99.5373 40.9276 100.115 40.9276C100.723 40.9276 100.985 41.5436 100.985 42.0826Z" fill="#00AEC7"/>
<path d="M103.469 44.9778L103.954 43.7766L102.73 40.7197C102.699 40.635 102.676 40.5503 102.676 40.4348C102.676 40.1576 102.968 39.9574 103.199 39.9574C103.469 39.9574 103.661 40.1037 103.754 40.3501L104.516 42.4368L105.332 40.3501C105.425 40.1037 105.617 39.9574 105.887 39.9574C106.118 39.9574 106.41 40.1576 106.41 40.4348C106.41 40.5503 106.395 40.635 106.356 40.7197L104.501 45.3397C104.408 45.5707 104.239 45.7786 103.977 45.7786C103.6 45.7786 103.4 45.5399 103.4 45.3012C103.4 45.1934 103.43 45.0779 103.469 44.9778Z" fill="#00AEC7"/>
</svg>
