<svg width="113" height="56" viewBox="0 0 113 56" fill="none" xmlns="http://www.w3.org/2000/svg">
<g clip-path="url(#clip0_264_5524)">
<path fill-rule="evenodd" clip-rule="evenodd" d="M30.1499 11.4987C30.3332 10.0046 30.1499 7.83611 31.276 6.818C31.6165 5.23133 34.0913 5.60156 33.6984 4.58344C33.4627 3.962 32.2974 4.2 31.826 4.37189C30.1693 4.90042 28.4867 5.34175 26.7847 5.69411L25.1349 5.21811C23.0005 5.509 21.7697 7.21467 20.5912 8.57655C19.5961 9.71367 18.2605 12.5432 19.2818 14.1696C19.2818 14.5398 19.164 14.8968 19.1116 15.267L21.5209 18.837C22.3589 19.432 22.4637 19.8816 23.3672 20.4766L23.9171 21.3228C24.9528 21.7737 26.1142 21.8347 27.1907 21.4947C30.6606 21.8252 30.294 14.6984 31.3939 13.2043C31.2028 12.4998 30.7595 11.892 30.1499 11.4987ZM15.1441 32.879C16.0315 32.7402 16.9071 32.5324 17.7629 32.2576C18.8104 31.7287 22.4244 29.1636 21.2721 27.0877C20.9186 22.7111 15.694 26.4133 13.4156 24.8796C11.242 24.5887 8.71485 20.2782 8.04705 18.4403C7.95089 18.0534 7.77213 17.6924 7.52329 17.3826C7.52329 17.3164 7.30069 17.5809 7.30069 17.5148C6.64598 18.2949 6.75073 18.9692 6.65908 20.86H5.76868C5.78775 21.3655 5.63016 21.8616 5.32348 22.2616L5.12706 22.6053C4.56402 22.4202 4.85209 22.6847 4.61639 22.2219C2.53443 22.2748 2.67846 24.3771 1.73569 25.5803C1.77497 29.5073 9.4874 34.3599 15.1441 32.879ZM40.7431 20.979C38.3501 21.2647 36.0577 22.1164 34.052 23.4648C33.5386 23.8203 33.0947 24.2686 32.7426 24.787C32.4996 25.2345 32.4208 25.7542 32.52 26.2547C32.5483 26.5686 32.6395 26.8735 32.7881 27.1508C32.9366 27.4281 33.1394 27.672 33.3842 27.8678C37.5219 27.5637 44.6844 27.2992 46.0855 30.8031C46.1359 31.106 46.2015 31.406 46.2819 31.7022C47.5913 31.3584 46.6485 31.4774 48.6519 31.7948C49.4506 31.7801 50.2435 31.6556 51.0089 31.4246C51.2286 31.3604 51.4187 31.2199 51.5457 31.0279C51.5242 30.8567 51.5242 30.6834 51.5457 30.5122C51.8867 30.546 52.2304 30.4866 52.5409 30.3403C54.4526 30.0362 53.4444 29.1239 54.3479 28.1058C53.7324 21.4814 47.0806 19.9609 40.7823 20.9393L40.7431 20.979ZM33.3711 35.1797C32.4152 35.9201 32.0617 35.735 31.4462 36.8853C31.4462 36.8853 31.5379 37.0572 31.4462 37.0572C32.0224 38.2076 33.3318 38.6703 34.3008 39.4769C34.6019 39.7413 35.4138 41.1561 35.7935 41.2619C36.2256 41.7776 36.5137 43.232 36.7886 43.232C37.0898 43.6287 36.7886 44.5542 37.0636 44.9641C37.0636 46.6698 36.841 46.802 36.5529 47.1193C36.5529 47.2383 36.7101 47.5557 36.7101 47.6747C36.7101 47.7937 37.4695 48.2432 37.7707 48.1771C38.6873 48.1771 42.4715 51.1918 42.7727 51.7735C45.4831 51.9719 45.2867 51.1389 47.1592 50.3323C47.6698 50.1208 48.0758 50.3323 48.4686 49.9753C48.8614 49.6183 48.8483 48.9043 49.1757 48.5473C49.1888 41.804 40.1015 35.4177 33.3711 35.1797ZM22.6863 36.7267C22.3065 37.1233 21.259 37.282 20.9709 37.7448C20.3202 38.8418 19.5613 39.8696 18.7057 40.8123C16.0868 43.2717 10.6397 44.5146 7.9292 42.1346C7.74589 42.1346 7.85064 42.2536 8.06015 42.9279C8.25656 44.2501 9.2779 47.1987 8.89817 47.9655C9.14696 48.8118 9.39575 48.5077 9.86713 48.9704C10.3385 49.4332 10.3123 50.1208 10.6659 50.2927L11.9753 50.2133C12.0539 50.4381 12.1324 50.6761 12.1979 50.9141L13.7954 50.7951C14.0965 50.8612 15 51.3372 15.2619 51.4033L17.0296 51.2843C17.6744 51.4039 18.3373 51.3781 18.9711 51.209C19.6049 51.0399 20.1939 50.7315 20.696 50.3059C21.3376 49.8695 22.0054 49.9357 22.5946 49.4464C23.523 48.5872 24.3254 47.5988 24.9777 46.5111C26.2872 44.1576 25.8289 38.5778 24.6635 37.1498C24.2183 36.6209 23.6814 36.6077 22.6863 36.7267Z" fill="#FE5716"/>
<path d="M87.8426 21.3889C93.4338 21.3889 97.2049 24.9589 97.2049 31.332C97.2049 39.3579 91.9673 41.7247 86.5725 41.7247H79.2922V24.5226V21.4021L87.8426 21.3889ZM86.2059 37.877C89.2961 37.877 91.797 36.8457 91.797 31.3452C91.797 26.6646 89.2961 25.1043 86.2059 25.1043H84.5822V37.877H86.2059ZM105.127 38.5778C105.127 40.0587 105.205 41.685 105.205 41.685H99.7975V24.5226V21.4021H112.564V25.3688C112.564 25.3688 109.71 25.3027 108.741 25.3027H105.127V29.3222H111.752V33.0641H105.127V38.5778ZM68.5157 37.6258C67.9257 37.663 67.3346 37.5752 66.7802 37.3682C66.2258 37.1612 65.7203 36.8395 65.2962 36.4237C64.8721 36.0079 64.5387 35.5072 64.3175 34.9537C64.0962 34.4002 63.9919 33.8061 64.0113 33.2096V32.9848C64.0113 32.9848 68.7383 32.8658 70.3358 32.8658C73.0594 32.8658 74.1854 32.8658 76.3198 32.7997V31.2659C76.3198 24.3375 73.4129 20.9658 67.4158 20.9658C64.6529 20.9658 58.2499 22.0103 58.2499 31.7287C58.2499 38.1943 61.4972 42.0685 67.1539 42.0685C70.4155 42.2412 73.6409 41.3106 76.3198 39.424C76.1103 39.0935 74.4473 36.092 74.2378 35.7615C72.5822 36.9951 70.5732 37.6497 68.5157 37.6258ZM64.0113 29.0842C64.0899 27.9075 64.5089 25.1176 67.4551 25.1176C70.4012 25.1176 70.6369 27.6959 70.6369 29.0842V29.3222H63.9982L64.0113 29.0842Z" fill="#10367A"/>
</g>
<defs>
<clipPath id="clip0_264_5524">
<rect width="111.3" height="47.6" fill="white" transform="translate(1.5 4.20001)"/>
</clipPath>
</defs>
</svg>
