<svg width="1200" height="630" viewBox="0 0 1200 630" fill="none" xmlns="http://www.w3.org/2000/svg">
<rect width="1200" height="630" fill="#2B3144"/>
<path d="M346.627 249.358L346.568 308.586C346.568 309.408 346.79 310.216 347.213 310.929C347.635 311.641 348.243 312.234 348.976 312.647L365.7 322.038C366.434 322.45 367.267 322.668 368.116 322.669C368.964 322.67 369.798 322.454 370.533 322.043C371.268 321.632 371.879 321.041 372.305 320.328C372.73 319.615 372.955 318.807 372.957 317.983V266.096C372.958 260.554 370.749 255.226 366.794 251.23C362.838 247.234 357.444 244.881 351.74 244.662H351.621C350.973 244.64 350.326 244.745 349.72 244.971C349.114 245.197 348.561 245.539 348.095 245.978C347.629 246.416 347.258 246.941 347.006 247.522C346.754 248.103 346.625 248.727 346.627 249.358V249.358Z" fill="#00CB4A"/>
<path d="M281.136 327.688L333.974 298.131C334.707 297.72 335.316 297.129 335.741 296.417C336.166 295.706 336.391 294.899 336.395 294.076L336.434 275.301C336.438 274.475 336.217 273.662 335.794 272.946C335.37 272.23 334.759 271.634 334.022 271.221C333.286 270.807 332.45 270.59 331.599 270.591C330.748 270.592 329.913 270.812 329.177 271.227L282.905 297.145C277.959 299.913 274.311 304.435 272.726 309.759C271.14 315.084 271.74 320.798 274.401 325.702L274.454 325.804C274.756 326.363 275.171 326.856 275.674 327.255C276.177 327.654 276.758 327.951 277.382 328.126C278.006 328.302 278.66 328.354 279.306 328.279C279.951 328.203 280.573 328.002 281.136 327.688V327.688Z" fill="#00CB4A"/>
<path d="M383.756 343.67L330.978 314.018C330.246 313.605 329.414 313.388 328.567 313.388C327.72 313.388 326.889 313.605 326.156 314.018L309.392 323.37C308.656 323.781 308.045 324.373 307.62 325.087C307.195 325.8 306.971 326.61 306.971 327.435C306.971 328.259 307.195 329.069 307.62 329.782C308.045 330.496 308.656 331.088 309.392 331.499L355.645 357.455C360.588 360.23 366.445 361.037 371.987 359.709C377.53 358.381 382.327 355.02 385.373 350.332L385.438 350.236C385.785 349.701 386.017 349.104 386.12 348.48C386.224 347.856 386.196 347.218 386.039 346.605C385.882 345.992 385.598 345.415 385.206 344.911C384.814 344.407 384.321 343.985 383.756 343.67V343.67Z" fill="#00CB4A"/>
<path d="M430.629 274.667H448.792L455.818 314.767L465.331 274.667H483.757L492.993 314.434L500.019 274.667H518.194L503.37 333.325H482.721L474.409 297.382L465.925 333.325H445.275L430.629 274.667Z" fill="white"/>
<path d="M523.947 273.994C523.947 269.248 527.8 265.507 533.797 265.507C539.794 265.507 543.567 269.248 543.567 273.994C543.567 278.741 539.715 282.322 533.797 282.322C527.879 282.322 523.947 278.658 523.947 273.994ZM525.313 286.639H542.109V333.318H525.313V286.639Z" fill="white"/>
<path d="M584.444 308.278C584.444 302.872 581.356 299.707 576.56 299.707C571.586 299.707 568.505 302.872 568.505 308.278V333.325H551.708V286.646H568.505V293.301C571.329 289.31 576.422 286.255 583.157 286.255C594.3 286.255 601.24 293.942 601.24 306.113V333.325H584.444V308.278Z" fill="white"/>
<path d="M628.315 286.063C634.655 286.063 639.63 288.811 642.282 293.051V271.752H659.164V333.325H642.282V326.836C639.801 330.993 635.025 333.882 628.23 333.882C616.836 333.882 607.778 324.811 607.778 309.918C607.778 295.024 616.836 286.063 628.315 286.063ZM633.646 300.29C628.85 300.29 624.911 303.621 624.911 309.944C624.911 316.266 628.87 319.68 633.646 319.68C638.422 319.68 642.387 316.266 642.387 309.944C642.387 303.621 638.343 300.29 633.646 300.29Z" fill="white"/>
<path d="M689.241 333.908C675.875 333.908 666.962 326.919 666.276 317.598H682.558C682.987 320.68 685.645 322.339 689.155 322.339C691.985 322.339 693.615 321.006 693.615 319.347C693.615 312.525 668.077 318.066 668.077 300.956C668.077 292.802 675.017 286.063 688.04 286.063C701.063 286.063 708.01 293.109 709.151 302.372H693.978C693.463 299.457 691.339 297.715 687.717 297.715C684.979 297.715 683.521 298.791 683.521 300.54C683.521 307.195 709.145 301.872 709.25 319.597C709.211 327.752 701.67 333.908 689.241 333.908Z" fill="white"/>
<path d="M739.03 286.063C751.195 286.063 760.141 292.802 762.51 304.537H744.697C743.754 301.706 741.867 299.957 738.7 299.957C734.584 299.957 731.846 303.288 731.846 309.944C731.846 316.599 734.584 320.013 738.7 320.013C741.867 320.013 743.754 318.348 744.697 315.433H762.51C760.108 327.002 751.195 333.908 739.03 333.908C724.721 333.908 714.693 324.837 714.693 309.944C714.693 295.05 724.721 286.063 739.03 286.063Z" fill="white"/>
<path d="M791.814 333.908C777.505 333.908 766.705 324.837 766.705 309.944C766.705 295.05 777.59 286.063 791.9 286.063C806.209 286.063 817.095 295.133 817.095 309.944C817.095 324.754 806.123 333.908 791.814 333.908ZM791.814 319.764C796.096 319.764 800.041 316.682 800.041 309.944C800.041 303.205 796.181 300.207 791.9 300.207C787.618 300.207 783.845 303.288 783.845 309.944C783.845 316.599 787.447 319.764 791.814 319.764Z" fill="white"/>
<path d="M854.798 286.063C866.277 286.063 875.249 295.031 875.249 309.944C875.249 324.856 866.251 333.908 854.798 333.908C848.029 333.908 843.312 330.91 840.746 326.861V355.649H823.949V286.646H840.746V293.135C843.226 288.977 848.115 286.063 854.798 286.063ZM849.48 300.29C844.77 300.29 840.746 303.704 840.746 309.944C840.746 316.183 844.77 319.68 849.48 319.68C854.191 319.68 858.222 316.183 858.222 309.944C858.222 303.704 854.197 300.29 849.48 300.29V300.29Z" fill="white"/>
<path d="M903.895 333.908C889.671 333.908 879.485 324.837 879.485 309.944C879.485 295.05 889.506 286.063 903.895 286.063C918.125 286.063 928.146 294.967 928.146 309.444C928.146 310.729 928.06 312.013 927.889 313.287H896.097C896.44 318.694 899.441 320.859 903.208 320.859C904.473 320.907 905.723 320.583 906.794 319.929C907.866 319.276 908.709 318.322 909.212 317.195H927.117C924.894 326.752 915.895 333.908 903.895 333.908ZM896.215 305.383H911.039C911.039 301.219 907.701 298.977 903.842 298.977C899.785 298.977 896.954 301.123 896.215 305.383Z" fill="white"/>
</svg>
