<svg width="199" height="58" viewBox="0 0 199 58" fill="none" xmlns="http://www.w3.org/2000/svg">
<path d="M33.0018 15.0531L32.9863 30.5971C32.9863 30.8129 33.0443 31.025 33.1544 31.2121C33.2645 31.3991 33.423 31.5546 33.6139 31.663L37.9726 34.1275C38.164 34.2358 38.3811 34.2929 38.6022 34.2931C38.8233 34.2934 39.0406 34.2367 39.2322 34.1289C39.4238 34.0211 39.5831 33.8659 39.694 33.6788C39.8048 33.4918 39.8634 33.2795 39.8639 33.0634V19.446C39.8642 17.9914 39.2885 16.5933 38.2577 15.5446C37.2268 14.4959 35.8208 13.8782 34.3343 13.8208H34.3034C34.1343 13.8149 33.9658 13.8425 33.8079 13.9018C33.6499 13.9611 33.5059 14.051 33.3844 14.1661C33.2628 14.2812 33.1663 14.419 33.1006 14.5715C33.0348 14.7239 33.0012 14.8877 33.0018 15.0531Z" fill="#00CB4A"/>
<path d="M15.9341 35.6103L29.7047 27.8535C29.8958 27.7454 30.0546 27.5903 30.1653 27.4036C30.276 27.2169 30.3348 27.0051 30.3357 26.7893L30.3461 21.8618C30.347 21.645 30.2894 21.4318 30.179 21.2438C30.0686 21.0557 29.9094 20.8995 29.7174 20.791C29.5255 20.6825 29.3076 20.6255 29.0859 20.6258C28.8641 20.626 28.6464 20.6836 28.4547 20.7926L16.3949 27.5946C15.1061 28.3212 14.1553 29.5077 13.742 30.9052C13.3288 32.3026 13.4853 33.8022 14.1786 35.0892L14.1924 35.1161C14.2711 35.2626 14.3793 35.3921 14.5105 35.4969C14.6416 35.6016 14.7931 35.6793 14.9557 35.7255C15.1183 35.7716 15.2888 35.7852 15.4569 35.7654C15.625 35.7456 15.7873 35.6929 15.9341 35.6103Z" fill="#00CB4A"/>
<path d="M42.679 39.8048L28.9238 32.0227C28.7329 31.9145 28.5161 31.8575 28.2954 31.8575C28.0747 31.8575 27.8579 31.9145 27.667 32.0227L23.298 34.4772C23.1062 34.5851 22.9469 34.7405 22.8361 34.9278C22.7253 35.115 22.667 35.3276 22.667 35.5439C22.667 35.7602 22.7253 35.9728 22.8361 36.16C22.9469 36.3473 23.1062 36.5027 23.298 36.6106L35.3527 43.4227C36.6407 44.1507 38.1672 44.3627 39.6117 44.0142C41.0562 43.6656 42.3065 42.7836 43.1002 41.5532L43.1174 41.528C43.2078 41.3876 43.2683 41.2309 43.2952 41.0671C43.3221 40.9034 43.3148 40.736 43.2739 40.575C43.2329 40.4141 43.1591 40.2629 43.0569 40.1305C42.9546 39.9981 42.8261 39.8874 42.679 39.8048Z" fill="#00CB4A"/>
<path d="M54.8955 21.6954H59.629L61.4602 32.2194L63.9395 21.6954H68.7418L71.1489 32.132L72.9801 21.6954H77.717L73.8535 37.0897H68.4718L66.3054 27.6568L64.0943 37.0897H58.7126L54.8955 21.6954Z" fill="#2A3246"/>
<path d="M79.2158 21.5188C79.2158 20.2731 80.2199 19.2913 81.7829 19.2913C83.3458 19.2913 84.3293 20.2731 84.3293 21.5188C84.3293 22.7646 83.3252 23.7043 81.7829 23.7043C80.2406 23.7043 79.2158 22.7427 79.2158 21.5188ZM79.5717 24.8374H83.9493V37.088H79.5717V24.8374Z" fill="#2A3246"/>
<path d="M94.9828 30.5164C94.9828 29.0975 94.1781 28.267 92.9281 28.267C91.6317 28.267 90.8288 29.0975 90.8288 30.5164V37.0897H86.4512V24.8391H90.8288V26.5858C91.5647 25.5385 92.892 24.7366 94.6475 24.7366C97.5516 24.7366 99.3604 26.754 99.3604 29.9482V37.0897H94.9828V30.5164Z" fill="#2A3246"/>
<path d="M106.417 24.6861C108.069 24.6861 109.366 25.4073 110.057 26.5203V20.9304H114.457V37.0897H110.057V35.3867C109.41 36.4778 108.166 37.236 106.395 37.236C103.425 37.236 101.064 34.8555 101.064 30.9468C101.064 27.0381 103.425 24.6861 106.417 24.6861ZM107.806 28.42C106.556 28.42 105.53 29.2942 105.53 30.9535C105.53 32.6128 106.561 33.5089 107.806 33.5089C109.051 33.5089 110.084 32.6128 110.084 30.9535C110.084 29.2942 109.03 28.42 107.806 28.42Z" fill="#2A3246"/>
<path d="M122.295 37.2427C118.811 37.2427 116.488 35.4086 116.31 32.9625H120.553C120.665 33.7711 121.358 34.2066 122.272 34.2066C123.01 34.2066 123.435 33.8569 123.435 33.4215C123.435 31.631 116.779 33.0852 116.779 28.5949C116.779 26.4547 118.588 24.6862 121.982 24.6862C125.376 24.6862 127.186 26.5354 127.484 28.9664H123.529C123.395 28.2015 122.842 27.7442 121.898 27.7442C121.184 27.7442 120.804 28.0266 120.804 28.4856C120.804 30.2323 127.482 28.8353 127.51 33.487C127.499 35.6271 125.534 37.2427 122.295 37.2427Z" fill="#2A3246"/>
<path d="M135.272 24.6862C138.442 24.6862 140.774 26.4547 141.391 29.5346H136.749C136.503 28.7915 136.011 28.3326 135.186 28.3326C134.113 28.3326 133.399 29.2068 133.399 30.9535C133.399 32.7002 134.113 33.5963 135.186 33.5963C136.011 33.5963 136.503 33.1592 136.749 32.3943H141.391C140.765 35.4304 138.442 37.2427 135.272 37.2427C131.542 37.2427 128.929 34.8622 128.929 30.9535C128.929 27.0448 131.542 24.6862 135.272 24.6862Z" fill="#2A3246"/>
<path d="M149.028 37.2427C145.299 37.2427 142.484 34.8622 142.484 30.9535C142.484 27.0448 145.321 24.6862 149.051 24.6862C152.78 24.6862 155.617 27.0667 155.617 30.9535C155.617 34.8404 152.758 37.2427 149.028 37.2427ZM149.028 33.5307C150.144 33.5307 151.172 32.7221 151.172 30.9535C151.172 29.1849 150.167 28.3982 149.051 28.3982C147.935 28.3982 146.951 29.2068 146.951 30.9535C146.951 32.7002 147.89 33.5307 149.028 33.5307Z" fill="#2A3246"/>
<path d="M165.443 24.6862C168.435 24.6862 170.773 27.0398 170.773 30.9535C170.773 34.8673 168.428 37.2427 165.443 37.2427C163.679 37.2427 162.45 36.456 161.781 35.3935V42.9486H157.403V24.8391H161.781V26.5422C162.427 25.4511 163.701 24.6862 165.443 24.6862ZM164.057 28.42C162.83 28.42 161.781 29.3161 161.781 30.9535C161.781 32.591 162.83 33.5089 164.057 33.5089C165.285 33.5089 166.336 32.591 166.336 30.9535C166.336 29.3161 165.287 28.42 164.057 28.42Z" fill="#2A3246"/>
<path d="M178.239 37.2427C174.532 37.2427 171.877 34.8622 171.877 30.9535C171.877 27.0448 174.489 24.6862 178.239 24.6862C181.947 24.6862 184.559 27.023 184.559 30.8224C184.559 31.1597 184.537 31.4966 184.492 31.8311H176.206C176.296 33.25 177.078 33.8182 178.06 33.8182C178.389 33.8309 178.715 33.7459 178.994 33.5743C179.274 33.4026 179.493 33.1525 179.625 32.8566H184.291C183.712 35.3649 181.366 37.2427 178.239 37.2427ZM176.237 29.7565H180.101C180.101 28.6638 179.231 28.0754 178.225 28.0754C177.168 28.0754 176.43 28.6386 176.237 29.7565Z" fill="#2A3246"/>
</svg>
