<svg xmlns="http://www.w3.org/2000/svg" version="1.0" width="1333.333" height="1333.333" viewBox="0 0 1000 1000"><path d="M582.6 155.7c-.3.4-1.5.8-2.6 1-4.2.6-11.1 4.7-14.4 8.5-6.8 7.7-7.4 11-7.4 41.3-.4 164 0 333.7.6 336.5 1.9 7.6 6.3 13.2 13.8 17.6 2.7 1.5 5.1 3.2 5.2 3.6.2.4.8.8 1.2.8.9 0 40.9 22.9 48.2 27.6 2.1 1.3 4 2.4 4.2 2.4.3 0 6.2 3.4 13.1 7.5 7 4.1 13.1 7.5 13.5 7.5.5 0 1.5.6 2.3 1.4.7.8 4.2 2.9 7.8 4.7 10.5 5.3 21.8 4.7 31.1-1.8 2.1-1.4 3.5-2.9 3.2-3.4-.3-.5-.1-.9.4-.9 1.4 0 6.1-7.5 6.6-10.7.2-1.5.5-2.8.6-2.8.7 0 .5-319.2-.2-320.2-.5-.6-.5-1.4.2-1.8.7-.4.7-1.2 0-2.4-.5-1-.7-2.1-.4-2.3 1.1-1.2-5.2-27.6-7.6-32-.6-1-1-2.5-1-3.3 0-.8-.5-1.5-1.2-1.5-.6 0-.9-.3-.5-.6.6-.6-4.3-10.4-8.7-17.4-8-12.4-18.8-24.2-30.6-33.1-2.5-1.9-4.6-3.7-4.8-4.2-.2-.4-.8-.7-1.4-.7-.6 0-2.9-1.3-5.3-2.9-7.3-4.9-29.4-14.1-35-14.6-.5-.1-2.6-.5-4.5-1-5.1-1.2-6.7-1.4-15.3-1.9-4.3-.2-8.1-.6-8.4-1-.8-.8-1.8-.8-2.7.1zM464 311.3c-2.5.7-7.9 3.3-12 5.7-4.1 2.3-8.6 4.9-10 5.7-1.4.8-3.8 2.2-5.5 3.2-1.6 1-4.8 2.8-7 4.1-8.8 5-13 7.4-13.5 8-.3.3-2.3 1.4-4.5 2.6-8.5 4.4-28 15.9-28.7 16.8-.4.6-.8.7-.8.2 0-.4-1.5.3-3.4 1.8-1.9 1.4-4.1 2.6-4.9 2.6-.9 0-1.7.4-1.9.8-.4 1-12.1 7.8-12.7 7.3-.2-.1-.7.1-1 .6-.5.8-15.4 9.7-26.6 15.8-2.2 1.2-14.5 8.4-27.4 15.9-12.9 7.5-23.7 13.6-24.1 13.6-.4 0-1.3.7-2 1.5s-1.6 1.2-2.1.9c-.5-.3-.9 0-.9.5 0 .6-.4 1.1-.9 1.1s-4.8 2.4-9.7 5.3c-4.9 2.9-11.4 6.6-14.4 8.3-3 1.6-5.7 3.1-6 3.4-.3.3-2.6 1.7-5.2 3-2.7 1.4-4.8 2.8-4.8 3.2 0 .5-.5.8-1 .8-.6 0-5.1 2.4-10 5.2-5 2.9-10.3 6-11.7 6.8-1.5.8-6.7 3.9-11.5 6.7-4.8 2.9-8.8 4.9-8.8 4.5 0-.4-.4-.2-.8.3-.4.6-4.1 3.2-8.2 6-4.1 2.7-8.1 5.7-8.8 6.7-.7 1-1.7 1.8-2.3 1.8-.5 0-3.9 3.2-7.6 7.1-9.7 10.3-9.5 10-12.8 14.9-1.6 2.5-3.3 4.7-3.7 5-1.1.9-9.2 17-11.6 23-6.4 16.4-8.6 28.7-8.5 47 .1 18.2 2.4 30.6 8.3 45.4 7.8 19.7 13.7 26.2 26 28.4 7.5 1.4 15.2-.4 23.2-5.5 2.1-1.2 3.9-2.3 4.2-2.3.2 0 4.5-2.5 9.5-5.5 5.1-3 9.6-5.5 10.1-5.5.6 0 1-.4 1-.8 0-.5 1.6-1.4 3.5-2.2 1.9-.8 3.5-1.7 3.5-2.2 0-.4.5-.8 1.1-.8.6 0 4.8-2.3 9.4-5 4.6-2.8 8.8-5 9.4-5 .6 0 1.1-.3 1.1-.8 0-.4 1.5-1.3 3.3-2.1 1.7-.8 3.4-1.7 3.7-2.1.3-.3 3-2 6-3.6 3-1.7 9.5-5.4 14.4-8.2 4.9-2.9 9.3-5.2 9.7-5.2.5 0 .9-.4.9-.9s1.2-1.4 2.8-2c2.6-1 10.2-5.1 11.2-6.1.9-.9 8.4-5.1 11.3-6.3 1.5-.6 2.7-1.5 2.7-1.9 0-.4.7-.8 1.5-.8s1.5-.5 1.5-1.2c0-.6.3-.9.6-.5.3.3 3.6-1.3 7.2-3.7 3.7-2.3 8.2-4.8 10-5.5 1.7-.7 3.2-1.8 3.2-2.3 0-.5.4-.7.9-.4.5.3 1.4 0 2-.8.6-.7 2.9-2.1 5.1-3.1 2.2-1 4-2.2 4-2.7 0-.4.4-.8.8-.8.8 0 20-10.7 29.5-16.4 1.8-1 5-2.9 7.2-4 2.2-1.2 5.1-2.9 6.5-3.8 6.8-4.3 22-12.8 22.4-12.6.2.2 1.2-.4 2.2-1.2 1.1-.9 3.6-2.5 5.7-3.5 2-1.1 3.7-2.2 3.7-2.5 0-.3 1.5-1.2 3.3-1.9 1.7-.8 6-3.2 9.5-5.3 3.4-2.1 6.7-3.8 7.2-3.8.6 0 1-.4 1-.9s1-1.3 2.2-1.7c1.2-.3 5-2.4 8.5-4.5 3.5-2.2 6.6-3.9 6.8-3.9.3 0 2.4-1.2 4.8-2.7 2.3-1.5 8.9-5.3 14.7-8.6 5.8-3.3 12-7.1 13.8-8.5 3.6-2.8 7.8-9.2 9.2-14.4.9-3.1 1.6-121 .8-125-.2-1-.7-2.1-1.1-2.4-.4-.4-.7-1.4-.7-2.2 0-2.7-8.8-11.9-13.5-14.1-5.8-2.7-13.7-3.4-19.5-1.8zM450.9 565.1c-.7.4-1.6.6-2.1.3-.9-.6-11.3 4.3-19.3 9.1-3.3 2-6.8 3.9-7.7 4.2-1 .3-1.8 1-1.8 1.5s-.4.6-1 .3c-.5-.3-1-.2-1 .3s-.8 1.2-1.7 1.5c-1 .4-3.6 1.7-5.8 3-11 6.6-45.4 26.3-48.2 27.6-1.8.8-3.3 1.9-3.3 2.3 0 .4-.4.8-.9.8-1.7 0-17.4 9.5-20 12.1-6.1 6.1-8.3 11.3-8.6 19.9-.3 10.6 4.6 18.7 15.5 25.6 6.6 4.1 10.1 6.1 13.3 7.4 1.5.7 2.7 1.7 2.7 2.3 0 .6.3.8.6.4.3-.3 3 1 5.9 2.9 3 1.9 5.8 3.4 6.3 3.4s1.9.9 3.2 2c1.3 1.1 2.9 2 3.7 2 .7 0 1.3.4 1.3 1 0 .5.6 1 1.4 1 .8 0 2.1.6 2.8 1.2.8.7 2.3 1.8 3.3 2.4 1.1.5 12.5 7.1 25.3 14.5s25.4 14.6 28 16.1c2.6 1.4 5.8 3.3 7.2 4.1 1.4.8 4.1 2.3 6 3.3 1.9 1 3.7 2.2 4 2.5.6.7 4.7 2.9 10.7 5.9 2.3 1.1 4.3 2.4 4.5 2.8.2.4 1.9 1.5 3.8 2.5s4.4 2.3 5.5 3c2.3 1.4 16.3 9.4 20.4 11.7 1.4.8 5.7 3.3 9.5 5.5 3.7 2.2 9 5.2 11.7 6.7 2.8 1.5 6.3 3.6 7.8 4.8 1.6 1.1 3.2 2 3.5 2 .4 0 2.3 1.1 4.4 2.3 2 1.3 5.7 3.5 8.2 4.9 6.7 3.7 10.9 6.2 16.8 9.7 2.9 1.7 5.7 3.1 6.2 3.1.6 0 1 .4 1 1 0 .5.6 1 1.4 1 .7 0 1.9.7 2.6 1.5.7.8 1.6 1.2 2.1.9.5-.3.9 0 .9.5 0 .6.5 1.1 1 1.1.6 0 4 1.8 7.6 4 3.6 2.2 6.8 4 7.1 4 .3 0 1.7.9 3.3 2 3 2.1 23.6 12.8 28.5 14.7 2.5 1 13.7 4.5 15.5 4.8.3 0 2.3.5 4.5.9 6.9 1.5 19.8 2.9 23 2.6 1.9-.1 2.7-.1 5.8.1.6 0 4.1-.2 7.7-.6 3.6-.3 7.5-.7 8.8-.8 1.2 0 2.2-.5 2.2-1 0-.4.4-.5 1-.2 1.2.7 11.4-1.8 20.5-5.2 6.5-2.4 22.4-10 23.5-11.3.3-.3 2.2-1.4 4.3-2.5 2-1.1 3.7-2.2 3.7-2.6 0-.3 2-2 4.5-3.8 8.1-5.8 21.2-20 26.5-28.7 1.3-2.1 2.9-4.2 3.4-4.6.6-.4.7-.8.2-.8-.5 0-.3-.7.4-1.4.6-.8 1.4-3 1.6-4.8.3-1.8.7-4.3.9-5.5.8-5.2-2.6-14.7-7.2-19.9-2.6-2.8-20.9-14.4-27.5-17.5-1.6-.7-2.8-1.7-2.8-2.2 0-.6-.3-.8-.6-.4-.4.3-2.6-.7-5-2.3-2.3-1.7-4.5-3-4.8-3-.2 0-4.4-2.3-9.3-5.1-4.8-2.9-11.3-6.5-14.3-8.2-3-1.7-5.6-3.4-5.8-3.9-.2-.4-.8-.8-1.2-.8-.5 0-5.9-2.9-12-6.5s-11.4-6.5-11.7-6.5c-.4 0-1.4-.6-2.2-1.4-.9-.7-4.1-2.6-7.1-4.2s-5.7-3.1-6-3.4c-.3-.3-4.3-2.8-9-5.4-4.7-2.7-10.5-6-13-7.4-2.5-1.4-7.6-4.4-11.5-6.7-3.8-2.2-7.7-4.4-8.5-4.8-.8-.4-2.8-1.6-4.5-2.7-1.6-1.1-3.9-2.4-5-3-1.1-.5-4.2-2.3-7-4-2.7-1.6-6.6-3.8-8.5-4.7-1.9-1-3.7-2.1-4-2.4-.3-.3-2.5-1.7-5-3.1-2.5-1.4-9-5.1-14.5-8.3-5.5-3.1-12-6.9-14.5-8.3-2.5-1.4-6.9-4-9.8-5.9-2.9-1.8-5.9-3.3-6.6-3.3-.8 0-1.6-.7-2-1.5-.3-.8-.9-1.4-1.3-1.3-.4.1-3.7-1.5-7.3-3.6-3.6-2.1-8-4.7-9.7-5.7-1.8-1.1-4.8-2.7-6.5-3.8-1.8-1-6-3.4-9.3-5.3-26.3-15.2-32.9-19-36.2-21.1-5.1-3.2-15.4-8-15.9-7.4-.3.3-2 .1-3.8-.3-1.9-.4-4-.4-4.7.1z"/></svg>